G75*
%MOIN*%
%OFA0B0*%
%FSLAX25Y25*%
%IPPOS*%
%LPD*%
%AMOC8*
5,1,8,0,0,1.08239X$1,22.5*
%
%ADD10C,0.00600*%
%ADD11C,0.06890*%
%ADD12C,0.08600*%
%ADD13R,0.06000X0.06000*%
%ADD14C,0.06000*%
%ADD15R,0.06300X0.04600*%
%ADD16R,0.01200X0.02500*%
%ADD17C,0.04724*%
%ADD18C,0.06496*%
%ADD19C,0.00800*%
%ADD20C,0.02362*%
%ADD21C,0.03200*%
%ADD22C,0.01600*%
D10*
X0031642Y0061474D02*
X0038042Y0061474D01*
X0038042Y0063252D01*
X0038040Y0063326D01*
X0038034Y0063401D01*
X0038024Y0063474D01*
X0038011Y0063548D01*
X0037994Y0063620D01*
X0037972Y0063691D01*
X0037948Y0063762D01*
X0037919Y0063830D01*
X0037887Y0063898D01*
X0037851Y0063963D01*
X0037813Y0064026D01*
X0037770Y0064088D01*
X0037725Y0064147D01*
X0037677Y0064204D01*
X0037626Y0064258D01*
X0037572Y0064309D01*
X0037515Y0064357D01*
X0037456Y0064402D01*
X0037394Y0064445D01*
X0037331Y0064483D01*
X0037266Y0064519D01*
X0037198Y0064551D01*
X0037130Y0064580D01*
X0037059Y0064604D01*
X0036988Y0064626D01*
X0036916Y0064643D01*
X0036842Y0064656D01*
X0036769Y0064666D01*
X0036694Y0064672D01*
X0036620Y0064674D01*
X0036546Y0064672D01*
X0036471Y0064666D01*
X0036398Y0064656D01*
X0036324Y0064643D01*
X0036252Y0064626D01*
X0036181Y0064604D01*
X0036110Y0064580D01*
X0036042Y0064551D01*
X0035974Y0064519D01*
X0035909Y0064483D01*
X0035846Y0064445D01*
X0035784Y0064402D01*
X0035725Y0064357D01*
X0035668Y0064309D01*
X0035614Y0064258D01*
X0035563Y0064204D01*
X0035515Y0064147D01*
X0035470Y0064088D01*
X0035427Y0064026D01*
X0035389Y0063963D01*
X0035353Y0063898D01*
X0035321Y0063830D01*
X0035292Y0063762D01*
X0035268Y0063691D01*
X0035246Y0063620D01*
X0035229Y0063548D01*
X0035216Y0063474D01*
X0035206Y0063401D01*
X0035200Y0063326D01*
X0035198Y0063252D01*
X0035197Y0063252D02*
X0035197Y0061474D01*
X0035198Y0063252D02*
X0035196Y0063335D01*
X0035190Y0063418D01*
X0035180Y0063501D01*
X0035167Y0063584D01*
X0035149Y0063665D01*
X0035128Y0063746D01*
X0035103Y0063825D01*
X0035074Y0063903D01*
X0035042Y0063980D01*
X0035006Y0064055D01*
X0034967Y0064129D01*
X0034924Y0064200D01*
X0034878Y0064270D01*
X0034828Y0064337D01*
X0034776Y0064402D01*
X0034721Y0064464D01*
X0034662Y0064524D01*
X0034601Y0064581D01*
X0034538Y0064635D01*
X0034472Y0064686D01*
X0034403Y0064733D01*
X0034333Y0064778D01*
X0034260Y0064819D01*
X0034186Y0064856D01*
X0034110Y0064891D01*
X0034032Y0064921D01*
X0033954Y0064948D01*
X0033873Y0064971D01*
X0033792Y0064991D01*
X0033710Y0065006D01*
X0033628Y0065018D01*
X0033545Y0065026D01*
X0033462Y0065030D01*
X0033378Y0065030D01*
X0033295Y0065026D01*
X0033212Y0065018D01*
X0033130Y0065006D01*
X0033048Y0064991D01*
X0032967Y0064971D01*
X0032886Y0064948D01*
X0032808Y0064921D01*
X0032730Y0064891D01*
X0032654Y0064856D01*
X0032580Y0064819D01*
X0032507Y0064778D01*
X0032437Y0064733D01*
X0032368Y0064686D01*
X0032302Y0064635D01*
X0032239Y0064581D01*
X0032178Y0064524D01*
X0032119Y0064464D01*
X0032064Y0064402D01*
X0032012Y0064337D01*
X0031962Y0064270D01*
X0031916Y0064200D01*
X0031873Y0064129D01*
X0031834Y0064055D01*
X0031798Y0063980D01*
X0031766Y0063903D01*
X0031737Y0063825D01*
X0031712Y0063746D01*
X0031691Y0063665D01*
X0031673Y0063584D01*
X0031660Y0063501D01*
X0031650Y0063418D01*
X0031644Y0063335D01*
X0031642Y0063252D01*
X0031642Y0061474D01*
X0033420Y0067340D02*
X0036264Y0067340D01*
X0036347Y0067342D01*
X0036430Y0067348D01*
X0036513Y0067358D01*
X0036596Y0067371D01*
X0036677Y0067389D01*
X0036758Y0067410D01*
X0036837Y0067435D01*
X0036915Y0067464D01*
X0036992Y0067496D01*
X0037067Y0067532D01*
X0037141Y0067571D01*
X0037212Y0067614D01*
X0037282Y0067660D01*
X0037349Y0067710D01*
X0037414Y0067762D01*
X0037476Y0067817D01*
X0037536Y0067876D01*
X0037593Y0067937D01*
X0037647Y0068000D01*
X0037698Y0068066D01*
X0037745Y0068135D01*
X0037790Y0068205D01*
X0037831Y0068278D01*
X0037868Y0068352D01*
X0037903Y0068428D01*
X0037933Y0068506D01*
X0037960Y0068584D01*
X0037983Y0068665D01*
X0038003Y0068746D01*
X0038018Y0068828D01*
X0038030Y0068910D01*
X0038038Y0068993D01*
X0038042Y0069076D01*
X0038042Y0069160D01*
X0038038Y0069243D01*
X0038030Y0069326D01*
X0038018Y0069408D01*
X0038003Y0069490D01*
X0037983Y0069571D01*
X0037960Y0069652D01*
X0037933Y0069730D01*
X0037903Y0069808D01*
X0037868Y0069884D01*
X0037831Y0069958D01*
X0037790Y0070031D01*
X0037745Y0070101D01*
X0037698Y0070170D01*
X0037647Y0070236D01*
X0037593Y0070299D01*
X0037536Y0070360D01*
X0037476Y0070419D01*
X0037414Y0070474D01*
X0037349Y0070526D01*
X0037282Y0070576D01*
X0037212Y0070622D01*
X0037141Y0070665D01*
X0037067Y0070704D01*
X0036992Y0070740D01*
X0036915Y0070772D01*
X0036837Y0070801D01*
X0036758Y0070826D01*
X0036677Y0070847D01*
X0036596Y0070865D01*
X0036513Y0070878D01*
X0036430Y0070888D01*
X0036347Y0070894D01*
X0036264Y0070896D01*
X0036264Y0070895D02*
X0033420Y0070895D01*
X0033420Y0070896D02*
X0033337Y0070894D01*
X0033254Y0070888D01*
X0033171Y0070878D01*
X0033088Y0070865D01*
X0033007Y0070847D01*
X0032926Y0070826D01*
X0032847Y0070801D01*
X0032769Y0070772D01*
X0032692Y0070740D01*
X0032617Y0070704D01*
X0032543Y0070665D01*
X0032472Y0070622D01*
X0032402Y0070576D01*
X0032335Y0070526D01*
X0032270Y0070474D01*
X0032208Y0070419D01*
X0032148Y0070360D01*
X0032091Y0070299D01*
X0032037Y0070236D01*
X0031986Y0070170D01*
X0031939Y0070101D01*
X0031894Y0070031D01*
X0031853Y0069958D01*
X0031816Y0069884D01*
X0031781Y0069808D01*
X0031751Y0069730D01*
X0031724Y0069652D01*
X0031701Y0069571D01*
X0031681Y0069490D01*
X0031666Y0069408D01*
X0031654Y0069326D01*
X0031646Y0069243D01*
X0031642Y0069160D01*
X0031642Y0069076D01*
X0031646Y0068993D01*
X0031654Y0068910D01*
X0031666Y0068828D01*
X0031681Y0068746D01*
X0031701Y0068665D01*
X0031724Y0068584D01*
X0031751Y0068506D01*
X0031781Y0068428D01*
X0031816Y0068352D01*
X0031853Y0068278D01*
X0031894Y0068205D01*
X0031939Y0068135D01*
X0031986Y0068066D01*
X0032037Y0068000D01*
X0032091Y0067937D01*
X0032148Y0067876D01*
X0032208Y0067817D01*
X0032270Y0067762D01*
X0032335Y0067710D01*
X0032402Y0067660D01*
X0032472Y0067614D01*
X0032543Y0067571D01*
X0032617Y0067532D01*
X0032692Y0067496D01*
X0032769Y0067464D01*
X0032847Y0067435D01*
X0032926Y0067410D01*
X0033007Y0067389D01*
X0033088Y0067371D01*
X0033171Y0067358D01*
X0033254Y0067348D01*
X0033337Y0067342D01*
X0033420Y0067340D01*
X0038042Y0073084D02*
X0038042Y0076639D01*
X0038042Y0074861D02*
X0031642Y0074861D01*
D11*
X0059295Y0210867D03*
X0069295Y0210867D03*
X0079295Y0210867D03*
X0089295Y0210867D03*
X0099295Y0210867D03*
X0109295Y0210867D03*
X0119295Y0210867D03*
X0129295Y0210867D03*
X0139295Y0210867D03*
X0149295Y0210867D03*
X0159295Y0210867D03*
X0169295Y0210867D03*
X0179295Y0210867D03*
X0189295Y0210867D03*
X0199295Y0210867D03*
X0209295Y0210867D03*
X0219295Y0210867D03*
X0229295Y0210867D03*
X0239295Y0210867D03*
X0249295Y0210867D03*
X0249295Y0220867D03*
X0239295Y0220867D03*
X0229295Y0220867D03*
X0219295Y0220867D03*
X0209295Y0220867D03*
X0199295Y0220867D03*
X0189295Y0220867D03*
X0179295Y0220867D03*
X0169295Y0220867D03*
X0159295Y0220867D03*
X0149295Y0220867D03*
X0139295Y0220867D03*
X0129295Y0220867D03*
X0119295Y0220867D03*
X0109295Y0220867D03*
X0099295Y0220867D03*
X0089295Y0220867D03*
X0079295Y0220867D03*
X0069295Y0220867D03*
X0059295Y0220867D03*
D12*
X0102783Y0023174D03*
X0116562Y0023174D03*
X0130342Y0023174D03*
X0144121Y0023174D03*
X0157901Y0023174D03*
D13*
X0113842Y0061174D03*
X0191342Y0089174D03*
X0208842Y0126674D03*
X0208842Y0156674D03*
X0208842Y0186674D03*
X0112842Y0196674D03*
X0243842Y0089174D03*
D14*
X0233842Y0089174D03*
X0223842Y0089174D03*
X0213842Y0089174D03*
X0208842Y0106674D03*
X0208842Y0116674D03*
X0208842Y0136674D03*
X0208842Y0146674D03*
X0208842Y0166674D03*
X0208842Y0176674D03*
X0112842Y0176674D03*
X0112842Y0166674D03*
X0112842Y0186674D03*
X0171342Y0089174D03*
X0181342Y0089174D03*
X0113842Y0081174D03*
X0113842Y0071174D03*
D15*
X0090842Y0131174D03*
X0090842Y0137174D03*
X0078842Y0137174D03*
X0078842Y0131174D03*
X0066842Y0131174D03*
X0066842Y0137174D03*
X0055842Y0137174D03*
X0055842Y0131174D03*
D16*
X0055842Y0134174D03*
X0066842Y0134174D03*
X0078842Y0134174D03*
X0090842Y0134174D03*
D17*
X0084184Y0025513D03*
X0064499Y0025513D03*
D18*
X0060562Y0014883D03*
X0088121Y0014883D03*
D19*
X0027742Y0037174D02*
X0027742Y0082009D01*
X0027791Y0082504D01*
X0028169Y0083418D01*
X0028869Y0084118D01*
X0029784Y0084497D01*
X0030279Y0084546D01*
X0043151Y0084546D01*
X0045113Y0085358D01*
X0046614Y0086859D01*
X0046614Y0086860D01*
X0047427Y0088821D01*
X0047427Y0149999D01*
X0046614Y0151961D01*
X0045113Y0153462D01*
X0043151Y0154275D01*
X0030279Y0154275D01*
X0029784Y0154324D01*
X0028869Y0154702D01*
X0028169Y0155402D01*
X0027791Y0156317D01*
X0027742Y0156812D01*
X0027742Y0201174D01*
X0054342Y0201174D01*
X0056490Y0201174D01*
X0056142Y0200825D02*
X0056142Y0164607D01*
X0055761Y0163687D01*
X0055761Y0162661D01*
X0056154Y0161712D01*
X0056880Y0160986D01*
X0057828Y0160593D01*
X0058855Y0160593D01*
X0059804Y0160986D01*
X0060530Y0161712D01*
X0060923Y0162661D01*
X0060923Y0163687D01*
X0060542Y0164607D01*
X0060542Y0199003D01*
X0067786Y0206248D01*
X0068331Y0206022D01*
X0070258Y0206022D01*
X0072039Y0206760D01*
X0073402Y0208123D01*
X0074139Y0209903D01*
X0074139Y0211831D01*
X0073914Y0212375D01*
X0075253Y0213714D01*
X0076542Y0215003D01*
X0076542Y0217141D01*
X0076867Y0216905D01*
X0077516Y0216574D01*
X0078210Y0216349D01*
X0078895Y0216240D01*
X0078895Y0220467D01*
X0079695Y0220467D01*
X0079695Y0216240D01*
X0080379Y0216349D01*
X0081073Y0216574D01*
X0081722Y0216905D01*
X0082142Y0217210D01*
X0082142Y0216825D01*
X0080803Y0215486D01*
X0080258Y0215712D01*
X0078331Y0215712D01*
X0076550Y0214974D01*
X0075187Y0213611D01*
X0074450Y0211831D01*
X0074450Y0209903D01*
X0074675Y0209359D01*
X0067431Y0202114D01*
X0066142Y0200825D01*
X0066142Y0173107D01*
X0065761Y0172187D01*
X0065761Y0171161D01*
X0066154Y0170212D01*
X0066880Y0169486D01*
X0067828Y0169093D01*
X0068855Y0169093D01*
X0069142Y0169212D01*
X0069142Y0153585D01*
X0056431Y0140874D01*
X0052112Y0140874D01*
X0051292Y0140054D01*
X0051292Y0134294D01*
X0051412Y0134174D01*
X0051292Y0134054D01*
X0051292Y0128294D01*
X0052112Y0127474D01*
X0053642Y0127474D01*
X0053642Y0127085D01*
X0051142Y0124585D01*
X0051142Y0123607D01*
X0050761Y0122687D01*
X0050761Y0121661D01*
X0051154Y0120712D01*
X0051880Y0119986D01*
X0052828Y0119593D01*
X0053855Y0119593D01*
X0054804Y0119986D01*
X0055530Y0120712D01*
X0055923Y0121661D01*
X0055923Y0122687D01*
X0055789Y0123010D01*
X0058042Y0125263D01*
X0058042Y0127474D01*
X0059572Y0127474D01*
X0060392Y0128294D01*
X0060392Y0134054D01*
X0060272Y0134174D01*
X0060392Y0134294D01*
X0060392Y0138613D01*
X0072142Y0150363D01*
X0072142Y0150085D01*
X0064642Y0142585D01*
X0064642Y0140874D01*
X0063112Y0140874D01*
X0062292Y0140054D01*
X0062292Y0134294D01*
X0062412Y0134174D01*
X0062292Y0134054D01*
X0062292Y0128294D01*
X0063112Y0127474D01*
X0064642Y0127474D01*
X0064642Y0124585D01*
X0064300Y0124243D01*
X0063380Y0123862D01*
X0062654Y0123136D01*
X0062261Y0122187D01*
X0062261Y0121161D01*
X0062654Y0120212D01*
X0063380Y0119486D01*
X0064328Y0119093D01*
X0065355Y0119093D01*
X0066304Y0119486D01*
X0066592Y0119774D01*
X0066880Y0119486D01*
X0067828Y0119093D01*
X0068855Y0119093D01*
X0069775Y0119474D01*
X0070253Y0119474D01*
X0078253Y0127474D01*
X0082572Y0127474D01*
X0083392Y0128294D01*
X0083392Y0134054D01*
X0083272Y0134174D01*
X0083392Y0134294D01*
X0083392Y0140054D01*
X0082572Y0140874D01*
X0081042Y0140874D01*
X0081042Y0153482D01*
X0081154Y0153212D01*
X0081880Y0152486D01*
X0082828Y0152093D01*
X0083855Y0152093D01*
X0084804Y0152486D01*
X0085530Y0153212D01*
X0085923Y0154161D01*
X0085923Y0155187D01*
X0085542Y0156107D01*
X0085542Y0179741D01*
X0085923Y0180661D01*
X0085923Y0181687D01*
X0085530Y0182636D01*
X0084804Y0183362D01*
X0083855Y0183755D01*
X0082828Y0183755D01*
X0081880Y0183362D01*
X0081154Y0182636D01*
X0081042Y0182366D01*
X0081042Y0186763D01*
X0093253Y0198974D01*
X0097062Y0198974D01*
X0097017Y0198865D01*
X0096926Y0198407D01*
X0096926Y0198174D01*
X0096926Y0197941D01*
X0097017Y0197483D01*
X0097196Y0197052D01*
X0097455Y0196664D01*
X0097785Y0196334D01*
X0098173Y0196075D01*
X0098604Y0195897D01*
X0099061Y0195806D01*
X0099294Y0195806D01*
X0099294Y0198174D01*
X0096926Y0198174D01*
X0099294Y0198174D01*
X0099294Y0198174D01*
X0099295Y0198174D01*
X0101663Y0198174D01*
X0101663Y0198407D01*
X0101572Y0198865D01*
X0101527Y0198974D01*
X0108442Y0198974D01*
X0108442Y0193094D01*
X0109262Y0192274D01*
X0116422Y0192274D01*
X0117242Y0193094D01*
X0117242Y0200254D01*
X0116422Y0201074D01*
X0113853Y0201074D01*
X0116709Y0203930D01*
X0125209Y0203930D01*
X0127603Y0206324D01*
X0128331Y0206022D01*
X0130258Y0206022D01*
X0132039Y0206760D01*
X0133402Y0208123D01*
X0134139Y0209903D01*
X0134139Y0211831D01*
X0133402Y0213611D01*
X0132039Y0214974D01*
X0130258Y0215712D01*
X0128331Y0215712D01*
X0126550Y0214974D01*
X0125187Y0213611D01*
X0124450Y0211831D01*
X0124450Y0209903D01*
X0124599Y0209543D01*
X0123559Y0208503D01*
X0124139Y0209903D01*
X0124139Y0211831D01*
X0123402Y0213611D01*
X0122039Y0214974D01*
X0120258Y0215712D01*
X0118331Y0215712D01*
X0116550Y0214974D01*
X0115187Y0213611D01*
X0114847Y0212791D01*
X0114066Y0212009D01*
X0113402Y0213611D01*
X0112039Y0214974D01*
X0110258Y0215712D01*
X0108331Y0215712D01*
X0106550Y0214974D01*
X0105187Y0213611D01*
X0104450Y0211831D01*
X0104450Y0209903D01*
X0104746Y0209189D01*
X0103886Y0208330D01*
X0103177Y0208330D01*
X0103256Y0208439D01*
X0103587Y0209089D01*
X0103813Y0209782D01*
X0103921Y0210467D01*
X0099695Y0210467D01*
X0099695Y0211267D01*
X0103921Y0211267D01*
X0103813Y0211952D01*
X0103587Y0212645D01*
X0103256Y0213295D01*
X0102828Y0213885D01*
X0102312Y0214400D01*
X0101722Y0214829D01*
X0101073Y0215160D01*
X0100379Y0215385D01*
X0099695Y0215494D01*
X0099695Y0211267D01*
X0098895Y0211267D01*
X0098895Y0215494D01*
X0098210Y0215385D01*
X0097516Y0215160D01*
X0096867Y0214829D01*
X0096277Y0214400D01*
X0095761Y0213885D01*
X0095333Y0213295D01*
X0095002Y0212645D01*
X0094776Y0211952D01*
X0094668Y0211267D01*
X0098895Y0211267D01*
X0098895Y0210467D01*
X0094668Y0210467D01*
X0094776Y0209782D01*
X0095002Y0209089D01*
X0095333Y0208439D01*
X0095412Y0208330D01*
X0093488Y0208330D01*
X0094139Y0209903D01*
X0094139Y0211831D01*
X0093402Y0213611D01*
X0092039Y0214974D01*
X0090258Y0215712D01*
X0088331Y0215712D01*
X0086550Y0214974D01*
X0085187Y0213611D01*
X0084450Y0211831D01*
X0084450Y0209903D01*
X0085187Y0208123D01*
X0086550Y0206760D01*
X0087445Y0206389D01*
X0070542Y0189485D01*
X0070542Y0199003D01*
X0077786Y0206248D01*
X0078331Y0206022D01*
X0080258Y0206022D01*
X0082039Y0206760D01*
X0083402Y0208123D01*
X0084139Y0209903D01*
X0084139Y0211831D01*
X0083914Y0212375D01*
X0085253Y0213714D01*
X0086542Y0215003D01*
X0086542Y0216768D01*
X0086550Y0216760D01*
X0088331Y0216022D01*
X0090258Y0216022D01*
X0092039Y0216760D01*
X0093402Y0218123D01*
X0094139Y0219903D01*
X0094139Y0221831D01*
X0093402Y0223611D01*
X0092539Y0224474D01*
X0096050Y0224474D01*
X0095187Y0223611D01*
X0094450Y0221831D01*
X0094450Y0219903D01*
X0095187Y0218123D01*
X0096550Y0216760D01*
X0098331Y0216022D01*
X0100258Y0216022D01*
X0102039Y0216760D01*
X0103402Y0218123D01*
X0104139Y0219903D01*
X0104139Y0221831D01*
X0103402Y0223611D01*
X0102539Y0224474D01*
X0106050Y0224474D01*
X0105187Y0223611D01*
X0104450Y0221831D01*
X0104450Y0219903D01*
X0105187Y0218123D01*
X0106550Y0216760D01*
X0108331Y0216022D01*
X0110258Y0216022D01*
X0112039Y0216760D01*
X0113402Y0218123D01*
X0114139Y0219903D01*
X0114139Y0221831D01*
X0113402Y0223611D01*
X0112539Y0224474D01*
X0116378Y0224474D01*
X0116277Y0224400D01*
X0115761Y0223885D01*
X0115333Y0223295D01*
X0115002Y0222645D01*
X0114776Y0221952D01*
X0114668Y0221267D01*
X0118895Y0221267D01*
X0118895Y0220467D01*
X0119695Y0220467D01*
X0119695Y0221267D01*
X0123921Y0221267D01*
X0123813Y0221952D01*
X0123587Y0222645D01*
X0123256Y0223295D01*
X0122828Y0223885D01*
X0122312Y0224400D01*
X0122211Y0224474D01*
X0126050Y0224474D01*
X0125187Y0223611D01*
X0124450Y0221831D01*
X0124450Y0219903D01*
X0125187Y0218123D01*
X0126550Y0216760D01*
X0128331Y0216022D01*
X0130258Y0216022D01*
X0132039Y0216760D01*
X0133402Y0218123D01*
X0134139Y0219903D01*
X0134139Y0221831D01*
X0133402Y0223611D01*
X0132539Y0224474D01*
X0136050Y0224474D01*
X0135187Y0223611D01*
X0134450Y0221831D01*
X0134450Y0219903D01*
X0135187Y0218123D01*
X0136550Y0216760D01*
X0138331Y0216022D01*
X0140258Y0216022D01*
X0142039Y0216760D01*
X0143402Y0218123D01*
X0144139Y0219903D01*
X0144139Y0221831D01*
X0143402Y0223611D01*
X0142539Y0224474D01*
X0146378Y0224474D01*
X0146277Y0224400D01*
X0145761Y0223885D01*
X0145333Y0223295D01*
X0145002Y0222645D01*
X0144776Y0221952D01*
X0144668Y0221267D01*
X0148895Y0221267D01*
X0148895Y0220467D01*
X0149695Y0220467D01*
X0149695Y0221267D01*
X0153921Y0221267D01*
X0153813Y0221952D01*
X0153587Y0222645D01*
X0153256Y0223295D01*
X0152828Y0223885D01*
X0152312Y0224400D01*
X0152211Y0224474D01*
X0156050Y0224474D01*
X0155187Y0223611D01*
X0154450Y0221831D01*
X0154450Y0219903D01*
X0155187Y0218123D01*
X0156550Y0216760D01*
X0158331Y0216022D01*
X0160258Y0216022D01*
X0162039Y0216760D01*
X0163402Y0218123D01*
X0164139Y0219903D01*
X0164139Y0221831D01*
X0163402Y0223611D01*
X0162539Y0224474D01*
X0166050Y0224474D01*
X0165187Y0223611D01*
X0164450Y0221831D01*
X0164450Y0219903D01*
X0165187Y0218123D01*
X0166550Y0216760D01*
X0168331Y0216022D01*
X0170258Y0216022D01*
X0172039Y0216760D01*
X0173402Y0218123D01*
X0174139Y0219903D01*
X0174139Y0221831D01*
X0173402Y0223611D01*
X0172539Y0224474D01*
X0176050Y0224474D01*
X0175187Y0223611D01*
X0174450Y0221831D01*
X0174450Y0219903D01*
X0175187Y0218123D01*
X0176550Y0216760D01*
X0178331Y0216022D01*
X0180258Y0216022D01*
X0182039Y0216760D01*
X0183402Y0218123D01*
X0184139Y0219903D01*
X0184139Y0221831D01*
X0183402Y0223611D01*
X0182539Y0224474D01*
X0186050Y0224474D01*
X0185187Y0223611D01*
X0184450Y0221831D01*
X0184450Y0219903D01*
X0184675Y0219359D01*
X0182142Y0216825D01*
X0182142Y0214524D01*
X0181722Y0214829D01*
X0181073Y0215160D01*
X0180379Y0215385D01*
X0179695Y0215494D01*
X0179695Y0211267D01*
X0178895Y0211267D01*
X0178895Y0215494D01*
X0178210Y0215385D01*
X0177516Y0215160D01*
X0176867Y0214829D01*
X0176277Y0214400D01*
X0175761Y0213885D01*
X0175333Y0213295D01*
X0175002Y0212645D01*
X0174776Y0211952D01*
X0174668Y0211267D01*
X0178895Y0211267D01*
X0178895Y0210467D01*
X0179695Y0210467D01*
X0179695Y0206240D01*
X0180379Y0206349D01*
X0181073Y0206574D01*
X0181722Y0206905D01*
X0182142Y0207210D01*
X0182142Y0195607D01*
X0181761Y0194687D01*
X0181761Y0193661D01*
X0182154Y0192712D01*
X0182880Y0191986D01*
X0183828Y0191593D01*
X0184855Y0191593D01*
X0185804Y0191986D01*
X0186530Y0192712D01*
X0186923Y0193661D01*
X0186923Y0194687D01*
X0186542Y0195607D01*
X0186542Y0206768D01*
X0186550Y0206760D01*
X0188331Y0206022D01*
X0190258Y0206022D01*
X0190803Y0206248D01*
X0191642Y0205408D01*
X0191642Y0168107D01*
X0191261Y0167187D01*
X0191261Y0166161D01*
X0191654Y0165212D01*
X0192380Y0164486D01*
X0193328Y0164093D01*
X0194355Y0164093D01*
X0195304Y0164486D01*
X0196030Y0165212D01*
X0196423Y0166161D01*
X0196423Y0167187D01*
X0196042Y0168107D01*
X0196042Y0207231D01*
X0194753Y0208520D01*
X0193914Y0209359D01*
X0194139Y0209903D01*
X0194139Y0211831D01*
X0193402Y0213611D01*
X0192039Y0214974D01*
X0190258Y0215712D01*
X0188331Y0215712D01*
X0186550Y0214974D01*
X0186542Y0214966D01*
X0186542Y0215003D01*
X0187786Y0216248D01*
X0188331Y0216022D01*
X0190258Y0216022D01*
X0192039Y0216760D01*
X0193402Y0218123D01*
X0194139Y0219903D01*
X0194139Y0221831D01*
X0193402Y0223611D01*
X0192539Y0224474D01*
X0196378Y0224474D01*
X0196277Y0224400D01*
X0195761Y0223885D01*
X0195333Y0223295D01*
X0195002Y0222645D01*
X0194776Y0221952D01*
X0194668Y0221267D01*
X0198895Y0221267D01*
X0198895Y0220467D01*
X0199695Y0220467D01*
X0199695Y0216240D01*
X0200379Y0216349D01*
X0201073Y0216574D01*
X0201722Y0216905D01*
X0201832Y0216984D01*
X0201832Y0216573D01*
X0203120Y0215284D01*
X0203712Y0214693D01*
X0205001Y0213404D01*
X0205101Y0213404D01*
X0204450Y0211831D01*
X0204450Y0209903D01*
X0205187Y0208123D01*
X0206550Y0206760D01*
X0208331Y0206022D01*
X0210258Y0206022D01*
X0211832Y0206674D01*
X0211832Y0206573D01*
X0213120Y0205284D01*
X0224142Y0194263D01*
X0224142Y0093574D01*
X0222967Y0093574D01*
X0221349Y0092904D01*
X0220112Y0091666D01*
X0219442Y0090049D01*
X0219442Y0088299D01*
X0220112Y0086682D01*
X0221349Y0085444D01*
X0221518Y0085374D01*
X0220753Y0085374D01*
X0218121Y0088006D01*
X0218242Y0088299D01*
X0218242Y0090049D01*
X0217572Y0091666D01*
X0216334Y0092904D01*
X0214717Y0093574D01*
X0212967Y0093574D01*
X0211349Y0092904D01*
X0210112Y0091666D01*
X0209442Y0090049D01*
X0209442Y0088299D01*
X0210112Y0086682D01*
X0211349Y0085444D01*
X0212967Y0084774D01*
X0214717Y0084774D01*
X0215009Y0084895D01*
X0217642Y0082263D01*
X0218931Y0080974D01*
X0225253Y0080974D01*
X0230253Y0085974D01*
X0231122Y0085974D01*
X0231114Y0085980D02*
X0231647Y0085593D01*
X0232234Y0085293D01*
X0232861Y0085090D01*
X0233442Y0084998D01*
X0233442Y0088774D01*
X0234242Y0088774D01*
X0234242Y0089574D01*
X0238018Y0089574D01*
X0237926Y0090155D01*
X0237722Y0090781D01*
X0237423Y0091369D01*
X0237036Y0091902D01*
X0236570Y0092368D01*
X0236036Y0092755D01*
X0235449Y0093055D01*
X0234822Y0093258D01*
X0234242Y0093350D01*
X0234242Y0089574D01*
X0233442Y0089574D01*
X0233442Y0093350D01*
X0232861Y0093258D01*
X0232234Y0093055D01*
X0231647Y0092755D01*
X0231542Y0092679D01*
X0231542Y0199085D01*
X0226232Y0204396D01*
X0226232Y0207078D01*
X0226550Y0206760D01*
X0228331Y0206022D01*
X0230258Y0206022D01*
X0232039Y0206760D01*
X0233402Y0208123D01*
X0234139Y0209903D01*
X0234139Y0211831D01*
X0233402Y0213611D01*
X0232039Y0214974D01*
X0230258Y0215712D01*
X0228331Y0215712D01*
X0226550Y0214974D01*
X0225774Y0214198D01*
X0222475Y0217497D01*
X0222828Y0217849D01*
X0223256Y0218439D01*
X0223587Y0219089D01*
X0223813Y0219782D01*
X0223921Y0220467D01*
X0219695Y0220467D01*
X0219695Y0221267D01*
X0223921Y0221267D01*
X0223813Y0221952D01*
X0223587Y0222645D01*
X0223256Y0223295D01*
X0222828Y0223885D01*
X0222312Y0224400D01*
X0221722Y0224829D01*
X0221073Y0225160D01*
X0220379Y0225385D01*
X0219695Y0225494D01*
X0219695Y0221267D01*
X0218895Y0221267D01*
X0218895Y0225494D01*
X0218210Y0225385D01*
X0217516Y0225160D01*
X0216867Y0224829D01*
X0216277Y0224400D01*
X0216252Y0224375D01*
X0215003Y0225624D01*
X0210542Y0230085D01*
X0210542Y0230085D01*
X0210412Y0230215D01*
X0254342Y0230215D01*
X0254342Y0201174D01*
X0254342Y0037174D01*
X0254342Y0010574D01*
X0211381Y0010574D01*
X0210886Y0010623D01*
X0209972Y0011002D01*
X0209272Y0011702D01*
X0208893Y0012616D01*
X0208844Y0013111D01*
X0208844Y0085039D01*
X0208032Y0087000D01*
X0208032Y0087000D01*
X0206530Y0088502D01*
X0204569Y0089314D01*
X0202446Y0089314D01*
X0200484Y0088502D01*
X0198983Y0087000D01*
X0198170Y0085039D01*
X0198170Y0013111D01*
X0198121Y0012616D01*
X0197743Y0011702D01*
X0197043Y0011002D01*
X0196128Y0010623D01*
X0195633Y0010574D01*
X0089214Y0010574D01*
X0089824Y0010772D01*
X0090446Y0011089D01*
X0091011Y0011500D01*
X0091504Y0011993D01*
X0091915Y0012558D01*
X0092232Y0013180D01*
X0092448Y0013844D01*
X0092549Y0014483D01*
X0088521Y0014483D01*
X0088521Y0015283D01*
X0087721Y0015283D01*
X0087721Y0019310D01*
X0087083Y0019209D01*
X0086419Y0018993D01*
X0085797Y0018676D01*
X0085232Y0018266D01*
X0084738Y0017772D01*
X0084328Y0017207D01*
X0084011Y0016585D01*
X0083795Y0015921D01*
X0083694Y0015283D01*
X0087721Y0015283D01*
X0087721Y0014483D01*
X0083694Y0014483D01*
X0083795Y0013844D01*
X0084011Y0013180D01*
X0084328Y0012558D01*
X0084738Y0011993D01*
X0085232Y0011500D01*
X0085797Y0011089D01*
X0086419Y0010772D01*
X0087029Y0010574D01*
X0061655Y0010574D01*
X0062265Y0010772D01*
X0062887Y0011089D01*
X0063452Y0011500D01*
X0063945Y0011993D01*
X0064356Y0012558D01*
X0064673Y0013180D01*
X0064888Y0013844D01*
X0064990Y0014483D01*
X0060962Y0014483D01*
X0060962Y0015283D01*
X0060162Y0015283D01*
X0060162Y0019310D01*
X0059524Y0019209D01*
X0058860Y0018993D01*
X0058238Y0018676D01*
X0057673Y0018266D01*
X0057179Y0017772D01*
X0056769Y0017207D01*
X0056452Y0016585D01*
X0056236Y0015921D01*
X0056135Y0015283D01*
X0060162Y0015283D01*
X0060162Y0014483D01*
X0056135Y0014483D01*
X0056236Y0013844D01*
X0056452Y0013180D01*
X0056769Y0012558D01*
X0057179Y0011993D01*
X0057673Y0011500D01*
X0058238Y0011089D01*
X0058860Y0010772D01*
X0059470Y0010574D01*
X0054342Y0010574D01*
X0054342Y0037174D01*
X0027742Y0037174D01*
X0027742Y0037974D02*
X0198170Y0037974D01*
X0198170Y0035574D02*
X0054342Y0035574D01*
X0052742Y0037174D02*
X0052742Y0119629D01*
X0055142Y0120324D02*
X0055142Y0010574D01*
X0054342Y0011574D02*
X0057598Y0011574D01*
X0057542Y0011630D02*
X0057542Y0010574D01*
X0056215Y0013974D02*
X0054342Y0013974D01*
X0054342Y0016374D02*
X0056383Y0016374D01*
X0057542Y0015283D02*
X0057542Y0014483D01*
X0059942Y0014483D02*
X0059942Y0015283D01*
X0060962Y0015283D02*
X0060962Y0019310D01*
X0061601Y0019209D01*
X0062265Y0018993D01*
X0062887Y0018676D01*
X0063452Y0018266D01*
X0063945Y0017772D01*
X0064356Y0017207D01*
X0064673Y0016585D01*
X0064888Y0015921D01*
X0064990Y0015283D01*
X0060962Y0015283D01*
X0060962Y0016374D02*
X0060162Y0016374D01*
X0060162Y0018774D02*
X0060962Y0018774D01*
X0059942Y0019275D02*
X0059942Y0051507D01*
X0059642Y0051631D02*
X0060745Y0051174D01*
X0061939Y0051174D01*
X0063041Y0051631D01*
X0079584Y0068174D01*
X0110619Y0068174D01*
X0111349Y0067444D01*
X0112967Y0066774D01*
X0078184Y0066774D01*
X0079142Y0067731D02*
X0079142Y0010574D01*
X0081542Y0010574D02*
X0081542Y0023135D01*
X0081427Y0023250D02*
X0081922Y0022755D01*
X0082503Y0022367D01*
X0083149Y0022099D01*
X0083797Y0021971D01*
X0083797Y0025125D01*
X0084572Y0025125D01*
X0084572Y0025900D01*
X0087726Y0025900D01*
X0087598Y0026548D01*
X0087330Y0027194D01*
X0086941Y0027775D01*
X0086447Y0028270D01*
X0085866Y0028658D01*
X0085220Y0028926D01*
X0084572Y0029055D01*
X0084572Y0025900D01*
X0083797Y0025900D01*
X0083797Y0029055D01*
X0083149Y0028926D01*
X0082503Y0028658D01*
X0081922Y0028270D01*
X0081427Y0027775D01*
X0081039Y0027194D01*
X0080771Y0026548D01*
X0080642Y0025900D01*
X0083797Y0025900D01*
X0083797Y0025125D01*
X0080642Y0025125D01*
X0080771Y0024477D01*
X0081039Y0023831D01*
X0081427Y0023250D01*
X0081211Y0023574D02*
X0067473Y0023574D01*
X0067645Y0023831D02*
X0067912Y0024477D01*
X0068041Y0025125D01*
X0064887Y0025125D01*
X0064887Y0025900D01*
X0068041Y0025900D01*
X0067912Y0026548D01*
X0067645Y0027194D01*
X0067256Y0027775D01*
X0066762Y0028270D01*
X0066181Y0028658D01*
X0065535Y0028926D01*
X0064887Y0029055D01*
X0064887Y0025900D01*
X0064112Y0025900D01*
X0064112Y0029055D01*
X0063464Y0028926D01*
X0062818Y0028658D01*
X0062237Y0028270D01*
X0061742Y0027775D01*
X0061354Y0027194D01*
X0061086Y0026548D01*
X0060957Y0025900D01*
X0064112Y0025900D01*
X0064112Y0025125D01*
X0064887Y0025125D01*
X0064887Y0021971D01*
X0065535Y0022099D01*
X0066181Y0022367D01*
X0066762Y0022755D01*
X0067256Y0023250D01*
X0067645Y0023831D01*
X0067142Y0023135D02*
X0067142Y0010574D01*
X0069542Y0010574D02*
X0069542Y0058131D01*
X0068584Y0057174D02*
X0109862Y0057174D01*
X0110262Y0056774D02*
X0117422Y0056774D01*
X0118242Y0057594D01*
X0118242Y0064754D01*
X0117422Y0065574D01*
X0110262Y0065574D01*
X0109442Y0064754D01*
X0109442Y0057594D01*
X0110262Y0056774D01*
X0110342Y0056774D02*
X0110342Y0010574D01*
X0112742Y0010574D02*
X0112742Y0018933D01*
X0112901Y0018774D02*
X0106444Y0018774D01*
X0106012Y0018342D02*
X0107615Y0019945D01*
X0108483Y0022040D01*
X0108483Y0024308D01*
X0107615Y0026403D01*
X0106012Y0028006D01*
X0103917Y0028874D01*
X0101649Y0028874D01*
X0099554Y0028006D01*
X0097951Y0026403D01*
X0097083Y0024308D01*
X0097083Y0022040D01*
X0097951Y0019945D01*
X0099554Y0018342D01*
X0101649Y0017474D01*
X0103917Y0017474D01*
X0106012Y0018342D01*
X0105542Y0018147D02*
X0105542Y0010574D01*
X0107942Y0010574D02*
X0107942Y0020734D01*
X0108124Y0021174D02*
X0111221Y0021174D01*
X0110862Y0022040D02*
X0111730Y0019945D01*
X0113333Y0018342D01*
X0115428Y0017474D01*
X0117696Y0017474D01*
X0119791Y0018342D01*
X0121395Y0019945D01*
X0122262Y0022040D01*
X0122262Y0024308D01*
X0121395Y0026403D01*
X0119791Y0028006D01*
X0117696Y0028874D01*
X0115428Y0028874D01*
X0113333Y0028006D01*
X0111730Y0026403D01*
X0110862Y0024308D01*
X0110862Y0022040D01*
X0110862Y0023574D02*
X0108483Y0023574D01*
X0107942Y0025614D02*
X0107942Y0068174D01*
X0110342Y0068174D02*
X0110342Y0065574D01*
X0109442Y0064374D02*
X0075784Y0064374D01*
X0076742Y0065331D02*
X0076742Y0010574D01*
X0074342Y0010574D02*
X0074342Y0062931D01*
X0073384Y0061974D02*
X0109442Y0061974D01*
X0109442Y0059574D02*
X0070984Y0059574D01*
X0071942Y0060531D02*
X0071942Y0010574D01*
X0064742Y0010574D02*
X0064742Y0013393D01*
X0064909Y0013974D02*
X0083775Y0013974D01*
X0083942Y0014483D02*
X0083942Y0015283D01*
X0083942Y0016373D02*
X0083942Y0025125D01*
X0084572Y0025125D02*
X0084572Y0021971D01*
X0085220Y0022099D01*
X0085866Y0022367D01*
X0086447Y0022755D01*
X0086941Y0023250D01*
X0087330Y0023831D01*
X0087598Y0024477D01*
X0087726Y0025125D01*
X0084572Y0025125D01*
X0084572Y0025974D02*
X0083797Y0025974D01*
X0083942Y0025900D02*
X0083942Y0068174D01*
X0086342Y0068174D02*
X0086342Y0028340D01*
X0086291Y0028374D02*
X0100442Y0028374D01*
X0100742Y0028498D02*
X0100742Y0068174D01*
X0103142Y0068174D02*
X0103142Y0028874D01*
X0105124Y0028374D02*
X0114221Y0028374D01*
X0115142Y0028755D02*
X0115142Y0056774D01*
X0112742Y0056774D02*
X0112742Y0027415D01*
X0111552Y0025974D02*
X0107793Y0025974D01*
X0105542Y0028201D02*
X0105542Y0068174D01*
X0105542Y0074174D02*
X0105542Y0096712D01*
X0105828Y0096593D02*
X0106855Y0096593D01*
X0107804Y0096986D01*
X0108199Y0097381D01*
X0108828Y0097120D01*
X0109855Y0097120D01*
X0110804Y0097513D01*
X0111530Y0098239D01*
X0111923Y0099187D01*
X0111923Y0100214D01*
X0111542Y0101134D01*
X0111542Y0155085D01*
X0110253Y0156374D01*
X0102253Y0164374D01*
X0089775Y0164374D01*
X0088855Y0164755D01*
X0087828Y0164755D01*
X0086880Y0164362D01*
X0086154Y0163636D01*
X0085761Y0162687D01*
X0085761Y0161661D01*
X0086154Y0160712D01*
X0086880Y0159986D01*
X0087828Y0159593D01*
X0088855Y0159593D01*
X0089775Y0159974D01*
X0100431Y0159974D01*
X0107142Y0153263D01*
X0107142Y0141985D01*
X0105042Y0144085D01*
X0103753Y0145374D01*
X0090775Y0145374D01*
X0089855Y0145755D01*
X0088828Y0145755D01*
X0087880Y0145362D01*
X0087154Y0144636D01*
X0086761Y0143687D01*
X0086761Y0142661D01*
X0087154Y0141712D01*
X0087880Y0140986D01*
X0088150Y0140874D01*
X0087112Y0140874D01*
X0086292Y0140054D01*
X0086292Y0134294D01*
X0086412Y0134174D01*
X0086292Y0134054D01*
X0086292Y0128294D01*
X0087112Y0127474D01*
X0094431Y0127474D01*
X0100773Y0121132D01*
X0101154Y0120212D01*
X0101880Y0119486D01*
X0102828Y0119093D01*
X0103855Y0119093D01*
X0104142Y0119212D01*
X0104142Y0110136D01*
X0103855Y0110255D01*
X0102828Y0110255D01*
X0101908Y0109874D01*
X0094775Y0109874D01*
X0093855Y0110255D01*
X0092828Y0110255D01*
X0091880Y0109862D01*
X0091154Y0109136D01*
X0091126Y0109070D01*
X0090642Y0108585D01*
X0084681Y0102624D01*
X0081960Y0102624D01*
X0080671Y0101335D01*
X0073800Y0094464D01*
X0072880Y0094083D01*
X0072154Y0093357D01*
X0071761Y0092408D01*
X0071761Y0091381D01*
X0072154Y0090432D01*
X0072880Y0089706D01*
X0073828Y0089313D01*
X0074855Y0089313D01*
X0075804Y0089706D01*
X0076530Y0090432D01*
X0076911Y0091352D01*
X0083783Y0098224D01*
X0086503Y0098224D01*
X0087792Y0099513D01*
X0093372Y0105093D01*
X0093855Y0105093D01*
X0094775Y0105474D01*
X0101908Y0105474D01*
X0102828Y0105093D01*
X0103855Y0105093D01*
X0104142Y0105212D01*
X0104142Y0100607D01*
X0103761Y0099687D01*
X0103761Y0098661D01*
X0104154Y0097712D01*
X0104880Y0096986D01*
X0105828Y0096593D01*
X0107942Y0097124D02*
X0107942Y0074174D01*
X0110342Y0074174D02*
X0110342Y0078867D01*
X0110410Y0078774D02*
X0027742Y0078774D01*
X0027742Y0076374D02*
X0030750Y0076374D01*
X0030938Y0076561D02*
X0036342Y0076561D01*
X0036342Y0077343D01*
X0037338Y0078339D01*
X0038746Y0078339D01*
X0039742Y0077343D01*
X0039742Y0072379D01*
X0038889Y0071527D01*
X0039742Y0070049D01*
X0039742Y0068186D01*
X0038810Y0066572D01*
X0038810Y0066572D01*
X0038810Y0066572D01*
X0037962Y0066082D01*
X0038905Y0065537D01*
X0038905Y0065537D01*
X0039742Y0064088D01*
X0039742Y0060770D01*
X0038746Y0059774D01*
X0030938Y0059774D01*
X0029942Y0060770D01*
X0029942Y0062548D01*
X0029942Y0062548D01*
X0029942Y0064184D01*
X0030874Y0065798D01*
X0030874Y0065798D01*
X0031544Y0066185D01*
X0030874Y0066572D01*
X0030874Y0066572D01*
X0029942Y0068186D01*
X0029942Y0070049D01*
X0030874Y0071664D01*
X0030874Y0071664D01*
X0032488Y0072595D01*
X0036342Y0072595D01*
X0036342Y0073161D01*
X0030938Y0073161D01*
X0029942Y0074157D01*
X0029942Y0075566D01*
X0030938Y0076561D01*
X0031142Y0076561D02*
X0031142Y0084546D01*
X0033542Y0084546D02*
X0033542Y0076561D01*
X0035942Y0076561D02*
X0035942Y0084546D01*
X0038342Y0084546D02*
X0038342Y0078339D01*
X0039742Y0076374D02*
X0114799Y0076374D01*
X0115142Y0076717D02*
X0115142Y0077194D01*
X0115449Y0077293D02*
X0114822Y0077090D01*
X0114242Y0076998D01*
X0114242Y0080774D01*
X0114242Y0081574D01*
X0118018Y0081574D01*
X0117926Y0082155D01*
X0117722Y0082781D01*
X0117423Y0083369D01*
X0117036Y0083902D01*
X0116570Y0084368D01*
X0116036Y0084755D01*
X0115449Y0085055D01*
X0114822Y0085258D01*
X0114242Y0085350D01*
X0114242Y0081574D01*
X0113442Y0081574D01*
X0113442Y0085350D01*
X0112861Y0085258D01*
X0112234Y0085055D01*
X0111647Y0084755D01*
X0111114Y0084368D01*
X0110648Y0083902D01*
X0110260Y0083369D01*
X0109961Y0082781D01*
X0109758Y0082155D01*
X0109666Y0081574D01*
X0113442Y0081574D01*
X0113442Y0080774D01*
X0114242Y0080774D01*
X0118018Y0080774D01*
X0117926Y0080193D01*
X0117722Y0079567D01*
X0117443Y0079017D01*
X0118342Y0079917D01*
X0118342Y0113577D01*
X0118342Y0176931D01*
X0116901Y0178372D01*
X0117242Y0177549D01*
X0117242Y0175799D01*
X0116572Y0174182D01*
X0115334Y0172944D01*
X0113717Y0172274D01*
X0111967Y0172274D01*
X0110349Y0172944D01*
X0109112Y0174182D01*
X0108442Y0175799D01*
X0108442Y0177549D01*
X0109112Y0179166D01*
X0110349Y0180404D01*
X0111967Y0181074D01*
X0113717Y0181074D01*
X0114540Y0180733D01*
X0112999Y0182274D01*
X0111967Y0182274D01*
X0110349Y0182944D01*
X0109112Y0184182D01*
X0108442Y0185799D01*
X0108442Y0187549D01*
X0109112Y0189166D01*
X0110349Y0190404D01*
X0111967Y0191074D01*
X0113717Y0191074D01*
X0115334Y0190404D01*
X0116572Y0189166D01*
X0117242Y0187549D01*
X0117242Y0186517D01*
X0123885Y0179873D01*
X0124342Y0178771D01*
X0124342Y0078077D01*
X0123885Y0076975D01*
X0123041Y0076131D01*
X0123041Y0076131D01*
X0118242Y0071331D01*
X0118242Y0070299D01*
X0117572Y0068682D01*
X0116334Y0067444D01*
X0114717Y0066774D01*
X0198170Y0066774D01*
X0198170Y0064374D02*
X0118242Y0064374D01*
X0117542Y0065454D02*
X0117542Y0068651D01*
X0117776Y0069174D02*
X0150995Y0069174D01*
X0151002Y0069164D02*
X0151332Y0068834D01*
X0151720Y0068575D01*
X0152151Y0068397D01*
X0152609Y0068306D01*
X0152842Y0068306D01*
X0153075Y0068306D01*
X0153533Y0068397D01*
X0153964Y0068575D01*
X0154352Y0068834D01*
X0154682Y0069164D01*
X0154941Y0069552D01*
X0155119Y0069983D01*
X0155210Y0070441D01*
X0155210Y0070674D01*
X0155210Y0070907D01*
X0155119Y0071365D01*
X0154941Y0071796D01*
X0154682Y0072184D01*
X0154352Y0072514D01*
X0153964Y0072773D01*
X0153533Y0072951D01*
X0153075Y0073043D01*
X0152842Y0073043D01*
X0152842Y0070674D01*
X0155210Y0070674D01*
X0152842Y0070674D01*
X0152842Y0070674D01*
X0152842Y0068306D01*
X0152842Y0070674D01*
X0152842Y0070674D01*
X0152842Y0070674D01*
X0152842Y0073043D01*
X0152609Y0073043D01*
X0152151Y0072951D01*
X0151720Y0072773D01*
X0151332Y0072514D01*
X0151002Y0072184D01*
X0150743Y0071796D01*
X0150564Y0071365D01*
X0150473Y0070907D01*
X0150473Y0070674D01*
X0150473Y0070441D01*
X0150564Y0069983D01*
X0150743Y0069552D01*
X0151002Y0069164D01*
X0151142Y0069024D02*
X0151142Y0055824D01*
X0151002Y0055684D02*
X0151332Y0056014D01*
X0151720Y0056273D01*
X0152151Y0056451D01*
X0152609Y0056543D01*
X0152842Y0056543D01*
X0153075Y0056543D01*
X0153533Y0056451D01*
X0153964Y0056273D01*
X0154352Y0056014D01*
X0154682Y0055684D01*
X0154941Y0055296D01*
X0155119Y0054865D01*
X0155210Y0054407D01*
X0155210Y0054174D01*
X0152842Y0054174D01*
X0152842Y0054174D01*
X0155210Y0054174D01*
X0155210Y0053941D01*
X0155119Y0053483D01*
X0154941Y0053052D01*
X0154682Y0052664D01*
X0154352Y0052334D01*
X0153964Y0052075D01*
X0153533Y0051897D01*
X0153075Y0051806D01*
X0152842Y0051806D01*
X0152842Y0054174D01*
X0152842Y0054174D01*
X0152842Y0054174D01*
X0152842Y0056543D01*
X0152842Y0054174D01*
X0152842Y0051806D01*
X0152609Y0051806D01*
X0152151Y0051897D01*
X0151720Y0052075D01*
X0151332Y0052334D01*
X0151002Y0052664D01*
X0150743Y0053052D01*
X0150564Y0053483D01*
X0150473Y0053941D01*
X0150473Y0054174D01*
X0152842Y0054174D01*
X0152842Y0054174D01*
X0150473Y0054174D01*
X0150473Y0054407D01*
X0150564Y0054865D01*
X0150743Y0055296D01*
X0151002Y0055684D01*
X0150546Y0054774D02*
X0139637Y0054774D01*
X0139619Y0054865D02*
X0139441Y0055296D01*
X0139182Y0055684D01*
X0138852Y0056014D01*
X0138464Y0056273D01*
X0138033Y0056451D01*
X0137575Y0056543D01*
X0137342Y0056543D01*
X0137342Y0054174D01*
X0139710Y0054174D01*
X0139710Y0054407D01*
X0139619Y0054865D01*
X0139710Y0054174D02*
X0137342Y0054174D01*
X0137342Y0054174D01*
X0137342Y0051806D01*
X0137575Y0051806D01*
X0138033Y0051897D01*
X0138464Y0052075D01*
X0138852Y0052334D01*
X0139182Y0052664D01*
X0139441Y0053052D01*
X0139619Y0053483D01*
X0139710Y0053941D01*
X0139710Y0054174D01*
X0139142Y0054174D02*
X0139142Y0054174D01*
X0139142Y0052624D02*
X0139142Y0026047D01*
X0139111Y0025974D02*
X0135074Y0025974D01*
X0135035Y0026050D02*
X0134527Y0026749D01*
X0133917Y0027360D01*
X0133218Y0027867D01*
X0132448Y0028259D01*
X0131627Y0028526D01*
X0130774Y0028661D01*
X0130742Y0028661D01*
X0130742Y0023574D01*
X0135829Y0023574D01*
X0138421Y0023574D01*
X0138421Y0024308D02*
X0138421Y0022040D01*
X0139289Y0019945D01*
X0140893Y0018342D01*
X0142988Y0017474D01*
X0145255Y0017474D01*
X0147350Y0018342D01*
X0148954Y0019945D01*
X0149821Y0022040D01*
X0149821Y0024308D01*
X0148954Y0026403D01*
X0147350Y0028006D01*
X0145255Y0028874D01*
X0142988Y0028874D01*
X0140893Y0028006D01*
X0139289Y0026403D01*
X0138421Y0024308D01*
X0135829Y0023606D02*
X0135694Y0024459D01*
X0135427Y0025280D01*
X0135035Y0026050D01*
X0134342Y0026934D02*
X0134342Y0224474D01*
X0134840Y0222774D02*
X0133749Y0222774D01*
X0134139Y0220374D02*
X0134450Y0220374D01*
X0135336Y0217974D02*
X0133253Y0217974D01*
X0131942Y0216719D02*
X0131942Y0215014D01*
X0130591Y0215574D02*
X0137998Y0215574D01*
X0138331Y0215712D02*
X0136550Y0214974D01*
X0135187Y0213611D01*
X0134450Y0211831D01*
X0134450Y0209903D01*
X0135187Y0208123D01*
X0136295Y0207015D01*
X0136295Y0121625D01*
X0136751Y0120522D01*
X0151099Y0106174D01*
X0140299Y0095373D01*
X0139842Y0094271D01*
X0139842Y0093077D01*
X0140299Y0091975D01*
X0141142Y0091131D01*
X0142245Y0090674D01*
X0143439Y0090674D01*
X0144541Y0091131D01*
X0157041Y0103631D01*
X0157041Y0103631D01*
X0157885Y0104475D01*
X0158342Y0105577D01*
X0158342Y0106771D01*
X0157885Y0107873D01*
X0142295Y0123464D01*
X0142295Y0207015D01*
X0143402Y0208123D01*
X0144139Y0209903D01*
X0144139Y0211831D01*
X0143402Y0213611D01*
X0142039Y0214974D01*
X0140258Y0215712D01*
X0138331Y0215712D01*
X0139142Y0215712D02*
X0139142Y0216022D01*
X0140591Y0215574D02*
X0147998Y0215574D01*
X0148331Y0215712D02*
X0146550Y0214974D01*
X0145187Y0213611D01*
X0144450Y0211831D01*
X0144450Y0209903D01*
X0145187Y0208123D01*
X0146550Y0206760D01*
X0148331Y0206022D01*
X0150258Y0206022D01*
X0152039Y0206760D01*
X0153402Y0208123D01*
X0154139Y0209903D01*
X0154139Y0211831D01*
X0153402Y0213611D01*
X0152039Y0214974D01*
X0150258Y0215712D01*
X0148331Y0215712D01*
X0148742Y0215712D02*
X0148742Y0216264D01*
X0148895Y0216240D02*
X0148895Y0220467D01*
X0144668Y0220467D01*
X0144776Y0219782D01*
X0145002Y0219089D01*
X0145333Y0218439D01*
X0145761Y0217849D01*
X0146277Y0217334D01*
X0146867Y0216905D01*
X0147516Y0216574D01*
X0148210Y0216349D01*
X0148895Y0216240D01*
X0149695Y0216240D02*
X0150379Y0216349D01*
X0151073Y0216574D01*
X0151722Y0216905D01*
X0152312Y0217334D01*
X0152828Y0217849D01*
X0153256Y0218439D01*
X0153587Y0219089D01*
X0153813Y0219782D01*
X0153921Y0220467D01*
X0149695Y0220467D01*
X0149695Y0216240D01*
X0150591Y0215574D02*
X0157998Y0215574D01*
X0158331Y0215712D02*
X0156550Y0214974D01*
X0155187Y0213611D01*
X0154450Y0211831D01*
X0154450Y0209903D01*
X0155187Y0208123D01*
X0156550Y0206760D01*
X0158331Y0206022D01*
X0160258Y0206022D01*
X0162039Y0206760D01*
X0163402Y0208123D01*
X0164139Y0209903D01*
X0164139Y0211831D01*
X0163402Y0213611D01*
X0162039Y0214974D01*
X0160258Y0215712D01*
X0158331Y0215712D01*
X0158342Y0215712D02*
X0158342Y0216022D01*
X0160591Y0215574D02*
X0167998Y0215574D01*
X0167942Y0215551D02*
X0167942Y0216183D01*
X0168331Y0215712D02*
X0166550Y0214974D01*
X0165187Y0213611D01*
X0164450Y0211831D01*
X0164450Y0209903D01*
X0165187Y0208123D01*
X0166550Y0206760D01*
X0168331Y0206022D01*
X0170258Y0206022D01*
X0172039Y0206760D01*
X0173402Y0208123D01*
X0174139Y0209903D01*
X0174139Y0211831D01*
X0173402Y0213611D01*
X0172039Y0214974D01*
X0170258Y0215712D01*
X0168331Y0215712D01*
X0170342Y0215677D02*
X0170342Y0216057D01*
X0170591Y0215574D02*
X0182142Y0215574D01*
X0182342Y0217025D02*
X0182342Y0217062D01*
X0183253Y0217974D02*
X0183290Y0217974D01*
X0184139Y0220374D02*
X0184450Y0220374D01*
X0184742Y0222536D02*
X0184742Y0224474D01*
X0184840Y0222774D02*
X0183749Y0222774D01*
X0179942Y0216022D02*
X0179942Y0215454D01*
X0179695Y0213174D02*
X0178895Y0213174D01*
X0177542Y0211267D02*
X0177542Y0210467D01*
X0178895Y0210467D02*
X0174668Y0210467D01*
X0174776Y0209782D01*
X0175002Y0209089D01*
X0175333Y0208439D01*
X0175761Y0207849D01*
X0176277Y0207334D01*
X0176867Y0206905D01*
X0177516Y0206574D01*
X0178210Y0206349D01*
X0178895Y0206240D01*
X0178895Y0210467D01*
X0178895Y0210774D02*
X0174139Y0210774D01*
X0175142Y0210467D02*
X0175142Y0211267D01*
X0175142Y0212920D02*
X0175142Y0218232D01*
X0175336Y0217974D02*
X0173253Y0217974D01*
X0172742Y0217462D02*
X0172742Y0214271D01*
X0173583Y0213174D02*
X0175271Y0213174D01*
X0177542Y0215168D02*
X0177542Y0216349D01*
X0174450Y0220374D02*
X0174139Y0220374D01*
X0173749Y0222774D02*
X0174840Y0222774D01*
X0175142Y0223502D02*
X0175142Y0224474D01*
X0172742Y0224474D02*
X0172742Y0224271D01*
X0165542Y0224474D02*
X0165542Y0223966D01*
X0164840Y0222774D02*
X0163749Y0222774D01*
X0163142Y0223871D02*
X0163142Y0224474D01*
X0164139Y0220374D02*
X0164450Y0220374D01*
X0165336Y0217974D02*
X0163253Y0217974D01*
X0163142Y0217862D02*
X0163142Y0213871D01*
X0163583Y0213174D02*
X0165006Y0213174D01*
X0165542Y0213966D02*
X0165542Y0217768D01*
X0160742Y0216222D02*
X0160742Y0215512D01*
X0155942Y0214366D02*
X0155942Y0217368D01*
X0155336Y0217974D02*
X0152919Y0217974D01*
X0153542Y0218999D02*
X0153542Y0213273D01*
X0153583Y0213174D02*
X0155006Y0213174D01*
X0154450Y0210774D02*
X0154139Y0210774D01*
X0153542Y0208460D02*
X0153542Y0145724D01*
X0153502Y0145684D02*
X0153243Y0145296D01*
X0153064Y0144865D01*
X0152973Y0144407D01*
X0152973Y0144174D01*
X0152973Y0143941D01*
X0153064Y0143483D01*
X0153243Y0143052D01*
X0153502Y0142664D01*
X0153832Y0142334D01*
X0154220Y0142075D01*
X0154651Y0141897D01*
X0155109Y0141806D01*
X0155342Y0141806D01*
X0155575Y0141806D01*
X0156033Y0141897D01*
X0156464Y0142075D01*
X0156852Y0142334D01*
X0157182Y0142664D01*
X0157441Y0143052D01*
X0157619Y0143483D01*
X0157710Y0143941D01*
X0157710Y0144174D01*
X0157710Y0144407D01*
X0157619Y0144865D01*
X0157441Y0145296D01*
X0157182Y0145684D01*
X0156852Y0146014D01*
X0156464Y0146273D01*
X0156033Y0146451D01*
X0155575Y0146543D01*
X0155342Y0146543D01*
X0155342Y0144174D01*
X0157710Y0144174D01*
X0155342Y0144174D01*
X0155342Y0144174D01*
X0155342Y0141806D01*
X0155342Y0144174D01*
X0155342Y0144174D01*
X0155342Y0144174D01*
X0155342Y0146543D01*
X0155109Y0146543D01*
X0154651Y0146451D01*
X0154220Y0146273D01*
X0153832Y0146014D01*
X0153502Y0145684D01*
X0153792Y0145974D02*
X0142295Y0145974D01*
X0142295Y0143574D02*
X0153046Y0143574D01*
X0152973Y0144174D02*
X0155342Y0144174D01*
X0155342Y0144174D01*
X0152973Y0144174D01*
X0153542Y0144174D02*
X0153542Y0144174D01*
X0153542Y0142624D02*
X0153542Y0112217D01*
X0153384Y0112374D02*
X0207725Y0112374D01*
X0207967Y0112274D02*
X0209717Y0112274D01*
X0211334Y0112944D01*
X0212572Y0114182D01*
X0213242Y0115799D01*
X0213242Y0117549D01*
X0212572Y0119166D01*
X0211334Y0120404D01*
X0209717Y0121074D01*
X0207967Y0121074D01*
X0206349Y0120404D01*
X0205112Y0119166D01*
X0204442Y0117549D01*
X0204442Y0115799D01*
X0205112Y0114182D01*
X0206349Y0112944D01*
X0207967Y0112274D01*
X0208742Y0112274D02*
X0208742Y0107074D01*
X0208442Y0107074D02*
X0208442Y0110850D01*
X0207861Y0110758D01*
X0207234Y0110555D01*
X0206647Y0110255D01*
X0206114Y0109868D01*
X0205648Y0109402D01*
X0205260Y0108869D01*
X0204961Y0108281D01*
X0204758Y0107655D01*
X0204666Y0107074D01*
X0208442Y0107074D01*
X0209242Y0107074D01*
X0213018Y0107074D01*
X0212926Y0107655D01*
X0212722Y0108281D01*
X0212423Y0108869D01*
X0212036Y0109402D01*
X0211570Y0109868D01*
X0211036Y0110255D01*
X0210449Y0110555D01*
X0209822Y0110758D01*
X0209242Y0110850D01*
X0209242Y0107074D01*
X0209242Y0106274D01*
X0213018Y0106274D01*
X0212926Y0105693D01*
X0212722Y0105067D01*
X0212423Y0104479D01*
X0212036Y0103946D01*
X0211570Y0103480D01*
X0211036Y0103093D01*
X0210449Y0102793D01*
X0209822Y0102590D01*
X0209242Y0102498D01*
X0209242Y0106274D01*
X0208442Y0106274D01*
X0208442Y0102498D01*
X0207861Y0102590D01*
X0207234Y0102793D01*
X0206647Y0103093D01*
X0206114Y0103480D01*
X0205648Y0103946D01*
X0205260Y0104479D01*
X0204961Y0105067D01*
X0204758Y0105693D01*
X0204666Y0106274D01*
X0208442Y0106274D01*
X0208442Y0107074D01*
X0208442Y0107574D02*
X0209242Y0107574D01*
X0208742Y0106274D02*
X0208742Y0085286D01*
X0208457Y0085974D02*
X0210819Y0085974D01*
X0211142Y0085651D02*
X0211142Y0010598D01*
X0210886Y0010623D02*
X0210886Y0010623D01*
X0209399Y0011574D02*
X0254342Y0011574D01*
X0254342Y0013974D02*
X0208844Y0013974D01*
X0208844Y0016374D02*
X0254342Y0016374D01*
X0254342Y0018774D02*
X0208844Y0018774D01*
X0208844Y0021174D02*
X0254342Y0021174D01*
X0254342Y0023574D02*
X0208844Y0023574D01*
X0208844Y0025974D02*
X0254342Y0025974D01*
X0254342Y0028374D02*
X0208844Y0028374D01*
X0208844Y0030774D02*
X0254342Y0030774D01*
X0254342Y0033174D02*
X0208844Y0033174D01*
X0208844Y0035574D02*
X0254342Y0035574D01*
X0254342Y0037174D02*
X0280847Y0037174D01*
X0280847Y0201174D01*
X0254342Y0201174D01*
X0229453Y0201174D01*
X0230342Y0200285D02*
X0230342Y0206057D01*
X0227942Y0206183D02*
X0227942Y0202685D01*
X0227053Y0203574D02*
X0254342Y0203574D01*
X0254342Y0205974D02*
X0226232Y0205974D01*
X0232742Y0207462D02*
X0232742Y0093219D01*
X0232602Y0093174D02*
X0231542Y0093174D01*
X0233442Y0093174D02*
X0234242Y0093174D01*
X0235082Y0093174D02*
X0239862Y0093174D01*
X0239942Y0093254D02*
X0239942Y0206022D01*
X0240258Y0206022D02*
X0242039Y0206760D01*
X0243402Y0208123D01*
X0244139Y0209903D01*
X0244139Y0211831D01*
X0243402Y0213611D01*
X0242039Y0214974D01*
X0240258Y0215712D01*
X0238331Y0215712D01*
X0236550Y0214974D01*
X0235187Y0213611D01*
X0234450Y0211831D01*
X0234450Y0209903D01*
X0235187Y0208123D01*
X0236550Y0206760D01*
X0238331Y0206022D01*
X0240258Y0206022D01*
X0242342Y0207062D02*
X0242342Y0093574D01*
X0240262Y0093574D02*
X0239442Y0092754D01*
X0239442Y0085594D01*
X0240262Y0084774D01*
X0247422Y0084774D01*
X0248242Y0085594D01*
X0248242Y0092754D01*
X0247422Y0093574D01*
X0240262Y0093574D01*
X0239442Y0090774D02*
X0237725Y0090774D01*
X0237542Y0091136D02*
X0237542Y0206349D01*
X0235142Y0208232D02*
X0235142Y0093154D01*
X0234242Y0090774D02*
X0233442Y0090774D01*
X0235142Y0089574D02*
X0235142Y0088774D01*
X0234242Y0088774D02*
X0238018Y0088774D01*
X0237926Y0088193D01*
X0237722Y0087567D01*
X0237423Y0086979D01*
X0237036Y0086446D01*
X0236570Y0085980D01*
X0236036Y0085593D01*
X0235449Y0085293D01*
X0234822Y0085090D01*
X0234242Y0084998D01*
X0234242Y0088774D01*
X0234242Y0088374D02*
X0233442Y0088374D01*
X0233442Y0085974D02*
X0234242Y0085974D01*
X0235142Y0085194D02*
X0235142Y0010574D01*
X0237542Y0010574D02*
X0237542Y0087212D01*
X0237955Y0088374D02*
X0239442Y0088374D01*
X0237542Y0088774D02*
X0237542Y0089574D01*
X0236561Y0085974D02*
X0239442Y0085974D01*
X0239942Y0085094D02*
X0239942Y0010574D01*
X0242342Y0010574D02*
X0242342Y0084774D01*
X0244742Y0084774D02*
X0244742Y0010574D01*
X0247142Y0010574D02*
X0247142Y0084774D01*
X0248242Y0085974D02*
X0280847Y0085974D01*
X0280847Y0083574D02*
X0227853Y0083574D01*
X0227942Y0083663D02*
X0227942Y0010574D01*
X0230342Y0010574D02*
X0230342Y0086063D01*
X0230253Y0085974D02*
X0230686Y0086407D01*
X0231114Y0085980D01*
X0232742Y0085129D02*
X0232742Y0010574D01*
X0225542Y0010574D02*
X0225542Y0081263D01*
X0225453Y0081174D02*
X0280847Y0081174D01*
X0280847Y0078774D02*
X0208844Y0078774D01*
X0208844Y0076374D02*
X0280847Y0076374D01*
X0280847Y0073974D02*
X0208844Y0073974D01*
X0208844Y0071574D02*
X0280847Y0071574D01*
X0280847Y0069174D02*
X0208844Y0069174D01*
X0208844Y0066774D02*
X0280847Y0066774D01*
X0280847Y0064374D02*
X0208844Y0064374D01*
X0208844Y0061974D02*
X0280847Y0061974D01*
X0280847Y0059574D02*
X0208844Y0059574D01*
X0208844Y0057174D02*
X0280847Y0057174D01*
X0280847Y0054774D02*
X0208844Y0054774D01*
X0208844Y0052374D02*
X0280847Y0052374D01*
X0280847Y0049974D02*
X0208844Y0049974D01*
X0208844Y0047574D02*
X0280847Y0047574D01*
X0280847Y0045174D02*
X0208844Y0045174D01*
X0208844Y0042774D02*
X0280847Y0042774D01*
X0280847Y0040374D02*
X0208844Y0040374D01*
X0208844Y0037974D02*
X0280847Y0037974D01*
X0280742Y0037174D02*
X0280742Y0201174D01*
X0278342Y0201174D02*
X0278342Y0037174D01*
X0275942Y0037174D02*
X0275942Y0201174D01*
X0273542Y0201174D02*
X0273542Y0037174D01*
X0271142Y0037174D02*
X0271142Y0201174D01*
X0268742Y0201174D02*
X0268742Y0037174D01*
X0266342Y0037174D02*
X0266342Y0201174D01*
X0263942Y0201174D02*
X0263942Y0037174D01*
X0261542Y0037174D02*
X0261542Y0201174D01*
X0259142Y0201174D02*
X0259142Y0037174D01*
X0256742Y0037174D02*
X0256742Y0201174D01*
X0252312Y0207334D02*
X0251722Y0206905D01*
X0251073Y0206574D01*
X0250379Y0206349D01*
X0249695Y0206240D01*
X0249695Y0210467D01*
X0249695Y0211267D01*
X0253921Y0211267D01*
X0253813Y0211952D01*
X0253587Y0212645D01*
X0253256Y0213295D01*
X0252828Y0213885D01*
X0252312Y0214400D01*
X0251722Y0214829D01*
X0251073Y0215160D01*
X0250379Y0215385D01*
X0249695Y0215494D01*
X0249695Y0211267D01*
X0248895Y0211267D01*
X0248895Y0215494D01*
X0248210Y0215385D01*
X0247516Y0215160D01*
X0246867Y0214829D01*
X0246277Y0214400D01*
X0245761Y0213885D01*
X0245333Y0213295D01*
X0245002Y0212645D01*
X0244776Y0211952D01*
X0244668Y0211267D01*
X0248895Y0211267D01*
X0248895Y0210467D01*
X0249695Y0210467D01*
X0253921Y0210467D01*
X0253813Y0209782D01*
X0253587Y0209089D01*
X0253256Y0208439D01*
X0252828Y0207849D01*
X0252312Y0207334D01*
X0251942Y0207064D02*
X0251942Y0010574D01*
X0249542Y0010574D02*
X0249542Y0210467D01*
X0249695Y0210774D02*
X0254342Y0210774D01*
X0254342Y0208374D02*
X0253209Y0208374D01*
X0251942Y0210467D02*
X0251942Y0211267D01*
X0253318Y0213174D02*
X0254342Y0213174D01*
X0254342Y0215574D02*
X0240591Y0215574D01*
X0240258Y0216022D02*
X0242039Y0216760D01*
X0243402Y0218123D01*
X0244139Y0219903D01*
X0244139Y0221831D01*
X0243402Y0223611D01*
X0242039Y0224974D01*
X0240258Y0225712D01*
X0238331Y0225712D01*
X0236550Y0224974D01*
X0235187Y0223611D01*
X0234450Y0221831D01*
X0234450Y0219903D01*
X0235187Y0218123D01*
X0236550Y0216760D01*
X0238331Y0216022D01*
X0240258Y0216022D01*
X0239942Y0216022D02*
X0239942Y0215712D01*
X0237998Y0215574D02*
X0230591Y0215574D01*
X0230342Y0215677D02*
X0230342Y0216057D01*
X0230258Y0216022D02*
X0232039Y0216760D01*
X0233402Y0218123D01*
X0234139Y0219903D01*
X0234139Y0221831D01*
X0233402Y0223611D01*
X0232039Y0224974D01*
X0230258Y0225712D01*
X0228331Y0225712D01*
X0226550Y0224974D01*
X0225187Y0223611D01*
X0224450Y0221831D01*
X0224450Y0219903D01*
X0225187Y0218123D01*
X0226550Y0216760D01*
X0228331Y0216022D01*
X0230258Y0216022D01*
X0227998Y0215574D02*
X0224398Y0215574D01*
X0225542Y0214430D02*
X0225542Y0217768D01*
X0225336Y0217974D02*
X0222919Y0217974D01*
X0223142Y0218281D02*
X0223142Y0216830D01*
X0223906Y0220374D02*
X0224450Y0220374D01*
X0223142Y0220467D02*
X0223142Y0221267D01*
X0223522Y0222774D02*
X0224840Y0222774D01*
X0225542Y0223966D02*
X0225542Y0230215D01*
X0227942Y0230215D02*
X0227942Y0225551D01*
X0227033Y0225174D02*
X0221029Y0225174D01*
X0220742Y0225267D02*
X0220742Y0230215D01*
X0223142Y0230215D02*
X0223142Y0223453D01*
X0220742Y0221267D02*
X0220742Y0220467D01*
X0219695Y0222774D02*
X0218895Y0222774D01*
X0218895Y0225174D02*
X0219695Y0225174D01*
X0218342Y0225406D02*
X0218342Y0230215D01*
X0215942Y0230215D02*
X0215942Y0224685D01*
X0215453Y0225174D02*
X0217560Y0225174D01*
X0215003Y0225624D02*
X0215003Y0225624D01*
X0213542Y0227085D02*
X0213542Y0230215D01*
X0211142Y0230215D02*
X0211142Y0229485D01*
X0210653Y0229974D02*
X0254342Y0229974D01*
X0254342Y0227574D02*
X0213053Y0227574D01*
X0201542Y0216813D02*
X0201542Y0215180D01*
X0202039Y0214974D02*
X0200258Y0215712D01*
X0198331Y0215712D01*
X0196550Y0214974D01*
X0195187Y0213611D01*
X0194450Y0211831D01*
X0194450Y0209903D01*
X0195187Y0208123D01*
X0196550Y0206760D01*
X0197642Y0206307D01*
X0197642Y0124607D01*
X0197261Y0123687D01*
X0197261Y0122661D01*
X0197654Y0121712D01*
X0198380Y0120986D01*
X0199328Y0120593D01*
X0200355Y0120593D01*
X0201304Y0120986D01*
X0202030Y0121712D01*
X0202423Y0122661D01*
X0202423Y0123687D01*
X0202042Y0124607D01*
X0202042Y0206762D01*
X0203402Y0208123D01*
X0204139Y0209903D01*
X0204139Y0211831D01*
X0203402Y0213611D01*
X0202039Y0214974D01*
X0202831Y0215574D02*
X0200591Y0215574D01*
X0199142Y0215712D02*
X0199142Y0220467D01*
X0198895Y0220467D02*
X0198895Y0216240D01*
X0198210Y0216349D01*
X0197516Y0216574D01*
X0196867Y0216905D01*
X0196277Y0217334D01*
X0195761Y0217849D01*
X0195333Y0218439D01*
X0195002Y0219089D01*
X0194776Y0219782D01*
X0194668Y0220467D01*
X0198895Y0220467D01*
X0198895Y0220374D02*
X0199695Y0220374D01*
X0199695Y0217974D02*
X0198895Y0217974D01*
X0196742Y0216996D02*
X0196742Y0215054D01*
X0197998Y0215574D02*
X0190591Y0215574D01*
X0189542Y0215712D02*
X0189542Y0216022D01*
X0187998Y0215574D02*
X0187113Y0215574D01*
X0187142Y0215603D02*
X0187142Y0215219D01*
X0191942Y0215014D02*
X0191942Y0216719D01*
X0193253Y0217974D02*
X0195671Y0217974D01*
X0194683Y0220374D02*
X0194139Y0220374D01*
X0193749Y0222774D02*
X0195067Y0222774D01*
X0194342Y0224474D02*
X0194342Y0208931D01*
X0194899Y0208374D02*
X0195083Y0208374D01*
X0196742Y0206680D02*
X0196742Y0010877D01*
X0197615Y0011574D02*
X0091085Y0011574D01*
X0091142Y0011631D02*
X0091142Y0010574D01*
X0093542Y0010574D02*
X0093542Y0068174D01*
X0095942Y0068174D02*
X0095942Y0010574D01*
X0098342Y0010574D02*
X0098342Y0019554D01*
X0099122Y0018774D02*
X0090254Y0018774D01*
X0090446Y0018676D02*
X0089824Y0018993D01*
X0089160Y0019209D01*
X0088521Y0019310D01*
X0088521Y0015283D01*
X0092549Y0015283D01*
X0092448Y0015921D01*
X0092232Y0016585D01*
X0091915Y0017207D01*
X0091504Y0017772D01*
X0091011Y0018266D01*
X0090446Y0018676D01*
X0091142Y0018135D02*
X0091142Y0068174D01*
X0088742Y0068174D02*
X0088742Y0019275D01*
X0088521Y0018774D02*
X0087721Y0018774D01*
X0086342Y0018954D02*
X0086342Y0022685D01*
X0087158Y0023574D02*
X0097083Y0023574D01*
X0097442Y0021174D02*
X0054342Y0021174D01*
X0054342Y0018774D02*
X0058430Y0018774D01*
X0057542Y0018135D02*
X0057542Y0124763D01*
X0057153Y0124374D02*
X0064431Y0124374D01*
X0064642Y0126774D02*
X0058042Y0126774D01*
X0059942Y0127844D02*
X0059942Y0057017D01*
X0060099Y0057174D02*
X0027742Y0057174D01*
X0027742Y0054774D02*
X0058343Y0054774D01*
X0058342Y0054771D02*
X0058342Y0053577D01*
X0058799Y0052475D01*
X0059642Y0051631D01*
X0058899Y0052374D02*
X0027742Y0052374D01*
X0027742Y0049974D02*
X0198170Y0049974D01*
X0198170Y0047574D02*
X0027742Y0047574D01*
X0027742Y0045174D02*
X0198170Y0045174D01*
X0198170Y0042774D02*
X0027742Y0042774D01*
X0027742Y0040374D02*
X0198170Y0040374D01*
X0198170Y0033174D02*
X0054342Y0033174D01*
X0054342Y0030774D02*
X0198170Y0030774D01*
X0198170Y0028374D02*
X0160242Y0028374D01*
X0160742Y0028167D02*
X0160742Y0121339D01*
X0160575Y0121306D02*
X0161033Y0121397D01*
X0161464Y0121575D01*
X0161852Y0121834D01*
X0162182Y0122164D01*
X0162441Y0122552D01*
X0162619Y0122983D01*
X0162710Y0123441D01*
X0162710Y0123674D01*
X0162710Y0123907D01*
X0162619Y0124365D01*
X0162441Y0124796D01*
X0162182Y0125184D01*
X0161852Y0125514D01*
X0161464Y0125773D01*
X0161033Y0125951D01*
X0160575Y0126043D01*
X0160342Y0126043D01*
X0160342Y0123674D01*
X0162710Y0123674D01*
X0160342Y0123674D01*
X0160342Y0123674D01*
X0160342Y0121306D01*
X0160575Y0121306D01*
X0160342Y0121306D02*
X0160342Y0123674D01*
X0160342Y0123674D01*
X0160342Y0123674D01*
X0160342Y0126043D01*
X0160109Y0126043D01*
X0159651Y0125951D01*
X0159220Y0125773D01*
X0158832Y0125514D01*
X0158502Y0125184D01*
X0158243Y0124796D01*
X0158064Y0124365D01*
X0157973Y0123907D01*
X0157973Y0123674D01*
X0157973Y0123441D01*
X0158064Y0122983D01*
X0158243Y0122552D01*
X0158502Y0122164D01*
X0158832Y0121834D01*
X0159220Y0121575D01*
X0159651Y0121397D01*
X0160109Y0121306D01*
X0160342Y0121306D01*
X0160342Y0121974D02*
X0160342Y0121974D01*
X0161991Y0121974D02*
X0197545Y0121974D01*
X0199142Y0120670D02*
X0199142Y0087159D01*
X0198983Y0087000D02*
X0198983Y0087000D01*
X0198558Y0085974D02*
X0195742Y0085974D01*
X0195742Y0085594D02*
X0195742Y0092754D01*
X0194922Y0093574D01*
X0187762Y0093574D01*
X0186942Y0092754D01*
X0186942Y0085594D01*
X0187762Y0084774D01*
X0194922Y0084774D01*
X0195742Y0085594D01*
X0194342Y0084774D02*
X0194342Y0010574D01*
X0191942Y0010574D02*
X0191942Y0084774D01*
X0189542Y0084774D02*
X0189542Y0010574D01*
X0187142Y0010574D02*
X0187142Y0085394D01*
X0186942Y0085974D02*
X0184364Y0085974D01*
X0184742Y0086351D02*
X0184742Y0010574D01*
X0182342Y0010574D02*
X0182342Y0084826D01*
X0182217Y0084774D02*
X0183834Y0085444D01*
X0185072Y0086682D01*
X0185742Y0088299D01*
X0185742Y0090049D01*
X0185072Y0091666D01*
X0183834Y0092904D01*
X0182217Y0093574D01*
X0180467Y0093574D01*
X0178849Y0092904D01*
X0177612Y0091666D01*
X0176942Y0090049D01*
X0176942Y0088299D01*
X0177612Y0086682D01*
X0178849Y0085444D01*
X0180467Y0084774D01*
X0182217Y0084774D01*
X0179942Y0084991D02*
X0179942Y0010574D01*
X0177542Y0010574D02*
X0177542Y0086850D01*
X0178319Y0085974D02*
X0174061Y0085974D01*
X0174070Y0085980D02*
X0174536Y0086446D01*
X0174923Y0086979D01*
X0175222Y0087567D01*
X0175426Y0088193D01*
X0175518Y0088774D01*
X0171742Y0088774D01*
X0171742Y0089574D01*
X0175518Y0089574D01*
X0175426Y0090155D01*
X0175222Y0090781D01*
X0174923Y0091369D01*
X0174536Y0091902D01*
X0174070Y0092368D01*
X0173536Y0092755D01*
X0172949Y0093055D01*
X0172322Y0093258D01*
X0171742Y0093350D01*
X0171742Y0089574D01*
X0170942Y0089574D01*
X0170942Y0093350D01*
X0170361Y0093258D01*
X0169734Y0093055D01*
X0169147Y0092755D01*
X0168614Y0092368D01*
X0168148Y0091902D01*
X0167760Y0091369D01*
X0167461Y0090781D01*
X0167258Y0090155D01*
X0167166Y0089574D01*
X0170942Y0089574D01*
X0170942Y0088774D01*
X0171742Y0088774D01*
X0171742Y0084998D01*
X0172322Y0085090D01*
X0172949Y0085293D01*
X0173536Y0085593D01*
X0174070Y0085980D01*
X0172742Y0085226D02*
X0172742Y0010574D01*
X0175142Y0010574D02*
X0175142Y0087408D01*
X0175455Y0088374D02*
X0176942Y0088374D01*
X0175142Y0088774D02*
X0175142Y0089574D01*
X0175225Y0090774D02*
X0177242Y0090774D01*
X0177542Y0091498D02*
X0177542Y0206566D01*
X0178895Y0208374D02*
X0179695Y0208374D01*
X0179942Y0206279D02*
X0179942Y0093357D01*
X0179501Y0093174D02*
X0172582Y0093174D01*
X0172742Y0093122D02*
X0172742Y0104761D01*
X0172852Y0104834D02*
X0173182Y0105164D01*
X0173441Y0105552D01*
X0173619Y0105983D01*
X0173710Y0106441D01*
X0173710Y0106674D01*
X0173710Y0106907D01*
X0173619Y0107365D01*
X0173441Y0107796D01*
X0173182Y0108184D01*
X0172852Y0108514D01*
X0172464Y0108773D01*
X0172033Y0108951D01*
X0171575Y0109043D01*
X0171342Y0109043D01*
X0171342Y0106674D01*
X0173710Y0106674D01*
X0171342Y0106674D01*
X0171342Y0106674D01*
X0171342Y0104306D01*
X0171575Y0104306D01*
X0172033Y0104397D01*
X0172464Y0104575D01*
X0172852Y0104834D01*
X0173188Y0105174D02*
X0204926Y0105174D01*
X0206342Y0106274D02*
X0206342Y0107074D01*
X0204745Y0107574D02*
X0173533Y0107574D01*
X0172742Y0106674D02*
X0172742Y0106674D01*
X0171342Y0106674D02*
X0171342Y0106674D01*
X0171342Y0106674D01*
X0171342Y0104306D01*
X0171109Y0104306D01*
X0170651Y0104397D01*
X0170220Y0104575D01*
X0169832Y0104834D01*
X0169502Y0105164D01*
X0169243Y0105552D01*
X0169064Y0105983D01*
X0168973Y0106441D01*
X0168973Y0106674D01*
X0171342Y0106674D01*
X0171342Y0109043D01*
X0171109Y0109043D01*
X0170651Y0108951D01*
X0170220Y0108773D01*
X0169832Y0108514D01*
X0169502Y0108184D01*
X0169243Y0107796D01*
X0169064Y0107365D01*
X0168973Y0106907D01*
X0168973Y0106674D01*
X0171342Y0106674D01*
X0171342Y0106674D01*
X0171342Y0107574D02*
X0171342Y0107574D01*
X0170342Y0106674D02*
X0170342Y0106674D01*
X0169151Y0107574D02*
X0158009Y0107574D01*
X0158175Y0105174D02*
X0169495Y0105174D01*
X0170342Y0104525D02*
X0170342Y0093252D01*
X0170102Y0093174D02*
X0146584Y0093174D01*
X0146342Y0092931D02*
X0146342Y0083489D01*
X0146151Y0083451D02*
X0145720Y0083273D01*
X0145332Y0083014D01*
X0145002Y0082684D01*
X0144743Y0082296D01*
X0144564Y0081865D01*
X0144473Y0081407D01*
X0144473Y0081174D01*
X0144473Y0080941D01*
X0144564Y0080483D01*
X0144743Y0080052D01*
X0145002Y0079664D01*
X0145332Y0079334D01*
X0145720Y0079075D01*
X0146151Y0078897D01*
X0146609Y0078806D01*
X0146842Y0078806D01*
X0147075Y0078806D01*
X0147533Y0078897D01*
X0147964Y0079075D01*
X0148352Y0079334D01*
X0148682Y0079664D01*
X0148941Y0080052D01*
X0149119Y0080483D01*
X0149210Y0080941D01*
X0149210Y0081174D01*
X0149210Y0081407D01*
X0149119Y0081865D01*
X0148941Y0082296D01*
X0148682Y0082684D01*
X0148352Y0083014D01*
X0147964Y0083273D01*
X0147533Y0083451D01*
X0147075Y0083543D01*
X0146842Y0083543D01*
X0146842Y0081174D01*
X0198170Y0081174D01*
X0198170Y0078774D02*
X0124342Y0078774D01*
X0124342Y0081174D02*
X0146842Y0081174D01*
X0149210Y0081174D01*
X0146842Y0081174D01*
X0146842Y0081174D01*
X0146842Y0078806D01*
X0146842Y0081174D01*
X0146842Y0081174D01*
X0146842Y0081174D01*
X0146842Y0083543D01*
X0146609Y0083543D01*
X0146151Y0083451D01*
X0146342Y0081174D02*
X0146342Y0081174D01*
X0146842Y0081174D02*
X0144473Y0081174D01*
X0146842Y0081174D01*
X0146842Y0081174D01*
X0148742Y0081174D02*
X0148742Y0081174D01*
X0148742Y0079754D02*
X0148742Y0026615D01*
X0149131Y0025974D02*
X0152891Y0025974D01*
X0153069Y0026403D02*
X0152201Y0024308D01*
X0152201Y0022040D01*
X0153069Y0019945D01*
X0154672Y0018342D01*
X0156767Y0017474D01*
X0159035Y0017474D01*
X0161130Y0018342D01*
X0162733Y0019945D01*
X0163601Y0022040D01*
X0163601Y0024308D01*
X0162733Y0026403D01*
X0161130Y0028006D01*
X0159035Y0028874D01*
X0156767Y0028874D01*
X0154672Y0028006D01*
X0153069Y0026403D01*
X0153542Y0026876D02*
X0153542Y0051900D01*
X0152842Y0052374D02*
X0152842Y0052374D01*
X0154391Y0052374D02*
X0198170Y0052374D01*
X0198170Y0054774D02*
X0155137Y0054774D01*
X0153542Y0054174D02*
X0153542Y0054174D01*
X0152842Y0054774D02*
X0152842Y0054774D01*
X0151142Y0054174D02*
X0151142Y0054174D01*
X0151142Y0052524D02*
X0151142Y0010574D01*
X0153542Y0010574D02*
X0153542Y0019472D01*
X0154240Y0018774D02*
X0147782Y0018774D01*
X0148742Y0019733D02*
X0148742Y0010574D01*
X0146342Y0010574D02*
X0146342Y0017924D01*
X0143942Y0017474D02*
X0143942Y0010574D01*
X0141542Y0010574D02*
X0141542Y0018073D01*
X0140460Y0018774D02*
X0133621Y0018774D01*
X0133917Y0018988D02*
X0134527Y0019599D01*
X0135035Y0020298D01*
X0135427Y0021068D01*
X0135694Y0021889D01*
X0135829Y0022742D01*
X0135829Y0022774D01*
X0130742Y0022774D01*
X0130742Y0023574D01*
X0129942Y0023574D01*
X0129942Y0028661D01*
X0129910Y0028661D01*
X0129057Y0028526D01*
X0128235Y0028259D01*
X0127466Y0027867D01*
X0126767Y0027360D01*
X0126156Y0026749D01*
X0125649Y0026050D01*
X0125256Y0025280D01*
X0124990Y0024459D01*
X0124854Y0023606D01*
X0124854Y0023574D01*
X0129942Y0023574D01*
X0129942Y0022774D01*
X0130742Y0022774D01*
X0130742Y0017687D01*
X0130774Y0017687D01*
X0131627Y0017822D01*
X0132448Y0018089D01*
X0133218Y0018481D01*
X0133917Y0018988D01*
X0134342Y0019414D02*
X0134342Y0010574D01*
X0136742Y0010574D02*
X0136742Y0051878D01*
X0136651Y0051897D02*
X0137109Y0051806D01*
X0137342Y0051806D01*
X0137342Y0054174D01*
X0137342Y0054174D01*
X0137342Y0054174D01*
X0137342Y0056543D01*
X0137109Y0056543D01*
X0136651Y0056451D01*
X0136220Y0056273D01*
X0135832Y0056014D01*
X0135502Y0055684D01*
X0135243Y0055296D01*
X0135064Y0054865D01*
X0134973Y0054407D01*
X0134973Y0054174D01*
X0134973Y0053941D01*
X0135064Y0053483D01*
X0135243Y0053052D01*
X0135502Y0052664D01*
X0135832Y0052334D01*
X0136220Y0052075D01*
X0136651Y0051897D01*
X0137342Y0052374D02*
X0137342Y0052374D01*
X0138891Y0052374D02*
X0151292Y0052374D01*
X0153542Y0056448D02*
X0153542Y0068400D01*
X0152842Y0069174D02*
X0152842Y0069174D01*
X0152842Y0070674D02*
X0150473Y0070674D01*
X0152842Y0070674D01*
X0152842Y0070674D01*
X0153542Y0070674D02*
X0153542Y0070674D01*
X0152842Y0071574D02*
X0152842Y0071574D01*
X0153542Y0072948D02*
X0153542Y0100131D01*
X0153784Y0100374D02*
X0224142Y0100374D01*
X0224142Y0097974D02*
X0151384Y0097974D01*
X0151142Y0097731D02*
X0151142Y0072324D01*
X0150651Y0071574D02*
X0118484Y0071574D01*
X0119942Y0073031D02*
X0119942Y0027855D01*
X0118903Y0028374D02*
X0128588Y0028374D01*
X0129542Y0028603D02*
X0129542Y0090324D01*
X0129880Y0089986D02*
X0129154Y0090712D01*
X0128761Y0091661D01*
X0128761Y0092687D01*
X0129142Y0093607D01*
X0129142Y0114594D01*
X0129011Y0114911D01*
X0129011Y0115937D01*
X0129404Y0116886D01*
X0130130Y0117612D01*
X0131078Y0118005D01*
X0132105Y0118005D01*
X0133054Y0117612D01*
X0133780Y0116886D01*
X0134173Y0115937D01*
X0134173Y0114911D01*
X0133780Y0113962D01*
X0133542Y0113724D01*
X0133542Y0093607D01*
X0133923Y0092687D01*
X0133923Y0091661D01*
X0133530Y0090712D01*
X0132804Y0089986D01*
X0131855Y0089593D01*
X0130828Y0089593D01*
X0129880Y0089986D01*
X0129128Y0090774D02*
X0124342Y0090774D01*
X0124342Y0088374D02*
X0167229Y0088374D01*
X0167258Y0088193D02*
X0167461Y0087567D01*
X0167760Y0086979D01*
X0168148Y0086446D01*
X0168614Y0085980D01*
X0169147Y0085593D01*
X0169734Y0085293D01*
X0170361Y0085090D01*
X0170942Y0084998D01*
X0170942Y0088774D01*
X0167166Y0088774D01*
X0167258Y0088193D01*
X0167942Y0088774D02*
X0167942Y0089574D01*
X0167459Y0090774D02*
X0143680Y0090774D01*
X0143942Y0090882D02*
X0143942Y0028874D01*
X0141780Y0028374D02*
X0132095Y0028374D01*
X0131942Y0028424D02*
X0131942Y0089629D01*
X0133556Y0090774D02*
X0142004Y0090774D01*
X0141542Y0090965D02*
X0141542Y0028275D01*
X0146342Y0028424D02*
X0146342Y0078859D01*
X0148742Y0082594D02*
X0148742Y0095331D01*
X0148984Y0095574D02*
X0224142Y0095574D01*
X0223142Y0093574D02*
X0223142Y0181594D01*
X0223071Y0181422D02*
X0223249Y0181853D01*
X0223340Y0182311D01*
X0223340Y0182544D01*
X0220972Y0182544D01*
X0220972Y0182544D01*
X0223340Y0182544D01*
X0223340Y0182777D01*
X0223249Y0183235D01*
X0223071Y0183666D01*
X0222811Y0184054D01*
X0222482Y0184384D01*
X0222094Y0184643D01*
X0221663Y0184822D01*
X0221205Y0184913D01*
X0220972Y0184913D01*
X0220972Y0182544D01*
X0220972Y0180176D01*
X0221205Y0180176D01*
X0221663Y0180267D01*
X0222094Y0180445D01*
X0222482Y0180704D01*
X0222811Y0181034D01*
X0223071Y0181422D01*
X0223273Y0181974D02*
X0224142Y0181974D01*
X0223142Y0182544D02*
X0223142Y0182544D01*
X0223142Y0183494D02*
X0223142Y0195263D01*
X0222031Y0196374D02*
X0202042Y0196374D01*
X0202042Y0193974D02*
X0224142Y0193974D01*
X0224142Y0191574D02*
X0202042Y0191574D01*
X0202042Y0189174D02*
X0204442Y0189174D01*
X0204442Y0190254D02*
X0204442Y0183094D01*
X0205262Y0182274D01*
X0212422Y0182274D01*
X0213242Y0183094D01*
X0213242Y0190254D01*
X0212422Y0191074D01*
X0205262Y0191074D01*
X0204442Y0190254D01*
X0206342Y0191074D02*
X0206342Y0206968D01*
X0205083Y0208374D02*
X0203506Y0208374D01*
X0203942Y0209426D02*
X0203942Y0089314D01*
X0201542Y0088940D02*
X0201542Y0121224D01*
X0202138Y0121974D02*
X0224142Y0121974D01*
X0224142Y0119574D02*
X0212164Y0119574D01*
X0211142Y0120484D02*
X0211142Y0122274D01*
X0212422Y0122274D02*
X0213242Y0123094D01*
X0213242Y0130254D01*
X0212422Y0131074D01*
X0205262Y0131074D01*
X0204442Y0130254D01*
X0204442Y0123094D01*
X0205262Y0122274D01*
X0212422Y0122274D01*
X0213242Y0124374D02*
X0224142Y0124374D01*
X0224142Y0126774D02*
X0213242Y0126774D01*
X0213242Y0129174D02*
X0224142Y0129174D01*
X0224142Y0131574D02*
X0202042Y0131574D01*
X0202042Y0129174D02*
X0204442Y0129174D01*
X0204442Y0126774D02*
X0202042Y0126774D01*
X0202139Y0124374D02*
X0204442Y0124374D01*
X0206342Y0122274D02*
X0206342Y0120397D01*
X0205519Y0119574D02*
X0146184Y0119574D01*
X0146342Y0119417D02*
X0146342Y0206968D01*
X0145083Y0208374D02*
X0143506Y0208374D01*
X0143942Y0209426D02*
X0143942Y0121817D01*
X0143784Y0121974D02*
X0158692Y0121974D01*
X0158342Y0122404D02*
X0158342Y0028874D01*
X0155942Y0028532D02*
X0155942Y0102531D01*
X0156184Y0102774D02*
X0207294Y0102774D01*
X0206342Y0103314D02*
X0206342Y0088580D01*
X0206530Y0088502D02*
X0206530Y0088502D01*
X0206658Y0088374D02*
X0209442Y0088374D01*
X0209742Y0090774D02*
X0195742Y0090774D01*
X0195742Y0088374D02*
X0200356Y0088374D01*
X0200484Y0088502D02*
X0200484Y0088502D01*
X0198170Y0083574D02*
X0124342Y0083574D01*
X0124342Y0085974D02*
X0168622Y0085974D01*
X0167942Y0086730D02*
X0167942Y0010574D01*
X0170342Y0010574D02*
X0170342Y0085096D01*
X0170942Y0085974D02*
X0171742Y0085974D01*
X0171742Y0088374D02*
X0170942Y0088374D01*
X0170342Y0088774D02*
X0170342Y0089574D01*
X0170942Y0090774D02*
X0171742Y0090774D01*
X0172742Y0089574D02*
X0172742Y0088774D01*
X0175142Y0090940D02*
X0175142Y0208814D01*
X0175380Y0208374D02*
X0173506Y0208374D01*
X0172742Y0207462D02*
X0172742Y0108587D01*
X0170342Y0108823D02*
X0170342Y0206057D01*
X0167942Y0206183D02*
X0167942Y0203970D01*
X0168033Y0203951D02*
X0167575Y0204043D01*
X0167342Y0204043D01*
X0167342Y0201674D01*
X0169710Y0201674D01*
X0169710Y0201907D01*
X0169619Y0202365D01*
X0169441Y0202796D01*
X0169182Y0203184D01*
X0168852Y0203514D01*
X0168464Y0203773D01*
X0168033Y0203951D01*
X0167342Y0204043D02*
X0167109Y0204043D01*
X0166651Y0203951D01*
X0166220Y0203773D01*
X0165832Y0203514D01*
X0165502Y0203184D01*
X0165243Y0202796D01*
X0165064Y0202365D01*
X0164973Y0201907D01*
X0164973Y0201674D01*
X0164973Y0201441D01*
X0165064Y0200983D01*
X0165243Y0200552D01*
X0165502Y0200164D01*
X0165832Y0199834D01*
X0166220Y0199575D01*
X0166651Y0199397D01*
X0167109Y0199306D01*
X0167342Y0199306D01*
X0167575Y0199306D01*
X0168033Y0199397D01*
X0168464Y0199575D01*
X0168852Y0199834D01*
X0169182Y0200164D01*
X0169441Y0200552D01*
X0169619Y0200983D01*
X0169710Y0201441D01*
X0169710Y0201674D01*
X0167342Y0201674D01*
X0167342Y0201674D01*
X0167342Y0199306D01*
X0167342Y0201674D01*
X0167342Y0201674D01*
X0167342Y0201674D01*
X0167342Y0204043D01*
X0167342Y0203574D02*
X0167342Y0203574D01*
X0168761Y0203574D02*
X0182142Y0203574D01*
X0182142Y0201174D02*
X0169657Y0201174D01*
X0167942Y0201674D02*
X0167942Y0201674D01*
X0167342Y0201674D02*
X0164973Y0201674D01*
X0167342Y0201674D01*
X0167342Y0201674D01*
X0167342Y0201174D02*
X0167342Y0201174D01*
X0165542Y0201674D02*
X0165542Y0201674D01*
X0165026Y0201174D02*
X0142295Y0201174D01*
X0142295Y0198774D02*
X0182142Y0198774D01*
X0182142Y0196374D02*
X0142295Y0196374D01*
X0142295Y0193974D02*
X0181761Y0193974D01*
X0182342Y0192524D02*
X0182342Y0093522D01*
X0183183Y0093174D02*
X0187362Y0093174D01*
X0187142Y0092954D02*
X0187142Y0206515D01*
X0186542Y0205974D02*
X0191076Y0205974D01*
X0189542Y0206022D02*
X0189542Y0093574D01*
X0191942Y0093574D02*
X0191942Y0164924D01*
X0191692Y0165174D02*
X0142295Y0165174D01*
X0142295Y0162774D02*
X0197642Y0162774D01*
X0197642Y0160374D02*
X0142295Y0160374D01*
X0142295Y0157974D02*
X0197642Y0157974D01*
X0197642Y0155574D02*
X0142295Y0155574D01*
X0142295Y0153174D02*
X0197642Y0153174D01*
X0197642Y0150774D02*
X0142295Y0150774D01*
X0142295Y0148374D02*
X0197642Y0148374D01*
X0197642Y0145974D02*
X0156891Y0145974D01*
X0155942Y0146470D02*
X0155942Y0207368D01*
X0155083Y0208374D02*
X0153506Y0208374D01*
X0151142Y0206388D02*
X0151142Y0114617D01*
X0150984Y0114774D02*
X0204866Y0114774D01*
X0206342Y0112951D02*
X0206342Y0110034D01*
X0206260Y0109974D02*
X0155784Y0109974D01*
X0155942Y0109817D02*
X0155942Y0141878D01*
X0155342Y0143574D02*
X0155342Y0143574D01*
X0155942Y0144174D02*
X0155942Y0144174D01*
X0157637Y0143574D02*
X0197642Y0143574D01*
X0197642Y0141174D02*
X0142295Y0141174D01*
X0142295Y0138774D02*
X0197642Y0138774D01*
X0197642Y0136374D02*
X0142295Y0136374D01*
X0142295Y0133974D02*
X0197642Y0133974D01*
X0197642Y0131574D02*
X0142295Y0131574D01*
X0142295Y0129174D02*
X0197642Y0129174D01*
X0197642Y0126774D02*
X0142295Y0126774D01*
X0142295Y0124374D02*
X0158068Y0124374D01*
X0158342Y0124944D02*
X0158342Y0206022D01*
X0160742Y0206222D02*
X0160742Y0126009D01*
X0160342Y0124374D02*
X0160342Y0124374D01*
X0160342Y0123674D02*
X0160342Y0123674D01*
X0157973Y0123674D01*
X0160342Y0123674D01*
X0160742Y0123674D02*
X0160742Y0123674D01*
X0162616Y0124374D02*
X0197545Y0124374D01*
X0204442Y0117174D02*
X0148584Y0117174D01*
X0148742Y0117017D02*
X0148742Y0206022D01*
X0144450Y0210774D02*
X0144139Y0210774D01*
X0143942Y0212308D02*
X0143942Y0219426D01*
X0144139Y0220374D02*
X0144683Y0220374D01*
X0146342Y0220467D02*
X0146342Y0221267D01*
X0145067Y0222774D02*
X0143749Y0222774D01*
X0143942Y0222308D02*
X0143942Y0224474D01*
X0146342Y0224447D02*
X0146342Y0224474D01*
X0148742Y0221267D02*
X0148742Y0220467D01*
X0148895Y0220374D02*
X0149695Y0220374D01*
X0151142Y0220467D02*
X0151142Y0221267D01*
X0153542Y0221267D02*
X0153542Y0220467D01*
X0153906Y0220374D02*
X0154450Y0220374D01*
X0154840Y0222774D02*
X0153522Y0222774D01*
X0153542Y0222735D02*
X0153542Y0224474D01*
X0155942Y0224474D02*
X0155942Y0224366D01*
X0149695Y0217974D02*
X0148895Y0217974D01*
X0151142Y0216609D02*
X0151142Y0215346D01*
X0146342Y0214766D02*
X0146342Y0217286D01*
X0145671Y0217974D02*
X0143253Y0217974D01*
X0141542Y0216554D02*
X0141542Y0215180D01*
X0143583Y0213174D02*
X0145006Y0213174D01*
X0142295Y0205974D02*
X0182142Y0205974D01*
X0186542Y0203574D02*
X0191642Y0203574D01*
X0191642Y0201174D02*
X0186542Y0201174D01*
X0186542Y0198774D02*
X0191642Y0198774D01*
X0191642Y0196374D02*
X0186542Y0196374D01*
X0186923Y0193974D02*
X0191642Y0193974D01*
X0191642Y0191574D02*
X0142295Y0191574D01*
X0142295Y0189174D02*
X0191642Y0189174D01*
X0191642Y0186774D02*
X0142295Y0186774D01*
X0142295Y0184374D02*
X0191642Y0184374D01*
X0191642Y0181974D02*
X0142295Y0181974D01*
X0142295Y0179574D02*
X0191642Y0179574D01*
X0191642Y0177174D02*
X0142295Y0177174D01*
X0142295Y0174774D02*
X0191642Y0174774D01*
X0191642Y0172374D02*
X0142295Y0172374D01*
X0142295Y0169974D02*
X0191642Y0169974D01*
X0191421Y0167574D02*
X0142295Y0167574D01*
X0136295Y0167574D02*
X0124342Y0167574D01*
X0124342Y0165174D02*
X0136295Y0165174D01*
X0136295Y0162774D02*
X0124342Y0162774D01*
X0124342Y0160374D02*
X0136295Y0160374D01*
X0136295Y0157974D02*
X0124342Y0157974D01*
X0124342Y0155574D02*
X0136295Y0155574D01*
X0136295Y0153174D02*
X0124342Y0153174D01*
X0124342Y0150774D02*
X0136295Y0150774D01*
X0136295Y0148374D02*
X0124342Y0148374D01*
X0124342Y0145974D02*
X0136295Y0145974D01*
X0136295Y0143574D02*
X0124342Y0143574D01*
X0124342Y0141174D02*
X0136295Y0141174D01*
X0136295Y0138774D02*
X0124342Y0138774D01*
X0124342Y0136374D02*
X0136295Y0136374D01*
X0136295Y0133974D02*
X0124342Y0133974D01*
X0124342Y0131574D02*
X0136295Y0131574D01*
X0136295Y0129174D02*
X0124342Y0129174D01*
X0124342Y0126774D02*
X0136295Y0126774D01*
X0136295Y0124374D02*
X0124342Y0124374D01*
X0124342Y0121974D02*
X0136295Y0121974D01*
X0136742Y0120545D02*
X0136742Y0056470D01*
X0137342Y0054774D02*
X0137342Y0054774D01*
X0137342Y0054174D02*
X0137342Y0054174D01*
X0134973Y0054174D01*
X0137342Y0054174D01*
X0136742Y0054174D02*
X0136742Y0054174D01*
X0135046Y0054774D02*
X0066184Y0054774D01*
X0067142Y0055731D02*
X0067142Y0027890D01*
X0066606Y0028374D02*
X0082078Y0028374D01*
X0081542Y0027890D02*
X0081542Y0068174D01*
X0081542Y0074174D02*
X0081542Y0095983D01*
X0081133Y0095574D02*
X0118342Y0095574D01*
X0118342Y0093174D02*
X0078733Y0093174D01*
X0079142Y0093583D02*
X0079142Y0074174D01*
X0077745Y0074174D02*
X0076642Y0073717D01*
X0058799Y0055873D01*
X0058342Y0054771D01*
X0062342Y0051341D02*
X0062342Y0028340D01*
X0062393Y0028374D02*
X0054342Y0028374D01*
X0054342Y0025974D02*
X0060972Y0025974D01*
X0060957Y0025125D02*
X0061086Y0024477D01*
X0061354Y0023831D01*
X0061742Y0023250D01*
X0062237Y0022755D01*
X0062818Y0022367D01*
X0063464Y0022099D01*
X0064112Y0021971D01*
X0064112Y0025125D01*
X0060957Y0025125D01*
X0062342Y0025125D02*
X0062342Y0025900D01*
X0064112Y0025974D02*
X0064887Y0025974D01*
X0064742Y0025900D02*
X0064742Y0053331D01*
X0063784Y0052374D02*
X0135792Y0052374D01*
X0139142Y0055724D02*
X0139142Y0118131D01*
X0140099Y0117174D02*
X0133492Y0117174D01*
X0131942Y0118005D02*
X0131942Y0206719D01*
X0133506Y0208374D02*
X0135083Y0208374D01*
X0134450Y0210774D02*
X0134139Y0210774D01*
X0133583Y0213174D02*
X0135006Y0213174D01*
X0136742Y0215054D02*
X0136742Y0216680D01*
X0129542Y0216022D02*
X0129542Y0215712D01*
X0127998Y0215574D02*
X0120591Y0215574D01*
X0119942Y0215712D02*
X0119942Y0216279D01*
X0119695Y0216240D02*
X0120379Y0216349D01*
X0121073Y0216574D01*
X0121722Y0216905D01*
X0122312Y0217334D01*
X0122828Y0217849D01*
X0123256Y0218439D01*
X0123587Y0219089D01*
X0123813Y0219782D01*
X0123921Y0220467D01*
X0119695Y0220467D01*
X0119695Y0216240D01*
X0118895Y0216240D02*
X0118895Y0220467D01*
X0114668Y0220467D01*
X0114776Y0219782D01*
X0115002Y0219089D01*
X0115333Y0218439D01*
X0115761Y0217849D01*
X0116277Y0217334D01*
X0116867Y0216905D01*
X0117516Y0216574D01*
X0118210Y0216349D01*
X0118895Y0216240D01*
X0117998Y0215574D02*
X0110591Y0215574D01*
X0110342Y0215677D02*
X0110342Y0216057D01*
X0107998Y0215574D02*
X0090591Y0215574D01*
X0091142Y0215346D02*
X0091142Y0216388D01*
X0088742Y0216022D02*
X0088742Y0215712D01*
X0087998Y0215574D02*
X0086542Y0215574D01*
X0086342Y0214803D02*
X0086342Y0214766D01*
X0085006Y0213174D02*
X0084713Y0213174D01*
X0083942Y0212403D02*
X0083942Y0212308D01*
X0084139Y0210774D02*
X0084450Y0210774D01*
X0083942Y0209426D02*
X0083942Y0202885D01*
X0084631Y0203574D02*
X0075113Y0203574D01*
X0074342Y0202803D02*
X0074342Y0193285D01*
X0075031Y0193974D02*
X0070542Y0193974D01*
X0070542Y0191574D02*
X0072631Y0191574D01*
X0071942Y0190885D02*
X0071942Y0200403D01*
X0072713Y0201174D02*
X0082231Y0201174D01*
X0081542Y0200485D02*
X0081542Y0206554D01*
X0079142Y0206022D02*
X0079142Y0198085D01*
X0079831Y0198774D02*
X0070542Y0198774D01*
X0070542Y0196374D02*
X0077431Y0196374D01*
X0076742Y0195685D02*
X0076742Y0205203D01*
X0077513Y0205974D02*
X0087031Y0205974D01*
X0086342Y0205285D02*
X0086342Y0206968D01*
X0085083Y0208374D02*
X0083506Y0208374D01*
X0080890Y0215574D02*
X0080591Y0215574D01*
X0081542Y0216225D02*
X0081542Y0216813D01*
X0079695Y0217974D02*
X0078895Y0217974D01*
X0079142Y0215712D02*
X0079142Y0220467D01*
X0078895Y0220374D02*
X0079695Y0220374D01*
X0079695Y0221267D02*
X0078895Y0221267D01*
X0078895Y0225116D01*
X0080753Y0226974D01*
X0083031Y0226974D01*
X0082142Y0226085D01*
X0082142Y0224524D01*
X0081722Y0224829D01*
X0081073Y0225160D01*
X0080379Y0225385D01*
X0079695Y0225494D01*
X0079695Y0221267D01*
X0079142Y0221267D02*
X0079142Y0225363D01*
X0078953Y0225174D02*
X0079695Y0225174D01*
X0081029Y0225174D02*
X0082142Y0225174D01*
X0081542Y0224921D02*
X0081542Y0226974D01*
X0077771Y0230215D02*
X0077642Y0230085D01*
X0072285Y0224728D01*
X0072039Y0224974D01*
X0070258Y0225712D01*
X0068331Y0225712D01*
X0066550Y0224974D01*
X0065187Y0223611D01*
X0064450Y0221831D01*
X0064450Y0219903D01*
X0065187Y0218123D01*
X0066550Y0216760D01*
X0068331Y0216022D01*
X0070258Y0216022D01*
X0072039Y0216760D01*
X0072142Y0216862D01*
X0072142Y0216825D01*
X0070803Y0215486D01*
X0070258Y0215712D01*
X0068331Y0215712D01*
X0066550Y0214974D01*
X0065187Y0213611D01*
X0064450Y0211831D01*
X0064450Y0209903D01*
X0064675Y0209359D01*
X0056142Y0200825D01*
X0054342Y0201174D02*
X0054342Y0230215D01*
X0077771Y0230215D01*
X0077531Y0229974D02*
X0054342Y0229974D01*
X0055142Y0230215D02*
X0055142Y0223502D01*
X0055187Y0223611D02*
X0054450Y0221831D01*
X0054450Y0219903D01*
X0055187Y0218123D01*
X0056550Y0216760D01*
X0058331Y0216022D01*
X0060258Y0216022D01*
X0062039Y0216760D01*
X0063402Y0218123D01*
X0064139Y0219903D01*
X0064139Y0221831D01*
X0063402Y0223611D01*
X0062039Y0224974D01*
X0060258Y0225712D01*
X0058331Y0225712D01*
X0056550Y0224974D01*
X0055187Y0223611D01*
X0054840Y0222774D02*
X0054342Y0222774D01*
X0054342Y0220374D02*
X0054450Y0220374D01*
X0055142Y0218232D02*
X0055142Y0213502D01*
X0055187Y0213611D02*
X0054450Y0211831D01*
X0054450Y0209903D01*
X0055187Y0208123D01*
X0056550Y0206760D01*
X0058331Y0206022D01*
X0060258Y0206022D01*
X0062039Y0206760D01*
X0063402Y0208123D01*
X0064139Y0209903D01*
X0064139Y0211831D01*
X0063402Y0213611D01*
X0062039Y0214974D01*
X0060258Y0215712D01*
X0058331Y0215712D01*
X0056550Y0214974D01*
X0055187Y0213611D01*
X0055006Y0213174D02*
X0054342Y0213174D01*
X0054342Y0210774D02*
X0054450Y0210774D01*
X0054342Y0208374D02*
X0055083Y0208374D01*
X0055142Y0208232D02*
X0055142Y0140874D01*
X0056731Y0141174D02*
X0047427Y0141174D01*
X0047427Y0138774D02*
X0051292Y0138774D01*
X0051292Y0136374D02*
X0047427Y0136374D01*
X0047427Y0133974D02*
X0051292Y0133974D01*
X0051292Y0131574D02*
X0047427Y0131574D01*
X0047427Y0129174D02*
X0051292Y0129174D01*
X0052742Y0127474D02*
X0052742Y0126185D01*
X0053331Y0126774D02*
X0047427Y0126774D01*
X0047427Y0124374D02*
X0051142Y0124374D01*
X0050761Y0121974D02*
X0047427Y0121974D01*
X0047427Y0119574D02*
X0063292Y0119574D01*
X0064742Y0119093D02*
X0064742Y0061817D01*
X0064899Y0061974D02*
X0039742Y0061974D01*
X0039577Y0064374D02*
X0067299Y0064374D01*
X0067142Y0064217D02*
X0067142Y0104593D01*
X0066828Y0104593D02*
X0067855Y0104593D01*
X0068775Y0104974D01*
X0076408Y0104974D01*
X0077328Y0104593D01*
X0078355Y0104593D01*
X0079304Y0104986D01*
X0080030Y0105712D01*
X0080423Y0106661D01*
X0080423Y0107687D01*
X0080030Y0108636D01*
X0079304Y0109362D01*
X0078355Y0109755D01*
X0077328Y0109755D01*
X0076408Y0109374D01*
X0068775Y0109374D01*
X0067855Y0109755D01*
X0066828Y0109755D01*
X0065880Y0109362D01*
X0065154Y0108636D01*
X0064761Y0107687D01*
X0064761Y0106661D01*
X0065154Y0105712D01*
X0065880Y0104986D01*
X0066828Y0104593D01*
X0065692Y0105174D02*
X0047427Y0105174D01*
X0047427Y0102774D02*
X0073092Y0102774D01*
X0073002Y0102684D02*
X0072743Y0102296D01*
X0072564Y0101865D01*
X0072473Y0101407D01*
X0072473Y0101174D01*
X0072473Y0100941D01*
X0072564Y0100483D01*
X0072743Y0100052D01*
X0073002Y0099664D01*
X0073332Y0099334D01*
X0073720Y0099075D01*
X0074151Y0098897D01*
X0074609Y0098806D01*
X0074842Y0098806D01*
X0075075Y0098806D01*
X0075533Y0098897D01*
X0075964Y0099075D01*
X0076352Y0099334D01*
X0076682Y0099664D01*
X0076941Y0100052D01*
X0077119Y0100483D01*
X0077210Y0100941D01*
X0077210Y0101174D01*
X0077210Y0101407D01*
X0077119Y0101865D01*
X0076941Y0102296D01*
X0076682Y0102684D01*
X0076352Y0103014D01*
X0075964Y0103273D01*
X0075533Y0103451D01*
X0075075Y0103543D01*
X0074842Y0103543D01*
X0074842Y0101174D01*
X0077210Y0101174D01*
X0074842Y0101174D01*
X0074842Y0101174D01*
X0074842Y0098806D01*
X0074842Y0101174D01*
X0074842Y0101174D01*
X0074842Y0101174D01*
X0074842Y0103543D01*
X0074609Y0103543D01*
X0074151Y0103451D01*
X0073720Y0103273D01*
X0073332Y0103014D01*
X0073002Y0102684D01*
X0074342Y0103489D02*
X0074342Y0104974D01*
X0074842Y0102774D02*
X0074842Y0102774D01*
X0074842Y0101174D02*
X0074842Y0101174D01*
X0072473Y0101174D01*
X0074842Y0101174D01*
X0074342Y0101174D02*
X0074342Y0101174D01*
X0074842Y0100374D02*
X0074842Y0100374D01*
X0074342Y0098859D02*
X0074342Y0095006D01*
X0074910Y0095574D02*
X0047427Y0095574D01*
X0047427Y0093174D02*
X0072078Y0093174D01*
X0071942Y0092845D02*
X0071942Y0104974D01*
X0069542Y0104974D02*
X0069542Y0066617D01*
X0069699Y0066774D02*
X0038927Y0066774D01*
X0038342Y0066301D02*
X0038342Y0065863D01*
X0038905Y0065537D02*
X0038905Y0065537D01*
X0039742Y0069174D02*
X0072099Y0069174D01*
X0071942Y0069017D02*
X0071942Y0090944D01*
X0072012Y0090774D02*
X0047427Y0090774D01*
X0047242Y0088374D02*
X0118342Y0088374D01*
X0118342Y0085974D02*
X0045729Y0085974D01*
X0045542Y0085787D02*
X0045542Y0037174D01*
X0047942Y0037174D02*
X0047942Y0201174D01*
X0050342Y0201174D02*
X0050342Y0037174D01*
X0043142Y0037174D02*
X0043142Y0084546D01*
X0045113Y0085358D02*
X0045113Y0085358D01*
X0040742Y0084546D02*
X0040742Y0037174D01*
X0038342Y0037174D02*
X0038342Y0059774D01*
X0035942Y0059774D02*
X0035942Y0037174D01*
X0033542Y0037174D02*
X0033542Y0059774D01*
X0031142Y0059774D02*
X0031142Y0037174D01*
X0028742Y0037174D02*
X0028742Y0083991D01*
X0028325Y0083574D02*
X0110410Y0083574D01*
X0110342Y0083481D02*
X0110342Y0097321D01*
X0111265Y0097974D02*
X0118342Y0097974D01*
X0118342Y0100374D02*
X0111857Y0100374D01*
X0111542Y0102774D02*
X0118342Y0102774D01*
X0118342Y0105174D02*
X0111542Y0105174D01*
X0111542Y0107574D02*
X0118342Y0107574D01*
X0118342Y0109974D02*
X0111542Y0109974D01*
X0111542Y0112374D02*
X0118342Y0112374D01*
X0118342Y0114774D02*
X0111542Y0114774D01*
X0111542Y0117174D02*
X0118342Y0117174D01*
X0118342Y0119574D02*
X0111542Y0119574D01*
X0111542Y0121974D02*
X0118342Y0121974D01*
X0118342Y0124374D02*
X0111542Y0124374D01*
X0111542Y0126774D02*
X0118342Y0126774D01*
X0118342Y0129174D02*
X0111542Y0129174D01*
X0111542Y0131574D02*
X0118342Y0131574D01*
X0118342Y0133974D02*
X0111542Y0133974D01*
X0111542Y0136374D02*
X0118342Y0136374D01*
X0118342Y0138774D02*
X0111542Y0138774D01*
X0111542Y0141174D02*
X0118342Y0141174D01*
X0118342Y0143574D02*
X0111542Y0143574D01*
X0111542Y0145974D02*
X0118342Y0145974D01*
X0118342Y0148374D02*
X0111542Y0148374D01*
X0111542Y0150774D02*
X0118342Y0150774D01*
X0118342Y0153174D02*
X0111542Y0153174D01*
X0111053Y0155574D02*
X0118342Y0155574D01*
X0118342Y0157974D02*
X0108653Y0157974D01*
X0107942Y0158685D02*
X0107942Y0198974D01*
X0108442Y0198774D02*
X0101590Y0198774D01*
X0101663Y0198174D02*
X0099295Y0198174D01*
X0099295Y0198174D01*
X0099295Y0195806D01*
X0099528Y0195806D01*
X0099985Y0195897D01*
X0100416Y0196075D01*
X0100804Y0196334D01*
X0101134Y0196664D01*
X0101393Y0197052D01*
X0101572Y0197483D01*
X0101663Y0197941D01*
X0101663Y0198174D01*
X0100742Y0198174D02*
X0100742Y0198174D01*
X0100844Y0196374D02*
X0108442Y0196374D01*
X0108442Y0193974D02*
X0088253Y0193974D01*
X0088742Y0194463D02*
X0088742Y0164755D01*
X0091142Y0164374D02*
X0091142Y0196863D01*
X0090653Y0196374D02*
X0097745Y0196374D01*
X0098342Y0196005D02*
X0098342Y0164374D01*
X0100742Y0164374D02*
X0100742Y0196292D01*
X0099295Y0196374D02*
X0099294Y0196374D01*
X0098342Y0198174D02*
X0098342Y0198174D01*
X0096999Y0198774D02*
X0093053Y0198774D01*
X0093542Y0198974D02*
X0093542Y0164374D01*
X0095942Y0164374D02*
X0095942Y0198974D01*
X0103142Y0198974D02*
X0103142Y0163485D01*
X0103853Y0162774D02*
X0111294Y0162774D01*
X0111234Y0162793D02*
X0111861Y0162590D01*
X0112442Y0162498D01*
X0112442Y0166274D01*
X0113242Y0166274D01*
X0113242Y0167074D01*
X0117018Y0167074D01*
X0116926Y0167655D01*
X0116722Y0168281D01*
X0116423Y0168869D01*
X0116036Y0169402D01*
X0115570Y0169868D01*
X0115036Y0170255D01*
X0114449Y0170555D01*
X0113822Y0170758D01*
X0113242Y0170850D01*
X0113242Y0167074D01*
X0112442Y0167074D01*
X0112442Y0170850D01*
X0111861Y0170758D01*
X0111234Y0170555D01*
X0110647Y0170255D01*
X0110114Y0169868D01*
X0109648Y0169402D01*
X0109260Y0168869D01*
X0108961Y0168281D01*
X0108758Y0167655D01*
X0108666Y0167074D01*
X0112442Y0167074D01*
X0112442Y0166274D01*
X0108666Y0166274D01*
X0108758Y0165693D01*
X0108961Y0165067D01*
X0109260Y0164479D01*
X0109648Y0163946D01*
X0110114Y0163480D01*
X0110647Y0163093D01*
X0111234Y0162793D01*
X0110342Y0163314D02*
X0110342Y0156285D01*
X0107142Y0153174D02*
X0085492Y0153174D01*
X0083942Y0152129D02*
X0083942Y0127470D01*
X0084033Y0127451D02*
X0083575Y0127543D01*
X0083342Y0127543D01*
X0083342Y0125174D01*
X0085710Y0125174D01*
X0085710Y0125407D01*
X0085619Y0125865D01*
X0085441Y0126296D01*
X0085182Y0126684D01*
X0084852Y0127014D01*
X0084464Y0127273D01*
X0084033Y0127451D01*
X0083342Y0127543D02*
X0083109Y0127543D01*
X0082651Y0127451D01*
X0082220Y0127273D01*
X0081832Y0127014D01*
X0081502Y0126684D01*
X0081243Y0126296D01*
X0081064Y0125865D01*
X0080973Y0125407D01*
X0080973Y0125174D01*
X0080973Y0124941D01*
X0081064Y0124483D01*
X0081243Y0124052D01*
X0081502Y0123664D01*
X0081832Y0123334D01*
X0082220Y0123075D01*
X0082651Y0122897D01*
X0083109Y0122806D01*
X0083342Y0122806D01*
X0083575Y0122806D01*
X0084033Y0122897D01*
X0084464Y0123075D01*
X0084852Y0123334D01*
X0085182Y0123664D01*
X0085441Y0124052D01*
X0085619Y0124483D01*
X0085710Y0124941D01*
X0085710Y0125174D01*
X0083342Y0125174D01*
X0083342Y0125174D01*
X0083342Y0122806D01*
X0083342Y0125174D01*
X0083342Y0125174D01*
X0083342Y0125174D01*
X0083342Y0127543D01*
X0083342Y0126774D02*
X0083342Y0126774D01*
X0083342Y0125174D02*
X0083342Y0125174D01*
X0080973Y0125174D01*
X0083342Y0125174D01*
X0083942Y0125174D02*
X0083942Y0125174D01*
X0083342Y0124374D02*
X0083342Y0124374D01*
X0083942Y0122878D02*
X0083942Y0120970D01*
X0084033Y0120951D02*
X0083575Y0121043D01*
X0083342Y0121043D01*
X0083342Y0118674D01*
X0085710Y0118674D01*
X0085710Y0118907D01*
X0085619Y0119365D01*
X0085441Y0119796D01*
X0085182Y0120184D01*
X0084852Y0120514D01*
X0084464Y0120773D01*
X0084033Y0120951D01*
X0083342Y0121043D02*
X0083109Y0121043D01*
X0082651Y0120951D01*
X0082220Y0120773D01*
X0081832Y0120514D01*
X0081502Y0120184D01*
X0081243Y0119796D01*
X0081064Y0119365D01*
X0080973Y0118907D01*
X0080973Y0118674D01*
X0080973Y0118441D01*
X0081064Y0117983D01*
X0081243Y0117552D01*
X0081502Y0117164D01*
X0081832Y0116834D01*
X0082220Y0116575D01*
X0082651Y0116397D01*
X0083109Y0116306D01*
X0083342Y0116306D01*
X0083575Y0116306D01*
X0084033Y0116397D01*
X0084464Y0116575D01*
X0084852Y0116834D01*
X0085182Y0117164D01*
X0085441Y0117552D01*
X0085619Y0117983D01*
X0085710Y0118441D01*
X0085710Y0118674D01*
X0083342Y0118674D01*
X0083342Y0118674D01*
X0083342Y0116306D01*
X0083342Y0118674D01*
X0083342Y0118674D01*
X0083342Y0118674D01*
X0083342Y0121043D01*
X0083342Y0119574D02*
X0083342Y0119574D01*
X0083342Y0118674D02*
X0080973Y0118674D01*
X0083342Y0118674D01*
X0083342Y0118674D01*
X0083942Y0118674D02*
X0083942Y0118674D01*
X0083342Y0117174D02*
X0083342Y0117174D01*
X0083942Y0116378D02*
X0083942Y0109470D01*
X0084033Y0109451D02*
X0083575Y0109543D01*
X0083342Y0109543D01*
X0083342Y0107174D01*
X0085710Y0107174D01*
X0085710Y0107407D01*
X0085619Y0107865D01*
X0085441Y0108296D01*
X0085182Y0108684D01*
X0084852Y0109014D01*
X0084464Y0109273D01*
X0084033Y0109451D01*
X0083342Y0109543D02*
X0083109Y0109543D01*
X0082651Y0109451D01*
X0082220Y0109273D01*
X0081832Y0109014D01*
X0081502Y0108684D01*
X0081243Y0108296D01*
X0081064Y0107865D01*
X0080973Y0107407D01*
X0080973Y0107174D01*
X0080973Y0106941D01*
X0081064Y0106483D01*
X0081243Y0106052D01*
X0081502Y0105664D01*
X0081832Y0105334D01*
X0082220Y0105075D01*
X0082651Y0104897D01*
X0083109Y0104806D01*
X0083342Y0104806D01*
X0083575Y0104806D01*
X0084033Y0104897D01*
X0084464Y0105075D01*
X0084852Y0105334D01*
X0085182Y0105664D01*
X0085441Y0106052D01*
X0085619Y0106483D01*
X0085710Y0106941D01*
X0085710Y0107174D01*
X0083342Y0107174D01*
X0083342Y0107174D01*
X0083342Y0104806D01*
X0083342Y0107174D01*
X0083342Y0107174D01*
X0083342Y0107174D01*
X0083342Y0109543D01*
X0083342Y0107574D02*
X0083342Y0107574D01*
X0083342Y0107174D02*
X0083342Y0107174D01*
X0080973Y0107174D01*
X0083342Y0107174D01*
X0083942Y0107174D02*
X0083942Y0107174D01*
X0085677Y0107574D02*
X0089631Y0107574D01*
X0088742Y0106685D02*
X0088742Y0127474D01*
X0091142Y0127474D02*
X0091142Y0109107D01*
X0092150Y0109974D02*
X0047427Y0109974D01*
X0047427Y0107574D02*
X0064761Y0107574D01*
X0067142Y0109755D02*
X0067142Y0119377D01*
X0066792Y0119574D02*
X0066392Y0119574D01*
X0069542Y0119377D02*
X0069542Y0109374D01*
X0071942Y0109374D02*
X0071942Y0121163D01*
X0072753Y0121974D02*
X0099931Y0121974D01*
X0100742Y0121163D02*
X0100742Y0109874D01*
X0102150Y0109974D02*
X0094534Y0109974D01*
X0093542Y0110255D02*
X0093542Y0127474D01*
X0095131Y0126774D02*
X0085091Y0126774D01*
X0086342Y0128244D02*
X0086342Y0104285D01*
X0087231Y0105174D02*
X0084612Y0105174D01*
X0083942Y0104878D02*
X0083942Y0102624D01*
X0084831Y0102774D02*
X0076591Y0102774D01*
X0076742Y0102594D02*
X0076742Y0104836D01*
X0079142Y0104919D02*
X0079142Y0099806D01*
X0079710Y0100374D02*
X0077074Y0100374D01*
X0076742Y0099754D02*
X0076742Y0097406D01*
X0077310Y0097974D02*
X0047427Y0097974D01*
X0047427Y0100374D02*
X0072610Y0100374D01*
X0076742Y0101174D02*
X0076742Y0101174D01*
X0079492Y0105174D02*
X0082072Y0105174D01*
X0081542Y0105624D02*
X0081542Y0102206D01*
X0083342Y0105174D02*
X0083342Y0105174D01*
X0081542Y0107174D02*
X0081542Y0107174D01*
X0081006Y0107574D02*
X0080423Y0107574D01*
X0081542Y0108724D02*
X0081542Y0117124D01*
X0081495Y0117174D02*
X0047427Y0117174D01*
X0047427Y0114774D02*
X0104142Y0114774D01*
X0104142Y0112374D02*
X0047427Y0112374D01*
X0055923Y0121974D02*
X0062261Y0121974D01*
X0062342Y0122383D02*
X0062342Y0128244D01*
X0062292Y0129174D02*
X0060392Y0129174D01*
X0060392Y0131574D02*
X0062292Y0131574D01*
X0062292Y0133974D02*
X0060392Y0133974D01*
X0062342Y0134104D02*
X0062342Y0134244D01*
X0062292Y0136374D02*
X0060392Y0136374D01*
X0060553Y0138774D02*
X0062292Y0138774D01*
X0062342Y0140104D02*
X0062342Y0140563D01*
X0062953Y0141174D02*
X0064642Y0141174D01*
X0064742Y0142685D02*
X0064742Y0142963D01*
X0065353Y0143574D02*
X0065631Y0143574D01*
X0067142Y0145085D02*
X0067142Y0145363D01*
X0067753Y0145974D02*
X0068031Y0145974D01*
X0069542Y0147485D02*
X0069542Y0147763D01*
X0070153Y0148374D02*
X0070431Y0148374D01*
X0071942Y0149885D02*
X0071942Y0150163D01*
X0068731Y0153174D02*
X0045401Y0153174D01*
X0045542Y0153033D02*
X0045542Y0201174D01*
X0043142Y0201174D02*
X0043142Y0154275D01*
X0040742Y0154275D02*
X0040742Y0201174D01*
X0038342Y0201174D02*
X0038342Y0154275D01*
X0035942Y0154275D02*
X0035942Y0201174D01*
X0033542Y0201174D02*
X0033542Y0154275D01*
X0031142Y0154275D02*
X0031142Y0201174D01*
X0028742Y0201174D02*
X0028742Y0154830D01*
X0028098Y0155574D02*
X0069142Y0155574D01*
X0069142Y0157974D02*
X0027742Y0157974D01*
X0027742Y0160374D02*
X0069142Y0160374D01*
X0069142Y0162774D02*
X0060923Y0162774D01*
X0059942Y0161124D02*
X0059942Y0144385D01*
X0059131Y0143574D02*
X0047427Y0143574D01*
X0047427Y0145974D02*
X0061531Y0145974D01*
X0062342Y0146785D02*
X0062342Y0200803D01*
X0062713Y0201174D02*
X0066490Y0201174D01*
X0067142Y0201825D02*
X0067142Y0205603D01*
X0067513Y0205974D02*
X0071290Y0205974D01*
X0071942Y0206625D02*
X0071942Y0206719D01*
X0073506Y0208374D02*
X0073690Y0208374D01*
X0074342Y0209025D02*
X0074342Y0212803D01*
X0074713Y0213174D02*
X0075006Y0213174D01*
X0074450Y0210774D02*
X0074139Y0210774D01*
X0076742Y0215054D02*
X0076742Y0216996D01*
X0076542Y0215574D02*
X0077998Y0215574D01*
X0071942Y0216625D02*
X0071942Y0216719D01*
X0070890Y0215574D02*
X0070591Y0215574D01*
X0069542Y0215712D02*
X0069542Y0216022D01*
X0067998Y0215574D02*
X0060591Y0215574D01*
X0059942Y0215712D02*
X0059942Y0216022D01*
X0057998Y0215574D02*
X0054342Y0215574D01*
X0054342Y0217974D02*
X0055336Y0217974D01*
X0057542Y0216349D02*
X0057542Y0215385D01*
X0062342Y0214671D02*
X0062342Y0217062D01*
X0063253Y0217974D02*
X0065336Y0217974D01*
X0064742Y0219198D02*
X0064742Y0212536D01*
X0065006Y0213174D02*
X0063583Y0213174D01*
X0064139Y0210774D02*
X0064450Y0210774D01*
X0063690Y0208374D02*
X0063506Y0208374D01*
X0062342Y0207062D02*
X0062342Y0207025D01*
X0061290Y0205974D02*
X0054342Y0205974D01*
X0054342Y0203574D02*
X0058890Y0203574D01*
X0059942Y0204625D02*
X0059942Y0206022D01*
X0057542Y0206349D02*
X0057542Y0202225D01*
X0056142Y0198774D02*
X0027742Y0198774D01*
X0027742Y0196374D02*
X0056142Y0196374D01*
X0056142Y0193974D02*
X0027742Y0193974D01*
X0027742Y0191574D02*
X0056142Y0191574D01*
X0056142Y0189174D02*
X0027742Y0189174D01*
X0027742Y0186774D02*
X0056142Y0186774D01*
X0056142Y0184374D02*
X0027742Y0184374D01*
X0027742Y0181974D02*
X0056142Y0181974D01*
X0056142Y0179574D02*
X0027742Y0179574D01*
X0027742Y0177174D02*
X0056142Y0177174D01*
X0056142Y0174774D02*
X0027742Y0174774D01*
X0027742Y0172374D02*
X0056142Y0172374D01*
X0056142Y0169974D02*
X0027742Y0169974D01*
X0027742Y0167574D02*
X0056142Y0167574D01*
X0056142Y0165174D02*
X0027742Y0165174D01*
X0027742Y0162774D02*
X0055761Y0162774D01*
X0057542Y0160712D02*
X0057542Y0141985D01*
X0052742Y0140874D02*
X0052742Y0201174D01*
X0060542Y0198774D02*
X0066142Y0198774D01*
X0066142Y0196374D02*
X0060542Y0196374D01*
X0060542Y0193974D02*
X0066142Y0193974D01*
X0066142Y0191574D02*
X0060542Y0191574D01*
X0060542Y0189174D02*
X0066142Y0189174D01*
X0066142Y0186774D02*
X0060542Y0186774D01*
X0060542Y0184374D02*
X0066142Y0184374D01*
X0066142Y0181974D02*
X0060542Y0181974D01*
X0060542Y0179574D02*
X0066142Y0179574D01*
X0066142Y0177174D02*
X0060542Y0177174D01*
X0060542Y0174774D02*
X0066142Y0174774D01*
X0065838Y0172374D02*
X0060542Y0172374D01*
X0060542Y0169974D02*
X0066392Y0169974D01*
X0067142Y0169377D02*
X0067142Y0151585D01*
X0066331Y0150774D02*
X0047106Y0150774D01*
X0046614Y0151961D02*
X0046614Y0151961D01*
X0047427Y0148374D02*
X0063931Y0148374D01*
X0064742Y0149185D02*
X0064742Y0203203D01*
X0065113Y0203574D02*
X0068890Y0203574D01*
X0069542Y0204225D02*
X0069542Y0206022D01*
X0067142Y0215219D02*
X0067142Y0216515D01*
X0064450Y0220374D02*
X0064139Y0220374D01*
X0064742Y0222536D02*
X0064742Y0230215D01*
X0067142Y0230215D02*
X0067142Y0225219D01*
X0067033Y0225174D02*
X0061557Y0225174D01*
X0062342Y0224671D02*
X0062342Y0230215D01*
X0059942Y0230215D02*
X0059942Y0225712D01*
X0057542Y0225385D02*
X0057542Y0230215D01*
X0054342Y0227574D02*
X0075131Y0227574D01*
X0074342Y0226785D02*
X0074342Y0230215D01*
X0076742Y0230215D02*
X0076742Y0229185D01*
X0071942Y0230215D02*
X0071942Y0225014D01*
X0071557Y0225174D02*
X0072731Y0225174D01*
X0069542Y0225712D02*
X0069542Y0230215D01*
X0064840Y0222774D02*
X0063749Y0222774D01*
X0057033Y0225174D02*
X0054342Y0225174D01*
X0078895Y0222774D02*
X0079695Y0222774D01*
X0093542Y0223273D02*
X0093542Y0224474D01*
X0093749Y0222774D02*
X0094840Y0222774D01*
X0095942Y0224366D02*
X0095942Y0224474D01*
X0094450Y0220374D02*
X0094139Y0220374D01*
X0093542Y0218460D02*
X0093542Y0213273D01*
X0093583Y0213174D02*
X0095271Y0213174D01*
X0095942Y0214065D02*
X0095942Y0217368D01*
X0095336Y0217974D02*
X0093253Y0217974D01*
X0098342Y0216022D02*
X0098342Y0215406D01*
X0098895Y0213174D02*
X0099695Y0213174D01*
X0100742Y0211267D02*
X0100742Y0210467D01*
X0099695Y0210774D02*
X0104450Y0210774D01*
X0103142Y0210467D02*
X0103142Y0211267D01*
X0103318Y0213174D02*
X0105006Y0213174D01*
X0105542Y0213966D02*
X0105542Y0217768D01*
X0105336Y0217974D02*
X0103253Y0217974D01*
X0103142Y0217862D02*
X0103142Y0213453D01*
X0100742Y0215267D02*
X0100742Y0216222D01*
X0104139Y0220374D02*
X0104450Y0220374D01*
X0104840Y0222774D02*
X0103749Y0222774D01*
X0103142Y0223871D02*
X0103142Y0224474D01*
X0105542Y0224474D02*
X0105542Y0223966D01*
X0112742Y0224271D02*
X0112742Y0224474D01*
X0113749Y0222774D02*
X0115067Y0222774D01*
X0115142Y0222920D02*
X0115142Y0224474D01*
X0115142Y0221267D02*
X0115142Y0220467D01*
X0114683Y0220374D02*
X0114139Y0220374D01*
X0115142Y0218814D02*
X0115142Y0213502D01*
X0115006Y0213174D02*
X0113583Y0213174D01*
X0112742Y0214271D02*
X0112742Y0217462D01*
X0113253Y0217974D02*
X0115671Y0217974D01*
X0117542Y0216566D02*
X0117542Y0215385D01*
X0118895Y0217974D02*
X0119695Y0217974D01*
X0119695Y0220374D02*
X0118895Y0220374D01*
X0119942Y0220467D02*
X0119942Y0221267D01*
X0122342Y0221267D02*
X0122342Y0220467D01*
X0123906Y0220374D02*
X0124450Y0220374D01*
X0124742Y0219198D02*
X0124742Y0212536D01*
X0125006Y0213174D02*
X0123583Y0213174D01*
X0122342Y0214671D02*
X0122342Y0217363D01*
X0122919Y0217974D02*
X0125336Y0217974D01*
X0127142Y0216515D02*
X0127142Y0215219D01*
X0124450Y0210774D02*
X0124139Y0210774D01*
X0127253Y0205974D02*
X0136295Y0205974D01*
X0136295Y0203574D02*
X0116353Y0203574D01*
X0117542Y0203930D02*
X0117542Y0186217D01*
X0117242Y0186774D02*
X0136295Y0186774D01*
X0136295Y0184374D02*
X0119384Y0184374D01*
X0119942Y0183817D02*
X0119942Y0203930D01*
X0122342Y0203930D02*
X0122342Y0181417D01*
X0121784Y0181974D02*
X0136295Y0181974D01*
X0136295Y0179574D02*
X0124009Y0179574D01*
X0124342Y0177174D02*
X0136295Y0177174D01*
X0136295Y0174774D02*
X0124342Y0174774D01*
X0124342Y0172374D02*
X0136295Y0172374D01*
X0136295Y0169974D02*
X0124342Y0169974D01*
X0118342Y0169974D02*
X0115424Y0169974D01*
X0115142Y0170179D02*
X0115142Y0172864D01*
X0113958Y0172374D02*
X0118342Y0172374D01*
X0118342Y0174774D02*
X0116817Y0174774D01*
X0117242Y0177174D02*
X0118099Y0177174D01*
X0117542Y0177731D02*
X0117542Y0083136D01*
X0117274Y0083574D02*
X0118342Y0083574D01*
X0117542Y0081574D02*
X0117542Y0080774D01*
X0118342Y0081174D02*
X0114242Y0081174D01*
X0113442Y0081174D02*
X0027742Y0081174D01*
X0027742Y0073974D02*
X0030125Y0073974D01*
X0031142Y0073161D02*
X0031142Y0071818D01*
X0030874Y0071664D02*
X0030874Y0071664D01*
X0030822Y0071574D02*
X0027742Y0071574D01*
X0027742Y0069174D02*
X0029942Y0069174D01*
X0030757Y0066774D02*
X0027742Y0066774D01*
X0027742Y0064374D02*
X0030052Y0064374D01*
X0030874Y0065798D02*
X0030874Y0065798D01*
X0031142Y0065952D02*
X0031142Y0066417D01*
X0029942Y0061974D02*
X0027742Y0061974D01*
X0027742Y0059574D02*
X0062499Y0059574D01*
X0062342Y0059417D02*
X0062342Y0120965D01*
X0070353Y0119574D02*
X0081151Y0119574D01*
X0081542Y0120224D02*
X0081542Y0123624D01*
X0081110Y0124374D02*
X0075153Y0124374D01*
X0074342Y0123563D02*
X0074342Y0109374D01*
X0076742Y0109512D02*
X0076742Y0125963D01*
X0077553Y0126774D02*
X0081592Y0126774D01*
X0081542Y0126724D02*
X0081542Y0127474D01*
X0081542Y0125174D02*
X0081542Y0125174D01*
X0079142Y0127474D02*
X0079142Y0109429D01*
X0081542Y0118674D02*
X0081542Y0118674D01*
X0085188Y0117174D02*
X0104142Y0117174D01*
X0103142Y0119093D02*
X0103142Y0110255D01*
X0098342Y0109874D02*
X0098342Y0123563D01*
X0097531Y0124374D02*
X0085574Y0124374D01*
X0085533Y0119574D02*
X0101792Y0119574D01*
X0095942Y0125963D02*
X0095942Y0109874D01*
X0095942Y0105474D02*
X0095942Y0074174D01*
X0098342Y0074174D02*
X0098342Y0105474D01*
X0100742Y0105474D02*
X0100742Y0074174D01*
X0103142Y0074174D02*
X0103142Y0105093D01*
X0102633Y0105174D02*
X0094051Y0105174D01*
X0093542Y0105093D02*
X0093542Y0074174D01*
X0091142Y0074174D02*
X0091142Y0102863D01*
X0091053Y0102774D02*
X0104142Y0102774D01*
X0104142Y0105174D02*
X0104051Y0105174D01*
X0104045Y0100374D02*
X0088653Y0100374D01*
X0088742Y0100463D02*
X0088742Y0074174D01*
X0086342Y0074174D02*
X0086342Y0098224D01*
X0083942Y0098224D02*
X0083942Y0074174D01*
X0077745Y0074174D02*
X0110619Y0074174D01*
X0111349Y0074904D01*
X0112967Y0075574D01*
X0113999Y0075574D01*
X0115998Y0077573D01*
X0115449Y0077293D01*
X0114242Y0078774D02*
X0113442Y0078774D01*
X0113442Y0076998D02*
X0112861Y0077090D01*
X0112234Y0077293D01*
X0111647Y0077593D01*
X0111114Y0077980D01*
X0110648Y0078446D01*
X0110260Y0078979D01*
X0109961Y0079567D01*
X0109758Y0080193D01*
X0109666Y0080774D01*
X0113442Y0080774D01*
X0113442Y0076998D01*
X0112742Y0077129D02*
X0112742Y0075481D01*
X0117542Y0079117D02*
X0117542Y0079212D01*
X0115142Y0080774D02*
X0115142Y0081574D01*
X0114242Y0083574D02*
X0113442Y0083574D01*
X0112742Y0085219D02*
X0112742Y0166274D01*
X0113242Y0166274D02*
X0113242Y0162498D01*
X0113822Y0162590D01*
X0114449Y0162793D01*
X0115036Y0163093D01*
X0115570Y0163480D01*
X0116036Y0163946D01*
X0116423Y0164479D01*
X0116722Y0165067D01*
X0116926Y0165693D01*
X0117018Y0166274D01*
X0113242Y0166274D01*
X0112742Y0167074D02*
X0112742Y0172274D01*
X0111725Y0172374D02*
X0085542Y0172374D01*
X0085542Y0169974D02*
X0110260Y0169974D01*
X0110342Y0170034D02*
X0110342Y0172951D01*
X0108866Y0174774D02*
X0085542Y0174774D01*
X0085542Y0177174D02*
X0108442Y0177174D01*
X0109519Y0179574D02*
X0085542Y0179574D01*
X0085804Y0181974D02*
X0113299Y0181974D01*
X0112742Y0182274D02*
X0112742Y0181074D01*
X0110342Y0180397D02*
X0110342Y0182951D01*
X0109032Y0184374D02*
X0081042Y0184374D01*
X0081542Y0183024D02*
X0081542Y0187263D01*
X0081053Y0186774D02*
X0108442Y0186774D01*
X0109119Y0189174D02*
X0083453Y0189174D01*
X0083942Y0189663D02*
X0083942Y0183719D01*
X0085853Y0191574D02*
X0136295Y0191574D01*
X0136295Y0189174D02*
X0116564Y0189174D01*
X0115142Y0190484D02*
X0115142Y0192274D01*
X0112742Y0192274D02*
X0112742Y0191074D01*
X0110342Y0190397D02*
X0110342Y0192274D01*
X0117242Y0193974D02*
X0136295Y0193974D01*
X0136295Y0196374D02*
X0117242Y0196374D01*
X0117242Y0198774D02*
X0136295Y0198774D01*
X0136295Y0201174D02*
X0113953Y0201174D01*
X0115142Y0201074D02*
X0115142Y0202363D01*
X0105542Y0198974D02*
X0105542Y0161085D01*
X0106253Y0160374D02*
X0118342Y0160374D01*
X0118342Y0162774D02*
X0114390Y0162774D01*
X0115142Y0163169D02*
X0115142Y0085154D01*
X0112742Y0081574D02*
X0112742Y0080774D01*
X0110342Y0080774D02*
X0110342Y0081574D01*
X0120884Y0073974D02*
X0198170Y0073974D01*
X0198170Y0071574D02*
X0155033Y0071574D01*
X0154688Y0069174D02*
X0198170Y0069174D01*
X0198170Y0076374D02*
X0123284Y0076374D01*
X0122342Y0075431D02*
X0122342Y0010574D01*
X0124742Y0010574D02*
X0124742Y0203930D01*
X0127142Y0205863D02*
X0127142Y0027632D01*
X0125610Y0025974D02*
X0121572Y0025974D01*
X0122262Y0023574D02*
X0124854Y0023574D01*
X0124854Y0022774D02*
X0124854Y0022742D01*
X0124990Y0021889D01*
X0125256Y0021068D01*
X0125649Y0020298D01*
X0126156Y0019599D01*
X0126767Y0018988D01*
X0127466Y0018481D01*
X0128235Y0018089D01*
X0129057Y0017822D01*
X0129910Y0017687D01*
X0129942Y0017687D01*
X0129942Y0022774D01*
X0124854Y0022774D01*
X0125222Y0021174D02*
X0121903Y0021174D01*
X0120223Y0018774D02*
X0127062Y0018774D01*
X0127142Y0018716D02*
X0127142Y0010574D01*
X0129542Y0010574D02*
X0129542Y0017745D01*
X0129942Y0018774D02*
X0130742Y0018774D01*
X0131942Y0017924D02*
X0131942Y0010574D01*
X0139142Y0010574D02*
X0139142Y0020301D01*
X0138780Y0021174D02*
X0135462Y0021174D01*
X0134342Y0022774D02*
X0134342Y0023574D01*
X0135829Y0023574D02*
X0135829Y0023606D01*
X0131942Y0023574D02*
X0131942Y0022774D01*
X0130742Y0021174D02*
X0129942Y0021174D01*
X0129542Y0022774D02*
X0129542Y0023574D01*
X0127142Y0023574D02*
X0127142Y0022774D01*
X0129942Y0025974D02*
X0130742Y0025974D01*
X0130742Y0028374D02*
X0129942Y0028374D01*
X0117542Y0028874D02*
X0117542Y0056894D01*
X0117822Y0057174D02*
X0198170Y0057174D01*
X0198170Y0059574D02*
X0118242Y0059574D01*
X0118242Y0061974D02*
X0198170Y0061974D01*
X0208844Y0081174D02*
X0218731Y0081174D01*
X0218342Y0081563D02*
X0218342Y0010574D01*
X0220742Y0010574D02*
X0220742Y0080974D01*
X0223142Y0080974D02*
X0223142Y0010574D01*
X0215942Y0010574D02*
X0215942Y0083963D01*
X0216331Y0083574D02*
X0208844Y0083574D01*
X0213542Y0084774D02*
X0213542Y0010574D01*
X0198170Y0013974D02*
X0092468Y0013974D01*
X0091142Y0014483D02*
X0091142Y0015283D01*
X0092300Y0016374D02*
X0198170Y0016374D01*
X0198170Y0018774D02*
X0161562Y0018774D01*
X0160742Y0018181D02*
X0160742Y0010574D01*
X0163142Y0010574D02*
X0163142Y0020932D01*
X0163242Y0021174D02*
X0198170Y0021174D01*
X0198170Y0023574D02*
X0163601Y0023574D01*
X0163142Y0025416D02*
X0163142Y0207862D01*
X0163506Y0208374D02*
X0165083Y0208374D01*
X0165542Y0207768D02*
X0165542Y0203224D01*
X0165922Y0203574D02*
X0142295Y0203574D01*
X0129542Y0206022D02*
X0129542Y0117024D01*
X0129692Y0117174D02*
X0124342Y0117174D01*
X0124342Y0114774D02*
X0129067Y0114774D01*
X0129142Y0112374D02*
X0124342Y0112374D01*
X0124342Y0109974D02*
X0129142Y0109974D01*
X0129142Y0107574D02*
X0124342Y0107574D01*
X0124342Y0105174D02*
X0129142Y0105174D01*
X0129142Y0102774D02*
X0124342Y0102774D01*
X0124342Y0100374D02*
X0129142Y0100374D01*
X0129142Y0097974D02*
X0124342Y0097974D01*
X0124342Y0095574D02*
X0129142Y0095574D01*
X0128962Y0093174D02*
X0124342Y0093174D01*
X0118342Y0090774D02*
X0076671Y0090774D01*
X0076742Y0090944D02*
X0076742Y0073758D01*
X0077262Y0073974D02*
X0039742Y0073974D01*
X0038936Y0071574D02*
X0074499Y0071574D01*
X0074342Y0071417D02*
X0074342Y0089313D01*
X0083533Y0097974D02*
X0104045Y0097974D01*
X0124342Y0119574D02*
X0137699Y0119574D01*
X0141542Y0115731D02*
X0141542Y0096617D01*
X0140499Y0095574D02*
X0133542Y0095574D01*
X0133542Y0097974D02*
X0142899Y0097974D01*
X0143942Y0099017D02*
X0143942Y0113331D01*
X0144899Y0112374D02*
X0133542Y0112374D01*
X0133542Y0109974D02*
X0147299Y0109974D01*
X0146342Y0110931D02*
X0146342Y0101417D01*
X0145299Y0100374D02*
X0133542Y0100374D01*
X0133542Y0102774D02*
X0147699Y0102774D01*
X0148742Y0103817D02*
X0148742Y0108531D01*
X0149699Y0107574D02*
X0133542Y0107574D01*
X0133542Y0105174D02*
X0150099Y0105174D01*
X0142499Y0114774D02*
X0134116Y0114774D01*
X0133721Y0093174D02*
X0139842Y0093174D01*
X0151142Y0070674D02*
X0151142Y0070674D01*
X0167942Y0091618D02*
X0167942Y0199378D01*
X0165542Y0200124D02*
X0165542Y0010574D01*
X0158342Y0010574D02*
X0158342Y0017474D01*
X0155942Y0017816D02*
X0155942Y0010574D01*
X0152560Y0021174D02*
X0149463Y0021174D01*
X0149821Y0023574D02*
X0152201Y0023574D01*
X0155560Y0028374D02*
X0146462Y0028374D01*
X0162911Y0025974D02*
X0198170Y0025974D01*
X0220742Y0085385D02*
X0220742Y0086051D01*
X0220819Y0085974D02*
X0220153Y0085974D01*
X0219442Y0088374D02*
X0218242Y0088374D01*
X0218342Y0087785D02*
X0218342Y0200063D01*
X0217231Y0201174D02*
X0202042Y0201174D01*
X0202042Y0198774D02*
X0219631Y0198774D01*
X0220742Y0197663D02*
X0220742Y0184913D01*
X0220738Y0184913D02*
X0220281Y0184822D01*
X0219850Y0184643D01*
X0219462Y0184384D01*
X0219132Y0184054D01*
X0218873Y0183666D01*
X0218694Y0183235D01*
X0218603Y0182777D01*
X0218603Y0182544D01*
X0218603Y0182311D01*
X0218694Y0181853D01*
X0218873Y0181422D01*
X0219132Y0181034D01*
X0219462Y0180704D01*
X0219850Y0180445D01*
X0220281Y0180267D01*
X0220738Y0180176D01*
X0220972Y0180176D01*
X0220972Y0182544D01*
X0220972Y0182544D01*
X0220972Y0182544D01*
X0218603Y0182544D01*
X0220972Y0182544D01*
X0220972Y0182544D01*
X0220972Y0184913D01*
X0220738Y0184913D01*
X0220972Y0184374D02*
X0220972Y0184374D01*
X0222491Y0184374D02*
X0224142Y0184374D01*
X0224142Y0186774D02*
X0213242Y0186774D01*
X0213242Y0184374D02*
X0219452Y0184374D01*
X0220742Y0182544D02*
X0220742Y0182544D01*
X0220972Y0181974D02*
X0220972Y0181974D01*
X0220742Y0180176D02*
X0220742Y0092297D01*
X0222001Y0093174D02*
X0215683Y0093174D01*
X0215942Y0093067D02*
X0215942Y0202463D01*
X0214831Y0203574D02*
X0202042Y0203574D01*
X0202042Y0205974D02*
X0212431Y0205974D01*
X0211142Y0206388D02*
X0211142Y0191074D01*
X0208742Y0191074D02*
X0208742Y0206022D01*
X0213542Y0204863D02*
X0213542Y0093574D01*
X0212001Y0093174D02*
X0195322Y0093174D01*
X0194342Y0093574D02*
X0194342Y0164093D01*
X0195992Y0165174D02*
X0197642Y0165174D01*
X0197642Y0167574D02*
X0196263Y0167574D01*
X0196042Y0169974D02*
X0197642Y0169974D01*
X0197642Y0172374D02*
X0196042Y0172374D01*
X0196042Y0174774D02*
X0197642Y0174774D01*
X0197642Y0177174D02*
X0196042Y0177174D01*
X0196042Y0179574D02*
X0197642Y0179574D01*
X0197642Y0181974D02*
X0196042Y0181974D01*
X0196042Y0184374D02*
X0197642Y0184374D01*
X0197642Y0186774D02*
X0196042Y0186774D01*
X0196042Y0189174D02*
X0197642Y0189174D01*
X0197642Y0191574D02*
X0196042Y0191574D01*
X0196042Y0193974D02*
X0197642Y0193974D01*
X0197642Y0196374D02*
X0196042Y0196374D01*
X0196042Y0198774D02*
X0197642Y0198774D01*
X0197642Y0201174D02*
X0196042Y0201174D01*
X0196042Y0203574D02*
X0197642Y0203574D01*
X0197642Y0205974D02*
X0196042Y0205974D01*
X0194450Y0210774D02*
X0194139Y0210774D01*
X0193583Y0213174D02*
X0195006Y0213174D01*
X0203583Y0213174D02*
X0205006Y0213174D01*
X0203942Y0212308D02*
X0203942Y0214463D01*
X0204139Y0210774D02*
X0204450Y0210774D01*
X0196742Y0220467D02*
X0196742Y0221267D01*
X0227942Y0216183D02*
X0227942Y0215551D01*
X0232742Y0214271D02*
X0232742Y0217462D01*
X0233253Y0217974D02*
X0235336Y0217974D01*
X0235142Y0218232D02*
X0235142Y0213502D01*
X0235006Y0213174D02*
X0233583Y0213174D01*
X0234139Y0210774D02*
X0234450Y0210774D01*
X0235083Y0208374D02*
X0233506Y0208374D01*
X0237542Y0215385D02*
X0237542Y0216349D01*
X0234450Y0220374D02*
X0234139Y0220374D01*
X0233749Y0222774D02*
X0234840Y0222774D01*
X0235142Y0223502D02*
X0235142Y0230215D01*
X0237542Y0230215D02*
X0237542Y0225385D01*
X0237033Y0225174D02*
X0231557Y0225174D01*
X0230342Y0225677D02*
X0230342Y0230215D01*
X0232742Y0230215D02*
X0232742Y0224271D01*
X0239942Y0225712D02*
X0239942Y0230215D01*
X0242342Y0230215D02*
X0242342Y0224671D01*
X0241557Y0225174D02*
X0247033Y0225174D01*
X0247142Y0225219D02*
X0247142Y0230215D01*
X0249542Y0230215D02*
X0249542Y0225712D01*
X0250258Y0225712D02*
X0248331Y0225712D01*
X0246550Y0224974D01*
X0245187Y0223611D01*
X0244450Y0221831D01*
X0244450Y0219903D01*
X0245187Y0218123D01*
X0246550Y0216760D01*
X0248331Y0216022D01*
X0250258Y0216022D01*
X0252039Y0216760D01*
X0253402Y0218123D01*
X0254139Y0219903D01*
X0254139Y0221831D01*
X0253402Y0223611D01*
X0252039Y0224974D01*
X0250258Y0225712D01*
X0251557Y0225174D02*
X0254342Y0225174D01*
X0254342Y0222774D02*
X0253749Y0222774D01*
X0254139Y0220374D02*
X0254342Y0220374D01*
X0254342Y0217974D02*
X0253253Y0217974D01*
X0251942Y0216719D02*
X0251942Y0214669D01*
X0249695Y0213174D02*
X0248895Y0213174D01*
X0249542Y0211267D02*
X0249542Y0216022D01*
X0247142Y0216515D02*
X0247142Y0214969D01*
X0245271Y0213174D02*
X0243583Y0213174D01*
X0244742Y0211734D02*
X0244742Y0219198D01*
X0244450Y0220374D02*
X0244139Y0220374D01*
X0244742Y0222536D02*
X0244742Y0230215D01*
X0251942Y0230215D02*
X0251942Y0225014D01*
X0245336Y0217974D02*
X0243253Y0217974D01*
X0242342Y0217062D02*
X0242342Y0214671D01*
X0244742Y0211267D02*
X0244742Y0210467D01*
X0244668Y0210467D02*
X0244776Y0209782D01*
X0245002Y0209089D01*
X0245333Y0208439D01*
X0245761Y0207849D01*
X0246277Y0207334D01*
X0246867Y0206905D01*
X0247516Y0206574D01*
X0248210Y0206349D01*
X0248895Y0206240D01*
X0248895Y0210467D01*
X0244668Y0210467D01*
X0244742Y0210000D02*
X0244742Y0093574D01*
X0247142Y0093574D02*
X0247142Y0206765D01*
X0248895Y0208374D02*
X0249695Y0208374D01*
X0248895Y0210774D02*
X0244139Y0210774D01*
X0243506Y0208374D02*
X0245380Y0208374D01*
X0247142Y0210467D02*
X0247142Y0211267D01*
X0244840Y0222774D02*
X0243749Y0222774D01*
X0231542Y0198774D02*
X0280847Y0198774D01*
X0280847Y0196374D02*
X0231542Y0196374D01*
X0231542Y0193974D02*
X0280847Y0193974D01*
X0280847Y0191574D02*
X0231542Y0191574D01*
X0231542Y0189174D02*
X0280847Y0189174D01*
X0280847Y0186774D02*
X0231542Y0186774D01*
X0231542Y0184374D02*
X0280847Y0184374D01*
X0280847Y0181974D02*
X0231542Y0181974D01*
X0231542Y0179574D02*
X0280847Y0179574D01*
X0280847Y0177174D02*
X0231542Y0177174D01*
X0231542Y0174774D02*
X0280847Y0174774D01*
X0280847Y0172374D02*
X0231542Y0172374D01*
X0231542Y0169974D02*
X0280847Y0169974D01*
X0280847Y0167574D02*
X0231542Y0167574D01*
X0231542Y0165174D02*
X0280847Y0165174D01*
X0280847Y0162774D02*
X0231542Y0162774D01*
X0231542Y0160374D02*
X0280847Y0160374D01*
X0280847Y0157974D02*
X0231542Y0157974D01*
X0231542Y0155574D02*
X0280847Y0155574D01*
X0280847Y0153174D02*
X0231542Y0153174D01*
X0231542Y0150774D02*
X0280847Y0150774D01*
X0280847Y0148374D02*
X0231542Y0148374D01*
X0231542Y0145974D02*
X0280847Y0145974D01*
X0280847Y0143574D02*
X0231542Y0143574D01*
X0231542Y0141174D02*
X0280847Y0141174D01*
X0280847Y0138774D02*
X0231542Y0138774D01*
X0231542Y0136374D02*
X0280847Y0136374D01*
X0280847Y0133974D02*
X0231542Y0133974D01*
X0231542Y0131574D02*
X0280847Y0131574D01*
X0280847Y0129174D02*
X0231542Y0129174D01*
X0231542Y0126774D02*
X0280847Y0126774D01*
X0280847Y0124374D02*
X0231542Y0124374D01*
X0231542Y0121974D02*
X0280847Y0121974D01*
X0280847Y0119574D02*
X0231542Y0119574D01*
X0231542Y0117174D02*
X0280847Y0117174D01*
X0280847Y0114774D02*
X0231542Y0114774D01*
X0231542Y0112374D02*
X0280847Y0112374D01*
X0280847Y0109974D02*
X0231542Y0109974D01*
X0231542Y0107574D02*
X0280847Y0107574D01*
X0280847Y0105174D02*
X0231542Y0105174D01*
X0231542Y0102774D02*
X0280847Y0102774D01*
X0280847Y0100374D02*
X0231542Y0100374D01*
X0231542Y0097974D02*
X0280847Y0097974D01*
X0280847Y0095574D02*
X0231542Y0095574D01*
X0224142Y0102774D02*
X0210390Y0102774D01*
X0211142Y0103169D02*
X0211142Y0092697D01*
X0217942Y0090774D02*
X0219742Y0090774D01*
X0209242Y0102774D02*
X0208442Y0102774D01*
X0208442Y0105174D02*
X0209242Y0105174D01*
X0211142Y0106274D02*
X0211142Y0107074D01*
X0212939Y0107574D02*
X0224142Y0107574D01*
X0224142Y0105174D02*
X0212757Y0105174D01*
X0211424Y0109974D02*
X0224142Y0109974D01*
X0224142Y0112374D02*
X0209958Y0112374D01*
X0211142Y0112864D02*
X0211142Y0110179D01*
X0209242Y0109974D02*
X0208442Y0109974D01*
X0212817Y0114774D02*
X0224142Y0114774D01*
X0224142Y0117174D02*
X0213242Y0117174D01*
X0208742Y0121074D02*
X0208742Y0122274D01*
X0208742Y0131074D02*
X0208742Y0136274D01*
X0208442Y0136274D02*
X0209242Y0136274D01*
X0209242Y0137074D01*
X0213018Y0137074D01*
X0212926Y0137655D01*
X0212722Y0138281D01*
X0212423Y0138869D01*
X0212036Y0139402D01*
X0211570Y0139868D01*
X0211036Y0140255D01*
X0210449Y0140555D01*
X0209822Y0140758D01*
X0209242Y0140850D01*
X0209242Y0137074D01*
X0208442Y0137074D01*
X0208442Y0140850D01*
X0207861Y0140758D01*
X0207234Y0140555D01*
X0206647Y0140255D01*
X0206114Y0139868D01*
X0205648Y0139402D01*
X0205260Y0138869D01*
X0204961Y0138281D01*
X0204758Y0137655D01*
X0204666Y0137074D01*
X0208442Y0137074D01*
X0208442Y0136274D01*
X0208442Y0132498D01*
X0207861Y0132590D01*
X0207234Y0132793D01*
X0206647Y0133093D01*
X0206114Y0133480D01*
X0205648Y0133946D01*
X0205260Y0134479D01*
X0204961Y0135067D01*
X0204758Y0135693D01*
X0204666Y0136274D01*
X0208442Y0136274D01*
X0208442Y0136374D02*
X0202042Y0136374D01*
X0202042Y0133974D02*
X0205628Y0133974D01*
X0206342Y0133314D02*
X0206342Y0131074D01*
X0209242Y0132498D02*
X0209822Y0132590D01*
X0210449Y0132793D01*
X0211036Y0133093D01*
X0211570Y0133480D01*
X0212036Y0133946D01*
X0212423Y0134479D01*
X0212722Y0135067D01*
X0212926Y0135693D01*
X0213018Y0136274D01*
X0209242Y0136274D01*
X0209242Y0132498D01*
X0209242Y0133974D02*
X0208442Y0133974D01*
X0209242Y0136374D02*
X0224142Y0136374D01*
X0224142Y0133974D02*
X0212056Y0133974D01*
X0211142Y0133169D02*
X0211142Y0131074D01*
X0211142Y0136274D02*
X0211142Y0137074D01*
X0212471Y0138774D02*
X0224142Y0138774D01*
X0224142Y0141174D02*
X0202042Y0141174D01*
X0202042Y0138774D02*
X0205212Y0138774D01*
X0206342Y0140034D02*
X0206342Y0142951D01*
X0206349Y0142944D02*
X0207967Y0142274D01*
X0209717Y0142274D01*
X0211334Y0142944D01*
X0212572Y0144182D01*
X0213242Y0145799D01*
X0213242Y0147549D01*
X0212572Y0149166D01*
X0211334Y0150404D01*
X0209717Y0151074D01*
X0207967Y0151074D01*
X0206349Y0150404D01*
X0205112Y0149166D01*
X0204442Y0147549D01*
X0204442Y0145799D01*
X0205112Y0144182D01*
X0206349Y0142944D01*
X0205719Y0143574D02*
X0202042Y0143574D01*
X0202042Y0145974D02*
X0204442Y0145974D01*
X0204783Y0148374D02*
X0202042Y0148374D01*
X0202042Y0150774D02*
X0207242Y0150774D01*
X0206342Y0150397D02*
X0206342Y0152274D01*
X0205262Y0152274D02*
X0212422Y0152274D01*
X0213242Y0153094D01*
X0213242Y0160254D01*
X0212422Y0161074D01*
X0205262Y0161074D01*
X0204442Y0160254D01*
X0204442Y0153094D01*
X0205262Y0152274D01*
X0204442Y0153174D02*
X0202042Y0153174D01*
X0202042Y0155574D02*
X0204442Y0155574D01*
X0204442Y0157974D02*
X0202042Y0157974D01*
X0202042Y0160374D02*
X0204562Y0160374D01*
X0206342Y0161074D02*
X0206342Y0163314D01*
X0206114Y0163480D02*
X0206647Y0163093D01*
X0207234Y0162793D01*
X0207861Y0162590D01*
X0208442Y0162498D01*
X0208442Y0166274D01*
X0209242Y0166274D01*
X0209242Y0167074D01*
X0213018Y0167074D01*
X0212926Y0167655D01*
X0212722Y0168281D01*
X0212423Y0168869D01*
X0212036Y0169402D01*
X0211570Y0169868D01*
X0211036Y0170255D01*
X0210449Y0170555D01*
X0209822Y0170758D01*
X0209242Y0170850D01*
X0209242Y0167074D01*
X0208442Y0167074D01*
X0208442Y0170850D01*
X0207861Y0170758D01*
X0207234Y0170555D01*
X0206647Y0170255D01*
X0206114Y0169868D01*
X0205648Y0169402D01*
X0205260Y0168869D01*
X0204961Y0168281D01*
X0204758Y0167655D01*
X0204666Y0167074D01*
X0208442Y0167074D01*
X0208442Y0166274D01*
X0204666Y0166274D01*
X0204758Y0165693D01*
X0204961Y0165067D01*
X0205260Y0164479D01*
X0205648Y0163946D01*
X0206114Y0163480D01*
X0207294Y0162774D02*
X0202042Y0162774D01*
X0202042Y0165174D02*
X0204926Y0165174D01*
X0206342Y0166274D02*
X0206342Y0167074D01*
X0204745Y0167574D02*
X0202042Y0167574D01*
X0202042Y0169974D02*
X0206260Y0169974D01*
X0206342Y0170034D02*
X0206342Y0172951D01*
X0206349Y0172944D02*
X0207967Y0172274D01*
X0209717Y0172274D01*
X0211334Y0172944D01*
X0212572Y0174182D01*
X0213242Y0175799D01*
X0213242Y0177549D01*
X0212572Y0179166D01*
X0211334Y0180404D01*
X0209717Y0181074D01*
X0207967Y0181074D01*
X0206349Y0180404D01*
X0205112Y0179166D01*
X0204442Y0177549D01*
X0204442Y0175799D01*
X0205112Y0174182D01*
X0206349Y0172944D01*
X0207725Y0172374D02*
X0202042Y0172374D01*
X0202042Y0174774D02*
X0204866Y0174774D01*
X0204442Y0177174D02*
X0202042Y0177174D01*
X0202042Y0179574D02*
X0205519Y0179574D01*
X0206342Y0180397D02*
X0206342Y0182274D01*
X0208742Y0182274D02*
X0208742Y0181074D01*
X0211142Y0180484D02*
X0211142Y0182274D01*
X0212164Y0179574D02*
X0224142Y0179574D01*
X0224142Y0177174D02*
X0213242Y0177174D01*
X0212817Y0174774D02*
X0224142Y0174774D01*
X0224142Y0172374D02*
X0209958Y0172374D01*
X0208742Y0172274D02*
X0208742Y0167074D01*
X0208442Y0167574D02*
X0209242Y0167574D01*
X0209242Y0166274D02*
X0213018Y0166274D01*
X0212926Y0165693D01*
X0212722Y0165067D01*
X0212423Y0164479D01*
X0212036Y0163946D01*
X0211570Y0163480D01*
X0211036Y0163093D01*
X0210449Y0162793D01*
X0209822Y0162590D01*
X0209242Y0162498D01*
X0209242Y0166274D01*
X0208742Y0166274D02*
X0208742Y0161074D01*
X0208442Y0162774D02*
X0209242Y0162774D01*
X0210390Y0162774D02*
X0224142Y0162774D01*
X0224142Y0160374D02*
X0213122Y0160374D01*
X0211142Y0161074D02*
X0211142Y0163169D01*
X0212757Y0165174D02*
X0224142Y0165174D01*
X0224142Y0167574D02*
X0212939Y0167574D01*
X0211142Y0167074D02*
X0211142Y0166274D01*
X0209242Y0165174D02*
X0208442Y0165174D01*
X0208442Y0169974D02*
X0209242Y0169974D01*
X0211142Y0170179D02*
X0211142Y0172864D01*
X0211424Y0169974D02*
X0224142Y0169974D01*
X0218670Y0181974D02*
X0202042Y0181974D01*
X0202042Y0184374D02*
X0204442Y0184374D01*
X0204442Y0186774D02*
X0202042Y0186774D01*
X0213242Y0189174D02*
X0224142Y0189174D01*
X0224142Y0157974D02*
X0213242Y0157974D01*
X0213242Y0155574D02*
X0224142Y0155574D01*
X0224142Y0153174D02*
X0213242Y0153174D01*
X0211142Y0152274D02*
X0211142Y0150484D01*
X0210441Y0150774D02*
X0224142Y0150774D01*
X0224142Y0148374D02*
X0212900Y0148374D01*
X0213242Y0145974D02*
X0224142Y0145974D01*
X0224142Y0143574D02*
X0211964Y0143574D01*
X0211142Y0142864D02*
X0211142Y0140179D01*
X0209242Y0138774D02*
X0208442Y0138774D01*
X0208742Y0137074D02*
X0208742Y0142274D01*
X0206342Y0137074D02*
X0206342Y0136274D01*
X0208742Y0151074D02*
X0208742Y0152274D01*
X0184742Y0191593D02*
X0184742Y0091997D01*
X0185442Y0090774D02*
X0186942Y0090774D01*
X0186942Y0088374D02*
X0185742Y0088374D01*
X0171742Y0093174D02*
X0170942Y0093174D01*
X0171342Y0105174D02*
X0171342Y0105174D01*
X0158342Y0123674D02*
X0158342Y0123674D01*
X0155342Y0145974D02*
X0155342Y0145974D01*
X0118342Y0165174D02*
X0116757Y0165174D01*
X0115142Y0166274D02*
X0115142Y0167074D01*
X0116939Y0167574D02*
X0118342Y0167574D01*
X0113242Y0167574D02*
X0112442Y0167574D01*
X0110342Y0167074D02*
X0110342Y0166274D01*
X0108926Y0165174D02*
X0085542Y0165174D01*
X0086342Y0163824D02*
X0086342Y0192063D01*
X0093542Y0208330D02*
X0093542Y0208460D01*
X0093506Y0208374D02*
X0095380Y0208374D01*
X0095942Y0210467D02*
X0095942Y0211267D01*
X0094139Y0210774D02*
X0098895Y0210774D01*
X0098342Y0210467D02*
X0098342Y0211267D01*
X0103209Y0208374D02*
X0103931Y0208374D01*
X0107942Y0215551D02*
X0107942Y0216183D01*
X0117542Y0220467D02*
X0117542Y0221267D01*
X0122342Y0224371D02*
X0122342Y0224474D01*
X0123522Y0222774D02*
X0124840Y0222774D01*
X0124742Y0222536D02*
X0124742Y0224474D01*
X0164139Y0210774D02*
X0164450Y0210774D01*
X0113242Y0169974D02*
X0112442Y0169974D01*
X0108745Y0167574D02*
X0085542Y0167574D01*
X0085542Y0162774D02*
X0085797Y0162774D01*
X0086342Y0160524D02*
X0086342Y0140104D01*
X0086292Y0138774D02*
X0083392Y0138774D01*
X0083392Y0136374D02*
X0086292Y0136374D01*
X0086342Y0134244D02*
X0086342Y0134104D01*
X0086292Y0133974D02*
X0083392Y0133974D01*
X0083392Y0131574D02*
X0086292Y0131574D01*
X0086292Y0129174D02*
X0083392Y0129174D01*
X0081542Y0140874D02*
X0081542Y0152824D01*
X0081192Y0153174D02*
X0081042Y0153174D01*
X0081042Y0150774D02*
X0107142Y0150774D01*
X0107142Y0148374D02*
X0081042Y0148374D01*
X0081042Y0145974D02*
X0107142Y0145974D01*
X0107142Y0143574D02*
X0105553Y0143574D01*
X0105542Y0143585D02*
X0105542Y0154863D01*
X0104831Y0155574D02*
X0085763Y0155574D01*
X0085542Y0157974D02*
X0102431Y0157974D01*
X0103142Y0157263D02*
X0103142Y0145374D01*
X0100742Y0145374D02*
X0100742Y0159663D01*
X0098342Y0159974D02*
X0098342Y0145374D01*
X0095942Y0145374D02*
X0095942Y0159974D01*
X0093542Y0159974D02*
X0093542Y0145374D01*
X0091142Y0145374D02*
X0091142Y0159974D01*
X0088742Y0159593D02*
X0088742Y0145719D01*
X0086761Y0143574D02*
X0081042Y0143574D01*
X0081042Y0141174D02*
X0087692Y0141174D01*
X0086492Y0160374D02*
X0085542Y0160374D01*
X0069142Y0165174D02*
X0060542Y0165174D01*
X0060542Y0167574D02*
X0069142Y0167574D01*
X0112442Y0165174D02*
X0113242Y0165174D01*
X0113242Y0162774D02*
X0112442Y0162774D01*
X0035942Y0073161D02*
X0035942Y0072595D01*
X0033542Y0072595D02*
X0033542Y0073161D01*
X0064112Y0028374D02*
X0064887Y0028374D01*
X0064742Y0025125D02*
X0064742Y0016373D01*
X0064741Y0016374D02*
X0083942Y0016374D01*
X0086342Y0015283D02*
X0086342Y0014483D01*
X0087721Y0016374D02*
X0088521Y0016374D01*
X0088742Y0015283D02*
X0088742Y0014483D01*
X0086342Y0010811D02*
X0086342Y0010574D01*
X0085157Y0011574D02*
X0063526Y0011574D01*
X0062342Y0010811D02*
X0062342Y0010574D01*
X0062342Y0014483D02*
X0062342Y0015283D01*
X0064742Y0015283D02*
X0064742Y0014483D01*
X0062695Y0018774D02*
X0085989Y0018774D01*
X0084572Y0023574D02*
X0083797Y0023574D01*
X0081542Y0025125D02*
X0081542Y0025900D01*
X0080657Y0025974D02*
X0068027Y0025974D01*
X0067142Y0025900D02*
X0067142Y0025125D01*
X0064887Y0023574D02*
X0064112Y0023574D01*
X0062342Y0022685D02*
X0062342Y0018954D01*
X0061526Y0023574D02*
X0054342Y0023574D01*
X0083797Y0028374D02*
X0084572Y0028374D01*
X0086342Y0025900D02*
X0086342Y0025125D01*
X0087712Y0025974D02*
X0097773Y0025974D01*
X0098342Y0026794D02*
X0098342Y0068174D01*
X0112742Y0066867D02*
X0112742Y0065574D01*
X0112967Y0066774D02*
X0114717Y0066774D01*
X0115142Y0066950D02*
X0115142Y0065574D01*
X0119942Y0018493D02*
X0119942Y0010574D01*
X0117542Y0010574D02*
X0117542Y0017474D01*
X0115142Y0017593D02*
X0115142Y0010574D01*
X0103142Y0010574D02*
X0103142Y0017474D01*
X0100742Y0017850D02*
X0100742Y0010574D01*
X0083942Y0010574D02*
X0083942Y0013393D01*
X0247822Y0093174D02*
X0280847Y0093174D01*
X0280847Y0090774D02*
X0248242Y0090774D01*
X0248242Y0088374D02*
X0280847Y0088374D01*
D20*
X0199842Y0123174D03*
X0171342Y0106674D03*
X0155342Y0106174D03*
X0142842Y0093674D03*
X0131342Y0092174D03*
X0146842Y0081174D03*
X0152842Y0070674D03*
X0152842Y0054174D03*
X0137342Y0054174D03*
X0109342Y0099701D03*
X0106342Y0099174D03*
X0103342Y0107674D03*
X0093342Y0107674D03*
X0083342Y0107174D03*
X0077842Y0107174D03*
X0074842Y0101174D03*
X0067342Y0107174D03*
X0068342Y0121674D03*
X0064842Y0121674D03*
X0053342Y0122174D03*
X0083342Y0125174D03*
X0083342Y0118674D03*
X0103342Y0121674D03*
X0101842Y0136674D03*
X0089342Y0143174D03*
X0083342Y0154674D03*
X0088342Y0162174D03*
X0068342Y0171674D03*
X0058342Y0163174D03*
X0083342Y0181174D03*
X0099295Y0198174D03*
X0155342Y0144174D03*
X0160342Y0123674D03*
X0131592Y0115424D03*
X0121342Y0114174D03*
X0074342Y0091894D03*
X0061342Y0054174D03*
X0193842Y0166674D03*
X0220972Y0182544D03*
X0184342Y0194174D03*
X0167342Y0201674D03*
D21*
X0139295Y0210867D02*
X0139295Y0122221D01*
X0155342Y0106174D01*
X0142842Y0093674D01*
X0121342Y0078674D02*
X0121342Y0114174D01*
X0121342Y0178174D01*
X0112842Y0186674D01*
X0099342Y0180174D02*
X0099342Y0198127D01*
X0099295Y0198174D01*
X0099342Y0180174D02*
X0112842Y0166674D01*
X0155342Y0144174D02*
X0160342Y0139174D01*
X0160342Y0123674D01*
X0171342Y0112674D01*
X0171342Y0106674D01*
X0171342Y0089174D01*
X0155092Y0072924D01*
X0152842Y0070674D01*
X0152842Y0054174D01*
X0137342Y0054174D01*
X0137342Y0030174D01*
X0130342Y0023174D01*
X0113842Y0071174D02*
X0078342Y0071174D01*
X0061342Y0054174D01*
X0113842Y0071174D02*
X0121342Y0078674D01*
X0208842Y0106674D02*
X0216842Y0114674D01*
X0216842Y0136674D01*
X0208842Y0136674D01*
X0216842Y0136674D02*
X0216842Y0166674D01*
X0208842Y0166674D01*
X0216842Y0166674D02*
X0216842Y0178414D01*
X0220972Y0182544D01*
D22*
X0226342Y0195174D02*
X0214032Y0207484D01*
X0214032Y0212829D01*
X0211257Y0215604D01*
X0205912Y0215604D01*
X0204032Y0217484D01*
X0204032Y0222829D01*
X0200187Y0226674D01*
X0085842Y0226674D01*
X0084342Y0225174D01*
X0084342Y0215914D01*
X0079295Y0210867D01*
X0068342Y0199914D01*
X0068342Y0171674D01*
X0058342Y0163174D02*
X0058342Y0199914D01*
X0069295Y0210867D01*
X0074342Y0215914D01*
X0074342Y0223674D01*
X0079842Y0229174D01*
X0208342Y0229174D01*
X0214092Y0223424D01*
X0214092Y0218978D01*
X0217342Y0215728D01*
X0221133Y0215728D01*
X0224032Y0212829D01*
X0224032Y0203484D01*
X0229342Y0198174D01*
X0229342Y0088174D01*
X0224342Y0083174D01*
X0219842Y0083174D01*
X0213842Y0089174D01*
X0223842Y0089174D02*
X0226342Y0091674D01*
X0226342Y0195174D01*
X0199842Y0210320D02*
X0199295Y0210867D01*
X0199842Y0210320D02*
X0199842Y0123174D01*
X0193842Y0166674D02*
X0193842Y0206320D01*
X0189295Y0210867D01*
X0184342Y0215914D02*
X0189295Y0220867D01*
X0184342Y0215914D02*
X0184342Y0194174D01*
X0167342Y0201674D02*
X0162886Y0206130D01*
X0157332Y0206130D01*
X0154558Y0208905D01*
X0154558Y0214458D01*
X0149295Y0219721D01*
X0149295Y0220867D01*
X0144558Y0216130D01*
X0124032Y0216130D01*
X0119295Y0220867D01*
X0119295Y0210867D02*
X0116035Y0210867D01*
X0108842Y0203674D01*
X0091842Y0203674D01*
X0091342Y0203674D01*
X0074342Y0186674D01*
X0074342Y0149174D01*
X0066842Y0141674D01*
X0066842Y0137174D01*
X0066842Y0131174D02*
X0066842Y0123674D01*
X0064842Y0121674D01*
X0068342Y0121674D02*
X0069342Y0121674D01*
X0078842Y0131174D01*
X0078842Y0137174D02*
X0078842Y0187674D01*
X0092342Y0201174D01*
X0110842Y0201174D01*
X0115798Y0206130D01*
X0124298Y0206130D01*
X0129035Y0210867D01*
X0129295Y0210867D01*
X0109295Y0210867D02*
X0109295Y0210627D01*
X0104798Y0206130D01*
X0090298Y0206130D01*
X0071342Y0187174D01*
X0071342Y0152674D01*
X0055842Y0137174D01*
X0055842Y0131174D02*
X0055842Y0126174D01*
X0053342Y0123674D01*
X0053342Y0122174D01*
X0066842Y0125174D02*
X0066842Y0131174D01*
X0083342Y0125174D02*
X0083342Y0118674D01*
X0083342Y0107174D02*
X0077342Y0101174D01*
X0074842Y0101174D01*
X0077842Y0107174D02*
X0067342Y0107174D01*
X0074342Y0091894D02*
X0082871Y0100424D01*
X0085592Y0100424D01*
X0092842Y0107674D01*
X0093342Y0107674D01*
X0103342Y0107674D01*
X0106342Y0099174D02*
X0106342Y0139674D01*
X0102842Y0143174D01*
X0089342Y0143174D01*
X0090842Y0137174D02*
X0094800Y0136716D01*
X0095477Y0136716D01*
X0095519Y0136674D01*
X0101842Y0136674D01*
X0094342Y0130674D02*
X0090842Y0131174D01*
X0094342Y0130674D02*
X0103342Y0121674D01*
X0108842Y0100201D02*
X0109342Y0099701D01*
X0109342Y0154174D01*
X0101342Y0162174D01*
X0088342Y0162174D01*
X0083342Y0154674D02*
X0083342Y0181174D01*
X0131592Y0115424D02*
X0131342Y0115174D01*
X0131342Y0092174D01*
X0146842Y0081174D02*
X0155092Y0072924D01*
M02*
