G75*
%MOIN*%
%OFA0B0*%
%FSLAX25Y25*%
%IPPOS*%
%LPD*%
%AMOC8*
5,1,8,0,0,1.08239X$1,22.5*
%
%ADD10R,0.04731X0.04337*%
%ADD11C,0.07290*%
%ADD12C,0.11424*%
%ADD13R,0.03400X0.04900*%
%ADD14R,0.01975X0.05321*%
%ADD15C,0.09000*%
%ADD16R,0.09061X0.02762*%
%ADD17R,0.05000X0.06700*%
%ADD18R,0.02900X0.01600*%
%ADD19C,0.01000*%
%ADD20R,0.10636X0.05912*%
%ADD21R,0.05124X0.05124*%
%ADD22R,0.04337X0.04731*%
%ADD23R,0.06400X0.06400*%
%ADD24C,0.06400*%
%ADD25R,0.01975X0.08274*%
%ADD26C,0.05124*%
%ADD27C,0.06896*%
D10*
X0062495Y0101174D03*
X0069188Y0101174D03*
X0111842Y0123328D03*
X0111842Y0130020D03*
X0159495Y0106174D03*
X0166188Y0106174D03*
X0130342Y0189828D03*
X0130342Y0196520D03*
X0171495Y0198674D03*
X0178188Y0198674D03*
D11*
X0179295Y0210867D03*
X0169295Y0210867D03*
X0169295Y0220867D03*
X0179295Y0220867D03*
X0189295Y0220867D03*
X0199295Y0220867D03*
X0209295Y0220867D03*
X0219295Y0220867D03*
X0229295Y0220867D03*
X0239295Y0220867D03*
X0249295Y0220867D03*
X0249295Y0210867D03*
X0239295Y0210867D03*
X0229295Y0210867D03*
X0219295Y0210867D03*
X0209295Y0210867D03*
X0199295Y0210867D03*
X0189295Y0210867D03*
X0159295Y0210867D03*
X0149295Y0210867D03*
X0139295Y0210867D03*
X0139295Y0220867D03*
X0149295Y0220867D03*
X0159295Y0220867D03*
X0129295Y0220867D03*
X0119295Y0220867D03*
X0109295Y0220867D03*
X0109295Y0210867D03*
X0119295Y0210867D03*
X0129295Y0210867D03*
X0099295Y0210867D03*
X0089295Y0210867D03*
X0089295Y0220867D03*
X0099295Y0220867D03*
X0079295Y0220867D03*
X0069295Y0220867D03*
X0059295Y0220867D03*
X0059295Y0210867D03*
X0069295Y0210867D03*
X0079295Y0210867D03*
D12*
X0040121Y0022954D03*
X0040121Y0215867D03*
X0268468Y0215867D03*
X0268468Y0022954D03*
D13*
X0103342Y0112474D03*
X0098342Y0112474D03*
X0093342Y0112474D03*
X0088342Y0112474D03*
X0083342Y0112474D03*
X0078342Y0112474D03*
X0073342Y0112474D03*
X0068342Y0112474D03*
X0063342Y0112474D03*
X0058342Y0112474D03*
X0058342Y0149974D03*
X0063342Y0149974D03*
X0068342Y0149974D03*
X0073342Y0149974D03*
X0078342Y0149974D03*
X0083342Y0149974D03*
X0088342Y0149974D03*
X0093342Y0149974D03*
X0098342Y0149974D03*
X0103342Y0149874D03*
D14*
X0131267Y0087946D03*
X0133826Y0087946D03*
X0136385Y0087946D03*
X0138944Y0087946D03*
X0141503Y0087946D03*
X0144062Y0087946D03*
X0146621Y0087946D03*
X0149180Y0087946D03*
X0151739Y0087946D03*
X0154298Y0087946D03*
X0156858Y0087946D03*
X0159417Y0087946D03*
X0159417Y0059402D03*
X0156858Y0059402D03*
X0154298Y0059402D03*
X0151739Y0059402D03*
X0149180Y0059402D03*
X0146621Y0059402D03*
X0144062Y0059402D03*
X0141503Y0059402D03*
X0138944Y0059402D03*
X0136385Y0059402D03*
X0133826Y0059402D03*
X0131267Y0059402D03*
D15*
X0130342Y0023174D03*
X0144121Y0023174D03*
X0157901Y0023174D03*
X0116562Y0023174D03*
X0102783Y0023174D03*
D16*
X0152606Y0173674D03*
X0152606Y0178674D03*
X0152606Y0183674D03*
X0152606Y0188674D03*
X0173078Y0188674D03*
X0173078Y0183674D03*
X0173078Y0178674D03*
X0173078Y0173674D03*
D17*
X0173342Y0157674D03*
X0167342Y0157674D03*
D18*
X0170342Y0157674D03*
D19*
X0165342Y0157952D02*
X0175342Y0157952D01*
X0175342Y0156954D02*
X0165342Y0156954D01*
X0165342Y0155955D02*
X0175342Y0155955D01*
X0175342Y0154957D02*
X0165342Y0154957D01*
X0165342Y0154674D02*
X0165342Y0160674D01*
X0175342Y0160674D01*
X0175342Y0154674D01*
X0165342Y0154674D01*
X0165342Y0158951D02*
X0175342Y0158951D01*
X0175342Y0159949D02*
X0165342Y0159949D01*
D20*
X0146413Y0150674D03*
X0130271Y0150674D03*
X0130271Y0123674D03*
X0146413Y0123674D03*
D21*
X0130342Y0172540D03*
X0130342Y0180808D03*
X0085976Y0045674D03*
X0077708Y0045674D03*
D22*
X0067688Y0045674D03*
X0060995Y0045674D03*
X0062590Y0091894D03*
X0069283Y0091894D03*
X0180995Y0171174D03*
X0187688Y0171174D03*
X0187688Y0180174D03*
X0180995Y0180174D03*
X0180995Y0189174D03*
X0187688Y0189174D03*
X0184495Y0145674D03*
X0191188Y0145674D03*
X0191188Y0136674D03*
X0184495Y0136674D03*
X0184495Y0127674D03*
X0191188Y0127674D03*
X0191188Y0118174D03*
X0184495Y0118174D03*
D23*
X0208842Y0126674D03*
X0208842Y0156674D03*
X0208842Y0186674D03*
X0112842Y0196674D03*
X0191342Y0089174D03*
X0243842Y0089174D03*
X0113842Y0061174D03*
D24*
X0113842Y0071174D03*
X0113842Y0081174D03*
X0171342Y0089174D03*
X0181342Y0089174D03*
X0208842Y0106674D03*
X0208842Y0116674D03*
X0208842Y0136674D03*
X0208842Y0146674D03*
X0208842Y0166674D03*
X0208842Y0176674D03*
X0112842Y0176674D03*
X0112842Y0166674D03*
X0112842Y0186674D03*
X0213842Y0089174D03*
X0223842Y0089174D03*
X0233842Y0089174D03*
D25*
X0079460Y0026694D03*
X0076901Y0026694D03*
X0074342Y0026694D03*
X0071783Y0026694D03*
X0069224Y0026694D03*
D26*
X0064499Y0025513D03*
X0084184Y0025513D03*
D27*
X0088121Y0014883D03*
X0060562Y0014883D03*
M02*
