%
M48
M72
T01C0.01378
T02C0.03150
T03C0.03937
T04C0.04000
T05C0.04331
T06C0.11024
%
T01
X61342Y54174
X74342Y91894
X74842Y101174
X77842Y107174
X83342Y107174
X93342Y107674
X103342Y107674
X106342Y99174
X109342Y99701
X121342Y114174
X131592Y115424
X142842Y93674
X131342Y92174
X146842Y81174
X152842Y70674
X152842Y54174
X137342Y54174
X155342Y106174
X171342Y106674
X160342Y123674
X155342Y144174
X193842Y166674
X220972Y182544
X184342Y194174
X167342Y201674
X99295Y198174
X83342Y181174
X68342Y171674
X58342Y163174
X83342Y154674
X88342Y162174
X89342Y143174
X101842Y136674
X103342Y121674
X83342Y118674
X83342Y125174
X68342Y121674
X64842Y121674
X53342Y122174
X67342Y107174
X199842Y123174
T02
X84184Y25513
X64499Y25513
T03
X102783Y23174
X116562Y23174
X130342Y23174
X144121Y23174
X157901Y23174
T04
X113842Y61174
X113842Y71174
X113842Y81174
X171342Y89174
X181342Y89174
X191342Y89174
X208842Y106674
X208842Y116674
X208842Y126674
X208842Y136674
X208842Y146674
X208842Y156674
X208842Y166674
X208842Y176674
X208842Y186674
X112842Y186674
X112842Y176674
X112842Y166674
X112842Y196674
X213842Y89174
X223842Y89174
X233842Y89174
X243842Y89174
T05
X239295Y210867
X249295Y210867
X249295Y220867
X239295Y220867
X229295Y220867
X219295Y220867
X219295Y210867
X229295Y210867
X209295Y210867
X199295Y210867
X189295Y210867
X189295Y220867
X199295Y220867
X209295Y220867
X179295Y220867
X169295Y220867
X169295Y210867
X179295Y210867
X159295Y210867
X149295Y210867
X139295Y210867
X139295Y220867
X149295Y220867
X159295Y220867
X129295Y220867
X119295Y220867
X109295Y220867
X109295Y210867
X119295Y210867
X129295Y210867
X99295Y210867
X89295Y210867
X89295Y220867
X99295Y220867
X79295Y220867
X69295Y220867
X59295Y220867
X59295Y210867
X69295Y210867
X79295Y210867
X88121Y14883
X60562Y14883
T06
X40121Y22954
X40121Y215867
X268468Y215867
X268468Y22954
M30
