M48
;Layer_Color=9474304
;FILE_FORMAT=4:4
METRIC,LZ
;TYPE=PLATED
T1F00S00C0.3000
T2F00S00C0.8001
T3F00S00C1.0000
T4F00S00C1.0160
T5F00S00C1.1000
T6F00S00C1.1001
T7F00S00C2.8001
%
T01
X0026416Y0039624
X0029591Y0039243
Y0037211
X00389219Y00334742
X0038862Y0030226
X004318Y0032512
X0039751Y0036068
X0042799Y0039243
X004445Y0038354
X0045974Y0037084
X0047498Y003683
Y0038354
X0049276Y003937
X0050038Y0036322
X0054102
X0056642Y003683
X0055626Y0039497
X0057277Y0040259
Y0042418
X0060833Y0042545
X006096Y0040259
X006858
X006731Y0042672
X0064389Y004699
X0061849Y0048895
X0062992Y005207
X0062484Y0054102
X0064643Y005461
X0065532Y0050292
X0068834Y0049657
X0070866Y0048514
X0073279Y0050419
X0073533Y0053213
X0074803Y0055753
X0074676Y0066294
X0069215Y0067945
X0068453Y0069469
X0064516Y0070104
X0064262Y0071501
X00644281Y0072898
X0062865Y0075946
X0067691Y0075819
X0072771Y0076581
X0072136Y0074168
X0074803
X0069215Y00635
X006731Y0062484
X006604Y0063627
X0066167Y0066421
X0063754Y006731
X0063373Y0069215
X0061468Y0066802
X0062103Y0063881
X0064262Y006096
X0066421Y0058801
X0062357Y005842
X0061214Y0058928
X0057404Y0058166
Y005715
X0055753
X0054356
X0052578Y0057658
X0050038Y0057912
X0049276Y0058674
X0048514Y005715
X0050546Y0056261
X0052705Y0054483
X0056515
X0056134Y0049911
X0057404Y0050292
X005715Y0047244
X0054737Y0049022
X0053467Y0050673
X0050546Y0051435
X0044958Y0051054
X0045974Y004699
X0047625Y0045847
X0047498Y004445
X0044323Y0045847
X0046228Y0056388
Y0061722
X0043307Y0059309
X00400812Y0064442
X0043307Y0067818
Y0070358
X0043688Y0072009
X0046101Y0069342
X0050673Y0069088
X005207Y0068834
X005334Y0066929
X0054864Y0066802
X005715Y0067056
X0057658Y0069215
X005461Y0071374
X0052832
X0050546Y0071882
X00508Y0062611
X0052451Y0063119
X0053594Y0064008
X0056134
X0057912Y0075438
X0041529
X0059982Y0052362
X0038608Y0065659
X0037211Y0064442
X0035814Y0065659
X00343132Y0064442
X003048Y006477
Y0076581
X0033274Y0076073
X0037973Y0075438
X0031242Y0044577
X0028321Y0045847
T02
X00350919Y00315501
X00400921
T03
X0045578Y0030988
X00490779
X0052578
X00560781
X0059578
T04
X0062738Y0038862
X006604
X0080645Y004772
X0078105
X0075565
X0073025
X0071755Y0052165
Y0054705
Y0057245
Y0059785
Y0062325
Y0064865
Y0067405
Y0069945
Y0072485
X0047371
Y0075025
Y0069945
Y0067405
X0062738Y0043942
Y0041402
X006604
Y0043942
T05
X006604Y0028702
X0033147Y0040513
X0032639Y0060325
T06
X00340919Y00288501
X00410921
X00794901Y007863
X00820301
X00769501
X00744101
X00718701
X00693301
X00667901
X00642501
X00617101
X00591701
X00566301
X00540901
X00515501
X00490101
X00464701
X00439301
X00413901
X00388501
X00363101
X00337701
Y008117
X00363101
X00388501
X00413901
X00439301
X00464701
X00490101
X00515501
X00540901
X00566301
X00591701
X00617101
X00642501
X00667901
X00693301
X00718701
X00744101
X00769501
X00794901
X00820301
T07
X00289001Y00309001
X00869
X00289001Y00799
X00869
M30
