G04 Layer_Color=255*
%FSLAX44Y44*%
%MOMM*%
%TF.FileFunction,Pads,Top*%
%TF.Part,Single*%
G01*
G75*
%TA.AperFunction,SMDPad,CuDef*%
%ADD10R,11.4300X8.8900*%
%ADD11R,2.0320X3.8100*%
G04:AMPARAMS|DCode=12|XSize=2.032mm|YSize=3.81mm|CornerRadius=0mm|HoleSize=0mm|Usage=FLASHONLY|Rotation=0.000|XOffset=0mm|YOffset=0mm|HoleType=Round|Shape=Octagon|*
%AMOCTAGOND12*
4,1,8,-0.5080,1.9050,0.5080,1.9050,1.0160,1.3970,1.0160,-1.3970,0.5080,-1.9050,-0.5080,-1.9050,-1.0160,-1.3970,-1.0160,1.3970,-0.5080,1.9050,0.0*
%
%ADD12OCTAGOND12*%

%ADD13R,1.8000X1.3000*%
%ADD14R,0.7620X1.1430*%
%ADD15R,1.3000X1.8000*%
%ADD16R,0.9000X0.8000*%
%ADD17R,1.0000X1.0000*%
%ADD18R,0.4001X2.0000*%
%ADD19R,1.1001X1.0000*%
%ADD20R,1.1001X1.0000*%
%ADD21R,1.1999X1.1999*%
%ADD22R,1.0000X1.1001*%
%ADD23R,2.1999X0.5999*%
%ADD24R,0.4001X1.2499*%
%TA.AperFunction,ComponentPad*%
%ADD33R,1.6000X1.6000*%
%ADD34C,1.2002*%
%ADD35C,1.6501*%
%ADD36R,1.5240X1.5240*%
%ADD37C,1.5240*%
%ADD38R,1.5240X1.5240*%
%ADD39C,2.1844*%
%ADD40R,1.7501X1.7501*%
%ADD41C,1.7501*%
%ADD42C,2.8001*%
D10*
X377016Y466388D02*
D03*
D11*
X351616Y580700D02*
D03*
D12*
X402416D02*
D03*
D13*
X459740Y383010D02*
D03*
Y412010D02*
D03*
X459740Y457730D02*
D03*
Y428730D02*
D03*
X358140Y644420D02*
D03*
Y615420D02*
D03*
X386080Y644420D02*
D03*
Y615420D02*
D03*
D14*
X535940Y558292D02*
D03*
X548640D02*
D03*
X561340D02*
D03*
X574040D02*
D03*
X586740D02*
D03*
X599440D02*
D03*
X612140D02*
D03*
X624840D02*
D03*
X637540D02*
D03*
X650240D02*
D03*
X637540Y653542D02*
D03*
X650240Y653288D02*
D03*
X624840Y653542D02*
D03*
X612140D02*
D03*
X599440D02*
D03*
X586740D02*
D03*
X574040D02*
D03*
X561340D02*
D03*
X548640D02*
D03*
X535940D02*
D03*
D15*
X535200Y490220D02*
D03*
X506200D02*
D03*
D16*
X438150Y409590D02*
D03*
Y395590D02*
D03*
D17*
X599820Y535940D02*
D03*
X583820D02*
D03*
D18*
X375920Y318501D02*
D03*
X382420D02*
D03*
X388920D02*
D03*
X369420D02*
D03*
X362920D02*
D03*
D19*
X693420Y612140D02*
D03*
Y595142D02*
D03*
Y666359D02*
D03*
Y649361D02*
D03*
Y707781D02*
D03*
Y724779D02*
D03*
X627380Y478399D02*
D03*
Y461401D02*
D03*
X660400Y478399D02*
D03*
Y461401D02*
D03*
X281940Y427599D02*
D03*
Y410601D02*
D03*
Y381879D02*
D03*
Y364881D02*
D03*
X670560Y557921D02*
D03*
Y574919D02*
D03*
D20*
X610479Y754380D02*
D03*
X593481D02*
D03*
X509661Y469900D02*
D03*
X526659D02*
D03*
X600319Y670560D02*
D03*
X583321D02*
D03*
D21*
X264160Y408600D02*
D03*
Y429600D02*
D03*
Y383880D02*
D03*
Y362880D02*
D03*
D22*
X671439Y701040D02*
D03*
X654441D02*
D03*
X671439Y718820D02*
D03*
X654441D02*
D03*
X671439Y736600D02*
D03*
X654441D02*
D03*
D23*
X575981Y727710D02*
D03*
X627979D02*
D03*
X575981Y740410D02*
D03*
Y715010D02*
D03*
Y702310D02*
D03*
X627979Y740410D02*
D03*
Y715010D02*
D03*
Y702310D02*
D03*
D24*
X484949Y375229D02*
D03*
X491449D02*
D03*
X497949D02*
D03*
X504449D02*
D03*
X510949D02*
D03*
X517449D02*
D03*
X523951D02*
D03*
X530451D02*
D03*
X536951D02*
D03*
X543451D02*
D03*
X549951D02*
D03*
X556451D02*
D03*
Y447731D02*
D03*
X549951D02*
D03*
X543451D02*
D03*
X536951D02*
D03*
X530451D02*
D03*
X523951D02*
D03*
X517449D02*
D03*
X510949D02*
D03*
X504449D02*
D03*
X497949D02*
D03*
X491449D02*
D03*
X484949D02*
D03*
D33*
X331470Y405130D02*
D03*
X660400Y287020D02*
D03*
X326390Y603250D02*
D03*
D34*
X400921Y315501D02*
D03*
X350919D02*
D03*
D35*
X340919Y288501D02*
D03*
X410921D02*
D03*
D36*
X806450Y477200D02*
D03*
D37*
X781050D02*
D03*
X755650D02*
D03*
X730250D02*
D03*
X717550Y547050D02*
D03*
Y521650D02*
D03*
Y623250D02*
D03*
Y597850D02*
D03*
Y699450D02*
D03*
Y674050D02*
D03*
X627380Y414020D02*
D03*
Y388620D02*
D03*
X660400Y414020D02*
D03*
Y388620D02*
D03*
X473710Y724850D02*
D03*
Y699450D02*
D03*
Y674050D02*
D03*
D38*
X717550Y572450D02*
D03*
Y648650D02*
D03*
Y724850D02*
D03*
X627380Y439420D02*
D03*
X660400D02*
D03*
X473710Y750250D02*
D03*
D39*
X595780Y309880D02*
D03*
X560781D02*
D03*
X525780D02*
D03*
X490779D02*
D03*
X455780D02*
D03*
D40*
X337701Y786300D02*
D03*
D41*
Y811700D02*
D03*
X363101Y786300D02*
D03*
Y811700D02*
D03*
X388501Y786300D02*
D03*
Y811700D02*
D03*
X413901Y786300D02*
D03*
Y811700D02*
D03*
X439301Y786300D02*
D03*
Y811700D02*
D03*
X464701Y786300D02*
D03*
Y811700D02*
D03*
X490101Y786300D02*
D03*
Y811700D02*
D03*
X515501Y786300D02*
D03*
Y811700D02*
D03*
X540901Y786300D02*
D03*
Y811700D02*
D03*
X566301Y786300D02*
D03*
Y811700D02*
D03*
X591701Y786300D02*
D03*
Y811700D02*
D03*
X617101Y786300D02*
D03*
Y811700D02*
D03*
X642501Y786300D02*
D03*
Y811700D02*
D03*
X667901Y786300D02*
D03*
Y811700D02*
D03*
X693301Y786300D02*
D03*
Y811700D02*
D03*
X718701Y786300D02*
D03*
Y811700D02*
D03*
X744101Y786300D02*
D03*
Y811700D02*
D03*
X769501Y786300D02*
D03*
Y811700D02*
D03*
X794901Y786300D02*
D03*
Y811700D02*
D03*
X820301Y786300D02*
D03*
Y811700D02*
D03*
D42*
X289001Y309001D02*
D03*
X869000Y799000D02*
D03*
Y309001D02*
D03*
X289001Y799000D02*
D03*
%TF.MD5,5546f484e4dd02358aa1efa0c1315b20*%
M02*
