G04 Layer_Color=8388736*
%FSLAX44Y44*%
%MOMM*%
%TF.FileFunction,Other,Mechanical_2*%
%TF.Part,Single*%
G01*
G75*
%TA.AperFunction,NonConductor*%
%ADD53C,0.1270*%
D53*
X252730Y647700D02*
G03*
X262890Y638810I9525J635D01*
G01*
X303530Y628650D02*
G03*
X293370Y638810I-10160J0D01*
G01*
Y468630D02*
G03*
X303530Y478790I0J10160D01*
G01*
X262890Y468630D02*
G03*
X252730Y459740I-635J-9525D01*
G01*
X252754Y308081D02*
G03*
X287213Y273622I34459J0D01*
G01*
X682491Y273692D02*
G03*
X693349Y285821I-635J11493D01*
G01*
X713740Y285750D02*
G03*
X724598Y273622I11493J-635D01*
G01*
X870788D02*
G03*
X905248Y308081I0J34459D01*
G01*
X713811Y463479D02*
G03*
X693349Y463479I-10231J0D01*
G01*
X905271Y799000D02*
G03*
X869000Y839470I-38370J2100D01*
G01*
X289001D02*
G03*
X252730Y799000I2100J-38370D01*
G01*
X252730Y647700D02*
Y799000D01*
Y308105D02*
Y459740D01*
X303530Y478790D02*
Y628650D01*
X262890Y638810D02*
X293370D01*
X262890Y468630D02*
X293370D01*
X286378Y273692D02*
X682491D01*
X724598Y273622D02*
X870788D01*
X713740Y285750D02*
Y463409D01*
X693349Y285821D02*
Y463479D01*
X905271Y308081D02*
Y799000D01*
X289001Y839470D02*
X869000D01*
%TF.MD5,b62ddcac105c6b43d5cac1443a8d449d*%
M02*
