G04 Layer_Physical_Order=3*
G04 Layer_Color=16711680*
%FSLAX44Y44*%
%MOMM*%
%TF.FileFunction,Copper,L3,Bot,Signal*%
%TF.Part,Single*%
G01*
G75*
%TA.AperFunction,Conductor*%
%ADD27C,0.2540*%
%TA.AperFunction,ComponentPad*%
%ADD33R,1.6000X1.6000*%
%ADD34C,1.2002*%
%ADD35C,1.6501*%
%ADD36R,1.5240X1.5240*%
%ADD37C,1.5240*%
%ADD38R,1.5240X1.5240*%
%ADD39C,2.1844*%
%ADD40R,1.7501X1.7501*%
%ADD41C,1.7501*%
%ADD42C,2.8001*%
%TA.AperFunction,ViaPad*%
%ADD43C,0.6000*%
%TA.AperFunction,SMDPad,CuDef*%
%ADD44R,1.6002X1.1684*%
%ADD45R,0.3048X0.6350*%
%ADD46R,1.1684X1.6002*%
%ADD47R,0.6350X0.3048*%
G36*
X878065Y835461D02*
X883303Y833292D01*
X888138Y830329D01*
X892449Y826647D01*
X896131Y822336D01*
X899093Y817502D01*
X901263Y812264D01*
X902586Y806751D01*
X902725Y804990D01*
X901466Y804790D01*
X900407Y809205D01*
X898424Y813992D01*
X895716Y818410D01*
X892351Y822351D01*
X888410Y825716D01*
X883992Y828424D01*
X879205Y830407D01*
X874166Y831616D01*
X869000Y832023D01*
X863834Y831616D01*
X858795Y830407D01*
X854008Y828424D01*
X849590Y825716D01*
X845649Y822351D01*
X842284Y818410D01*
X839576Y813992D01*
X837594Y809205D01*
X836384Y804166D01*
X835977Y799000D01*
X836384Y793834D01*
X837594Y788796D01*
X839576Y784008D01*
X842284Y779590D01*
X845649Y775649D01*
X849590Y772284D01*
X854008Y769577D01*
X858795Y767594D01*
X863834Y766384D01*
X869000Y765977D01*
X874166Y766384D01*
X879205Y767594D01*
X883992Y769577D01*
X888410Y772284D01*
X892351Y775649D01*
X895716Y779590D01*
X898424Y784008D01*
X900407Y788796D01*
X901616Y793834D01*
X901662Y794413D01*
X902932Y794363D01*
Y313638D01*
X901662Y313588D01*
X901616Y314167D01*
X900407Y319206D01*
X898424Y323993D01*
X895716Y328411D01*
X892351Y332352D01*
X888410Y335717D01*
X883992Y338425D01*
X879205Y340408D01*
X874166Y341617D01*
X869000Y342024D01*
X863834Y341617D01*
X858795Y340408D01*
X854008Y338425D01*
X849590Y335717D01*
X845649Y332352D01*
X842284Y328411D01*
X839576Y323993D01*
X837594Y319206D01*
X836384Y314167D01*
X835977Y309001D01*
X836384Y303835D01*
X837594Y298797D01*
X839576Y294009D01*
X842284Y289591D01*
X845649Y285651D01*
X849590Y282285D01*
X854008Y279578D01*
X858795Y277595D01*
X860309Y277231D01*
X860159Y275961D01*
X725940D01*
X724739Y276171D01*
X724598Y276230D01*
X723347Y276183D01*
X722857Y276248D01*
X720643Y277165D01*
X718742Y278624D01*
X717283Y280525D01*
X716366Y282739D01*
X716151Y284373D01*
X716118Y285605D01*
X716079Y286865D01*
X716079Y286956D01*
Y462761D01*
X716348Y463409D01*
X716348Y463409D01*
X716163Y463764D01*
X716163D01*
X715771Y466746D01*
X714510Y469790D01*
X712504Y472404D01*
X709890Y474409D01*
X706846Y475670D01*
X703580Y476100D01*
X700313Y475670D01*
X697270Y474409D01*
X694656Y472404D01*
X692650Y469790D01*
X691389Y466746D01*
X690959Y463479D01*
X691010D01*
Y285838D01*
X690972Y285676D01*
X691028Y285186D01*
X691033Y285159D01*
X690723Y282810D01*
X689806Y280596D01*
X688347Y278694D01*
X686446Y277235D01*
X684232Y276318D01*
X683742Y276254D01*
X682491Y276300D01*
X682350Y276242D01*
X681149Y276032D01*
X298137D01*
X297986Y277302D01*
X299206Y277595D01*
X303993Y279578D01*
X308412Y282285D01*
X312352Y285651D01*
X315717Y289591D01*
X318425Y294009D01*
X320408Y298797D01*
X321617Y303835D01*
X322024Y309001D01*
X321617Y314167D01*
X320408Y319206D01*
X318425Y323993D01*
X315717Y328411D01*
X312352Y332352D01*
X308412Y335717D01*
X303993Y338425D01*
X299206Y340408D01*
X294167Y341617D01*
X289001Y342024D01*
X283835Y341617D01*
X278797Y340408D01*
X274009Y338425D01*
X269591Y335717D01*
X265651Y332352D01*
X262285Y328411D01*
X259578Y323993D01*
X257595Y319206D01*
X256385Y314167D01*
X256339Y313588D01*
X255069Y313638D01*
Y458311D01*
X255109Y458565D01*
X255338Y459740D01*
X255338D01*
X255302Y460968D01*
X256021Y462704D01*
X257165Y464195D01*
X258656Y465339D01*
X260392Y466058D01*
X261490Y466203D01*
X262715Y466243D01*
X263968Y466291D01*
X264098Y466291D01*
X293370D01*
Y466240D01*
X296618Y466668D01*
X299645Y467922D01*
X302244Y469916D01*
X304238Y472515D01*
X305492Y475542D01*
X305920Y478790D01*
X305869D01*
Y628650D01*
X305920D01*
X305492Y631898D01*
X304238Y634925D01*
X302244Y637524D01*
X299645Y639518D01*
X296618Y640772D01*
X293370Y641200D01*
Y641149D01*
X264098D01*
X263968Y641149D01*
X262716Y641197D01*
X261490Y641237D01*
X260392Y641382D01*
X258656Y642101D01*
X257165Y643245D01*
X256021Y644736D01*
X255302Y646472D01*
X255166Y647504D01*
X255338Y647700D01*
X255268Y647869D01*
X255069Y649129D01*
Y794364D01*
X256339Y794414D01*
X256385Y793834D01*
X257595Y788796D01*
X259578Y784008D01*
X262285Y779590D01*
X265651Y775649D01*
X269591Y772284D01*
X274009Y769577D01*
X278797Y767594D01*
X283835Y766384D01*
X289001Y765977D01*
X294167Y766384D01*
X299206Y767594D01*
X303993Y769577D01*
X308412Y772284D01*
X312352Y775649D01*
X315717Y779590D01*
X318425Y784008D01*
X320408Y788796D01*
X321617Y793834D01*
X322024Y799000D01*
X321617Y804166D01*
X320408Y809205D01*
X318425Y813992D01*
X315717Y818410D01*
X312352Y822351D01*
X308412Y825716D01*
X303993Y828424D01*
X299206Y830407D01*
X294167Y831616D01*
X289001Y832023D01*
X283835Y831616D01*
X278797Y830407D01*
X274009Y828424D01*
X269591Y825716D01*
X265651Y822351D01*
X262285Y818410D01*
X259578Y813992D01*
X257595Y809205D01*
X256535Y804790D01*
X255277Y804990D01*
X255415Y806751D01*
X256739Y812264D01*
X258908Y817502D01*
X261871Y822336D01*
X265553Y826647D01*
X269864Y830329D01*
X274698Y833292D01*
X279936Y835461D01*
X280763Y835660D01*
X877238D01*
X878065Y835461D01*
D02*
G37*
%LPC*%
G36*
X782320Y487281D02*
Y478470D01*
X791131D01*
X790948Y479852D01*
X789925Y482324D01*
X788296Y484446D01*
X786174Y486075D01*
X783702Y487099D01*
X782320Y487281D01*
D02*
G37*
G36*
X816356Y487106D02*
X796544D01*
Y467294D01*
X816356D01*
Y487106D01*
D02*
G37*
G36*
X779780Y487281D02*
X778398Y487099D01*
X775926Y486075D01*
X773804Y484446D01*
X772175Y482324D01*
X771152Y479852D01*
X770969Y478470D01*
X779780D01*
Y487281D01*
D02*
G37*
G36*
X716280Y545780D02*
X707469D01*
X707652Y544398D01*
X708675Y541926D01*
X710304Y539804D01*
X712426Y538175D01*
X714898Y537151D01*
X716280Y536969D01*
Y545780D01*
D02*
G37*
G36*
X727630D02*
X718820D01*
Y536969D01*
X720202Y537151D01*
X722674Y538175D01*
X724796Y539804D01*
X726425Y541926D01*
X727449Y544398D01*
X727630Y545780D01*
D02*
G37*
G36*
X655320Y508310D02*
X653258Y507899D01*
X651509Y506731D01*
X651385Y506546D01*
X577975D01*
X577851Y506731D01*
X576102Y507899D01*
X574040Y508310D01*
X571978Y507899D01*
X570229Y506731D01*
X569061Y504982D01*
X568651Y502920D01*
X569061Y500858D01*
X570229Y499109D01*
X571978Y497941D01*
X574040Y497531D01*
X576102Y497941D01*
X577851Y499109D01*
X577975Y499294D01*
X651385D01*
X651509Y499109D01*
X653258Y497941D01*
X655320Y497531D01*
X657383Y497941D01*
X659131Y499109D01*
X660299Y500858D01*
X660710Y502920D01*
X660299Y504982D01*
X659131Y506731D01*
X657383Y507899D01*
X655320Y508310D01*
D02*
G37*
G36*
X624840Y546409D02*
X622777Y545999D01*
X621029Y544831D01*
X619861Y543083D01*
X619450Y541020D01*
X619861Y538957D01*
X621029Y537209D01*
X621214Y537085D01*
Y525780D01*
X621214Y525780D01*
X621490Y524393D01*
X622276Y523216D01*
X624574Y520919D01*
X624530Y520700D01*
X624941Y518638D01*
X626109Y516889D01*
X627858Y515721D01*
X629920Y515311D01*
X631982Y515721D01*
X633731Y516889D01*
X634899Y518638D01*
X635309Y520700D01*
X634899Y522762D01*
X633731Y524511D01*
X631982Y525679D01*
X629920Y526090D01*
X629701Y526046D01*
X628466Y527282D01*
Y537085D01*
X628651Y537209D01*
X629819Y538957D01*
X630229Y541020D01*
X629819Y543083D01*
X628651Y544831D01*
X626903Y545999D01*
X624840Y546409D01*
D02*
G37*
G36*
X627380Y424011D02*
X624794Y423671D01*
X622384Y422673D01*
X620315Y421085D01*
X618727Y419016D01*
X617729Y416606D01*
X617388Y414020D01*
X617729Y411434D01*
X618727Y409024D01*
X620315Y406955D01*
X622384Y405367D01*
X624794Y404369D01*
X627380Y404029D01*
X629966Y404369D01*
X632376Y405367D01*
X634445Y406955D01*
X636033Y409024D01*
X637031Y411434D01*
X637371Y414020D01*
X637031Y416606D01*
X636033Y419016D01*
X634445Y421085D01*
X632376Y422673D01*
X629966Y423671D01*
X627380Y424011D01*
D02*
G37*
G36*
X660400D02*
X657814Y423671D01*
X655404Y422673D01*
X653335Y421085D01*
X651747Y419016D01*
X650749Y416606D01*
X650408Y414020D01*
X650749Y411434D01*
X651747Y409024D01*
X653335Y406955D01*
X655404Y405367D01*
X657814Y404369D01*
X660400Y404029D01*
X662986Y404369D01*
X665396Y405367D01*
X667465Y406955D01*
X669053Y409024D01*
X670051Y411434D01*
X670391Y414020D01*
X670051Y416606D01*
X669053Y419016D01*
X667465Y421085D01*
X665396Y422673D01*
X662986Y423671D01*
X660400Y424011D01*
D02*
G37*
G36*
X661670Y398700D02*
Y389890D01*
X670480D01*
X670298Y391272D01*
X669275Y393744D01*
X667646Y395866D01*
X665524Y397495D01*
X663052Y398518D01*
X661670Y398700D01*
D02*
G37*
G36*
X341756Y415416D02*
X321184D01*
Y394844D01*
X341756D01*
Y415416D01*
D02*
G37*
G36*
X779780Y475930D02*
X770969D01*
X771152Y474548D01*
X772175Y472076D01*
X773804Y469954D01*
X775926Y468325D01*
X778398Y467301D01*
X779780Y467119D01*
Y475930D01*
D02*
G37*
G36*
X791131D02*
X782320D01*
Y467119D01*
X783702Y467301D01*
X786174Y468325D01*
X788296Y469954D01*
X789925Y472076D01*
X790948Y474548D01*
X791131Y475930D01*
D02*
G37*
G36*
X637286Y449326D02*
X617474D01*
Y429514D01*
X637286D01*
Y449326D01*
D02*
G37*
G36*
X670306D02*
X650494D01*
Y429514D01*
X670306D01*
Y449326D01*
D02*
G37*
G36*
X716280Y557131D02*
X714898Y556949D01*
X712426Y555925D01*
X710304Y554296D01*
X708675Y552174D01*
X707652Y549702D01*
X707469Y548320D01*
X716280D01*
Y557131D01*
D02*
G37*
G36*
X727456Y658556D02*
X707644D01*
Y638744D01*
X727456D01*
Y658556D01*
D02*
G37*
G36*
X693301Y797432D02*
X690420Y797052D01*
X687735Y795940D01*
X685429Y794171D01*
X683660Y791866D01*
X682548Y789181D01*
X682169Y786300D01*
X682548Y783419D01*
X683660Y780734D01*
X685429Y778429D01*
X687735Y776660D01*
X689675Y775856D01*
Y773430D01*
X685800D01*
Y750570D01*
X703143D01*
X703629Y749397D01*
X670536Y716304D01*
X669750Y715127D01*
X669474Y713740D01*
X669474Y713740D01*
Y628775D01*
X669289Y628651D01*
X668121Y626903D01*
X667710Y624840D01*
X668121Y622777D01*
X669289Y621029D01*
X671038Y619861D01*
X673100Y619450D01*
X675163Y619861D01*
X676911Y621029D01*
X678079Y622777D01*
X678490Y624840D01*
X678079Y626903D01*
X676911Y628651D01*
X676726Y628775D01*
Y712238D01*
X713764Y749276D01*
X713764Y749276D01*
X714550Y750452D01*
X714573Y750570D01*
X721360D01*
Y773430D01*
X696926D01*
Y775856D01*
X698866Y776660D01*
X701172Y778429D01*
X702941Y780734D01*
X704053Y783419D01*
X704432Y786300D01*
X704053Y789181D01*
X702941Y791866D01*
X701172Y794171D01*
X698866Y795940D01*
X696182Y797052D01*
X693301Y797432D01*
D02*
G37*
G36*
X717550Y633241D02*
X714964Y632901D01*
X712554Y631903D01*
X710485Y630315D01*
X708897Y628246D01*
X707899Y625836D01*
X707559Y623250D01*
X707899Y620664D01*
X708897Y618254D01*
X710485Y616185D01*
X712554Y614597D01*
X714964Y613599D01*
X717550Y613259D01*
X720136Y613599D01*
X722546Y614597D01*
X724615Y616185D01*
X726203Y618254D01*
X727201Y620664D01*
X727542Y623250D01*
X727201Y625836D01*
X726203Y628246D01*
X724615Y630315D01*
X722546Y631903D01*
X720136Y632901D01*
X717550Y633241D01*
D02*
G37*
G36*
X472440Y672780D02*
X463629D01*
X463811Y671398D01*
X464835Y668926D01*
X466464Y666804D01*
X468586Y665175D01*
X471058Y664152D01*
X472440Y663969D01*
Y672780D01*
D02*
G37*
G36*
X727630D02*
X718820D01*
Y663969D01*
X720202Y664152D01*
X722674Y665175D01*
X724796Y666804D01*
X726425Y668926D01*
X727449Y671398D01*
X727630Y672780D01*
D02*
G37*
G36*
X716280D02*
X707469D01*
X707652Y671398D01*
X708675Y668926D01*
X710304Y666804D01*
X712426Y665175D01*
X714898Y664152D01*
X716280Y663969D01*
Y672780D01*
D02*
G37*
G36*
X483791D02*
X474980D01*
Y663969D01*
X476362Y664152D01*
X478834Y665175D01*
X480956Y666804D01*
X482585Y668926D01*
X483609Y671398D01*
X483791Y672780D01*
D02*
G37*
G36*
X599440Y603066D02*
X599440Y603066D01*
X505460D01*
X505460Y603066D01*
X504072Y602790D01*
X502896Y602004D01*
X502896Y602004D01*
X492979Y592086D01*
X492760Y592130D01*
X490698Y591719D01*
X488949Y590551D01*
X487781Y588802D01*
X487370Y586740D01*
X487781Y584678D01*
X488949Y582929D01*
X490698Y581761D01*
X492760Y581351D01*
X494299Y581656D01*
X494317Y581649D01*
X495289Y580677D01*
X495297Y580659D01*
X494991Y579120D01*
X495371Y577206D01*
X495257Y576784D01*
X494803Y575936D01*
X488016D01*
X487202Y576479D01*
X485140Y576889D01*
X483078Y576479D01*
X481329Y575311D01*
X480161Y573563D01*
X479751Y571500D01*
X480161Y569437D01*
X481329Y567689D01*
X483078Y566521D01*
X485140Y566110D01*
X487202Y566521D01*
X488951Y567689D01*
X489616Y568684D01*
X503201D01*
X503201Y568684D01*
X504588Y568960D01*
X505765Y569746D01*
X521673Y585654D01*
X554758D01*
X568694Y571719D01*
X568651Y571500D01*
X569061Y569437D01*
X570229Y567689D01*
X571978Y566521D01*
X574040Y566110D01*
X576102Y566521D01*
X577851Y567689D01*
X579019Y569437D01*
X579430Y571500D01*
X579019Y573563D01*
X577851Y575311D01*
X577095Y575816D01*
Y577344D01*
X577851Y577849D01*
X579019Y579598D01*
X579430Y581660D01*
X579019Y583722D01*
X577851Y585471D01*
X576102Y586639D01*
X574040Y587049D01*
X573821Y587006D01*
X566186Y594641D01*
X566673Y595814D01*
X597938D01*
X607846Y585906D01*
X608191Y585676D01*
X608329Y585469D01*
X610078Y584301D01*
X612140Y583890D01*
X614202Y584301D01*
X615951Y585469D01*
X617119Y587217D01*
X617529Y589280D01*
X617119Y591343D01*
X615951Y593091D01*
X614202Y594259D01*
X612140Y594669D01*
X610078Y594259D01*
X609880Y594127D01*
X602004Y602004D01*
X600827Y602790D01*
X599440Y603066D01*
D02*
G37*
G36*
X716280Y596580D02*
X707469D01*
X707652Y595198D01*
X708675Y592726D01*
X710304Y590604D01*
X712426Y588975D01*
X714898Y587952D01*
X716280Y587770D01*
Y596580D01*
D02*
G37*
G36*
X727456Y582356D02*
X707644D01*
Y562544D01*
X727456D01*
Y582356D01*
D02*
G37*
G36*
X718820Y557131D02*
Y548320D01*
X727630D01*
X727449Y549702D01*
X726425Y552174D01*
X724796Y554296D01*
X722674Y555925D01*
X720202Y556949D01*
X718820Y557131D01*
D02*
G37*
G36*
X727630Y596580D02*
X718820D01*
Y587770D01*
X720202Y587952D01*
X722674Y588975D01*
X724796Y590604D01*
X726425Y592726D01*
X727449Y595198D01*
X727630Y596580D01*
D02*
G37*
G36*
X718820Y607930D02*
Y599120D01*
X727630D01*
X727449Y600502D01*
X726425Y602974D01*
X724796Y605096D01*
X722674Y606725D01*
X720202Y607748D01*
X718820Y607930D01*
D02*
G37*
G36*
X716280D02*
X714898Y607748D01*
X712426Y606725D01*
X710304Y605096D01*
X708675Y602974D01*
X707652Y600502D01*
X707469Y599120D01*
X716280D01*
Y607930D01*
D02*
G37*
G36*
X336676Y613536D02*
X316104D01*
Y592964D01*
X336676D01*
Y613536D01*
D02*
G37*
G36*
X455780Y323202D02*
X452332Y322748D01*
X449119Y321417D01*
X446360Y319300D01*
X444243Y316541D01*
X442912Y313328D01*
X442458Y309880D01*
X442912Y306432D01*
X444243Y303219D01*
X446360Y300460D01*
X449119Y298343D01*
X452332Y297012D01*
X455780Y296558D01*
X459228Y297012D01*
X462441Y298343D01*
X465200Y300460D01*
X467317Y303219D01*
X468648Y306432D01*
X469102Y309880D01*
X468648Y313328D01*
X467317Y316541D01*
X465200Y319300D01*
X462441Y321417D01*
X459228Y322748D01*
X455780Y323202D01*
D02*
G37*
G36*
X539191Y308610D02*
X527050D01*
Y296469D01*
X529294Y296765D01*
X532569Y298121D01*
X535381Y300279D01*
X537539Y303091D01*
X538895Y306366D01*
X539191Y308610D01*
D02*
G37*
G36*
X524510D02*
X512369D01*
X512664Y306366D01*
X514021Y303091D01*
X516179Y300279D01*
X518991Y298121D01*
X522266Y296765D01*
X524510Y296469D01*
Y308610D01*
D02*
G37*
G36*
X490779Y323202D02*
X487331Y322748D01*
X484118Y321417D01*
X481359Y319300D01*
X479242Y316541D01*
X477911Y313328D01*
X477457Y309880D01*
X477911Y306432D01*
X479242Y303219D01*
X481359Y300460D01*
X484118Y298343D01*
X487331Y297012D01*
X490779Y296558D01*
X494227Y297012D01*
X497440Y298343D01*
X500199Y300460D01*
X502316Y303219D01*
X503647Y306432D01*
X504101Y309880D01*
X503647Y313328D01*
X502316Y316541D01*
X500199Y319300D01*
X497440Y321417D01*
X494227Y322748D01*
X490779Y323202D01*
D02*
G37*
G36*
X349649Y314231D02*
X342472D01*
X342598Y313271D01*
X343459Y311194D01*
X344827Y309410D01*
X346612Y308041D01*
X348689Y307180D01*
X349649Y307054D01*
Y314231D01*
D02*
G37*
G36*
X595780Y323202D02*
X592332Y322748D01*
X589119Y321417D01*
X586360Y319300D01*
X584243Y316541D01*
X582912Y313328D01*
X582458Y309880D01*
X582912Y306432D01*
X584243Y303219D01*
X586360Y300460D01*
X589119Y298343D01*
X592332Y297012D01*
X595780Y296558D01*
X599228Y297012D01*
X602441Y298343D01*
X605200Y300460D01*
X607317Y303219D01*
X608648Y306432D01*
X609102Y309880D01*
X608648Y313328D01*
X607317Y316541D01*
X605200Y319300D01*
X602441Y321417D01*
X599228Y322748D01*
X595780Y323202D01*
D02*
G37*
G36*
X560781D02*
X557333Y322748D01*
X554120Y321417D01*
X551361Y319300D01*
X549244Y316541D01*
X547913Y313328D01*
X547459Y309880D01*
X547913Y306432D01*
X549244Y303219D01*
X551361Y300460D01*
X554120Y298343D01*
X557333Y297012D01*
X560781Y296558D01*
X564229Y297012D01*
X567442Y298343D01*
X570201Y300460D01*
X572318Y303219D01*
X573649Y306432D01*
X574103Y309880D01*
X573649Y313328D01*
X572318Y316541D01*
X570201Y319300D01*
X567442Y321417D01*
X564229Y322748D01*
X560781Y323202D01*
D02*
G37*
G36*
X412191Y299217D02*
Y289771D01*
X421638D01*
X421434Y291318D01*
X420347Y293943D01*
X418617Y296197D01*
X416363Y297926D01*
X413738Y299014D01*
X412191Y299217D01*
D02*
G37*
G36*
X409651Y287231D02*
X400205D01*
X400408Y285684D01*
X401496Y283059D01*
X403225Y280805D01*
X405479Y279075D01*
X408104Y277988D01*
X409651Y277784D01*
Y287231D01*
D02*
G37*
G36*
X351635D02*
X342189D01*
Y277784D01*
X343736Y277988D01*
X346361Y279075D01*
X348615Y280805D01*
X350344Y283059D01*
X351432Y285684D01*
X351635Y287231D01*
D02*
G37*
G36*
X339649D02*
X330202D01*
X330406Y285684D01*
X331493Y283059D01*
X333223Y280805D01*
X335477Y279075D01*
X338102Y277988D01*
X339649Y277784D01*
Y287231D01*
D02*
G37*
G36*
X421638D02*
X412191D01*
Y277784D01*
X413738Y277988D01*
X416363Y279075D01*
X418617Y280805D01*
X420347Y283059D01*
X421434Y285684D01*
X421638Y287231D01*
D02*
G37*
G36*
X409651Y299217D02*
X408104Y299014D01*
X405479Y297926D01*
X403225Y296197D01*
X401496Y293943D01*
X400408Y291318D01*
X400205Y289771D01*
X409651D01*
Y299217D01*
D02*
G37*
G36*
X342189D02*
Y289771D01*
X351635D01*
X351432Y291318D01*
X350344Y293943D01*
X348615Y296197D01*
X346361Y297926D01*
X343736Y299014D01*
X342189Y299217D01*
D02*
G37*
G36*
X339649D02*
X338102Y299014D01*
X335477Y297926D01*
X333223Y296197D01*
X331493Y293943D01*
X330406Y291318D01*
X330202Y289771D01*
X339649D01*
Y299217D01*
D02*
G37*
G36*
X359366Y314231D02*
X352189D01*
Y307054D01*
X353148Y307180D01*
X355226Y308041D01*
X357010Y309410D01*
X358379Y311194D01*
X359240Y313271D01*
X359366Y314231D01*
D02*
G37*
G36*
X659130Y387350D02*
X650320D01*
X650501Y385968D01*
X651525Y383496D01*
X653154Y381374D01*
X655276Y379745D01*
X657748Y378722D01*
X659130Y378540D01*
Y387350D01*
D02*
G37*
G36*
X637461D02*
X628650D01*
Y378540D01*
X630032Y378722D01*
X632504Y379745D01*
X634626Y381374D01*
X636255Y383496D01*
X637279Y385968D01*
X637461Y387350D01*
D02*
G37*
G36*
X626110D02*
X617299D01*
X617481Y385968D01*
X618505Y383496D01*
X620134Y381374D01*
X622256Y379745D01*
X624728Y378722D01*
X626110Y378540D01*
Y387350D01*
D02*
G37*
G36*
X670480D02*
X661670D01*
Y378540D01*
X663052Y378722D01*
X665524Y379745D01*
X667646Y381374D01*
X669275Y383496D01*
X670298Y385968D01*
X670480Y387350D01*
D02*
G37*
G36*
X659130Y398700D02*
X657748Y398518D01*
X655276Y397495D01*
X653154Y395866D01*
X651525Y393744D01*
X650501Y391272D01*
X650320Y389890D01*
X659130D01*
Y398700D01*
D02*
G37*
G36*
X628650D02*
Y389890D01*
X637461D01*
X637279Y391272D01*
X636255Y393744D01*
X634626Y395866D01*
X632504Y397495D01*
X630032Y398518D01*
X628650Y398700D01*
D02*
G37*
G36*
X626110D02*
X624728Y398518D01*
X622256Y397495D01*
X620134Y395866D01*
X618505Y393744D01*
X617481Y391272D01*
X617299Y389890D01*
X626110D01*
Y398700D01*
D02*
G37*
G36*
X402191Y323948D02*
Y316771D01*
X409369D01*
X409242Y317731D01*
X408382Y319808D01*
X407012Y321592D01*
X405229Y322961D01*
X403151Y323822D01*
X402191Y323948D01*
D02*
G37*
G36*
X524510Y323291D02*
X522266Y322995D01*
X518991Y321639D01*
X516179Y319481D01*
X514021Y316669D01*
X512664Y313394D01*
X512369Y311150D01*
X524510D01*
Y323291D01*
D02*
G37*
G36*
X409369Y314231D02*
X402191D01*
Y307054D01*
X403151Y307180D01*
X405229Y308041D01*
X407012Y309410D01*
X408382Y311194D01*
X409242Y313271D01*
X409369Y314231D01*
D02*
G37*
G36*
X399651D02*
X392474D01*
X392600Y313271D01*
X393461Y311194D01*
X394830Y309410D01*
X396614Y308041D01*
X398692Y307180D01*
X399651Y307054D01*
Y314231D01*
D02*
G37*
G36*
X527050Y323291D02*
Y311150D01*
X539191D01*
X538895Y313394D01*
X537539Y316669D01*
X535381Y319481D01*
X532569Y321639D01*
X529294Y322995D01*
X527050Y323291D01*
D02*
G37*
G36*
X399651Y323948D02*
X398692Y323822D01*
X396614Y322961D01*
X394830Y321592D01*
X393461Y319808D01*
X392600Y317731D01*
X392474Y316771D01*
X399651D01*
Y323948D01*
D02*
G37*
G36*
X352189D02*
Y316771D01*
X359366D01*
X359240Y317731D01*
X358379Y319808D01*
X357010Y321592D01*
X355226Y322961D01*
X353148Y323822D01*
X352189Y323948D01*
D02*
G37*
G36*
X349649D02*
X348689Y323822D01*
X346612Y322961D01*
X344827Y321592D01*
X343459Y319808D01*
X342598Y317731D01*
X342472Y316771D01*
X349649D01*
Y323948D01*
D02*
G37*
G36*
X464701Y822832D02*
X461820Y822452D01*
X459135Y821340D01*
X456829Y819571D01*
X455060Y817266D01*
X453948Y814581D01*
X453569Y811700D01*
X453948Y808819D01*
X455060Y806134D01*
X456829Y803829D01*
X459135Y802060D01*
X461820Y800948D01*
X464701Y800569D01*
X467582Y800948D01*
X470266Y802060D01*
X472572Y803829D01*
X474341Y806134D01*
X475453Y808819D01*
X475832Y811700D01*
X475453Y814581D01*
X474341Y817266D01*
X472572Y819571D01*
X470266Y821340D01*
X467582Y822452D01*
X464701Y822832D01*
D02*
G37*
G36*
X439301D02*
X436420Y822452D01*
X433735Y821340D01*
X431429Y819571D01*
X429660Y817266D01*
X428548Y814581D01*
X428169Y811700D01*
X428548Y808819D01*
X429660Y806134D01*
X431429Y803829D01*
X433735Y802060D01*
X436420Y800948D01*
X439301Y800569D01*
X442182Y800948D01*
X444866Y802060D01*
X447172Y803829D01*
X448941Y806134D01*
X450053Y808819D01*
X450432Y811700D01*
X450053Y814581D01*
X448941Y817266D01*
X447172Y819571D01*
X444866Y821340D01*
X442182Y822452D01*
X439301Y822832D01*
D02*
G37*
G36*
X413901D02*
X411020Y822452D01*
X408335Y821340D01*
X406029Y819571D01*
X404260Y817266D01*
X403148Y814581D01*
X402769Y811700D01*
X403148Y808819D01*
X404260Y806134D01*
X406029Y803829D01*
X408335Y802060D01*
X411020Y800948D01*
X413901Y800569D01*
X416782Y800948D01*
X419466Y802060D01*
X421772Y803829D01*
X423541Y806134D01*
X424653Y808819D01*
X425032Y811700D01*
X424653Y814581D01*
X423541Y817266D01*
X421772Y819571D01*
X419466Y821340D01*
X416782Y822452D01*
X413901Y822832D01*
D02*
G37*
G36*
X515501D02*
X512620Y822452D01*
X509935Y821340D01*
X507629Y819571D01*
X505860Y817266D01*
X504748Y814581D01*
X504369Y811700D01*
X504748Y808819D01*
X505860Y806134D01*
X507629Y803829D01*
X509935Y802060D01*
X512620Y800948D01*
X515501Y800569D01*
X518382Y800948D01*
X521066Y802060D01*
X523372Y803829D01*
X525141Y806134D01*
X526253Y808819D01*
X526632Y811700D01*
X526253Y814581D01*
X525141Y817266D01*
X523372Y819571D01*
X521066Y821340D01*
X518382Y822452D01*
X515501Y822832D01*
D02*
G37*
G36*
X617101D02*
X614220Y822452D01*
X611535Y821340D01*
X609229Y819571D01*
X607460Y817266D01*
X606348Y814581D01*
X605969Y811700D01*
X606348Y808819D01*
X607460Y806134D01*
X609229Y803829D01*
X611535Y802060D01*
X614220Y800948D01*
X617101Y800569D01*
X619982Y800948D01*
X622666Y802060D01*
X624972Y803829D01*
X626741Y806134D01*
X627853Y808819D01*
X628232Y811700D01*
X627853Y814581D01*
X626741Y817266D01*
X624972Y819571D01*
X622666Y821340D01*
X619982Y822452D01*
X617101Y822832D01*
D02*
G37*
G36*
X591701D02*
X588820Y822452D01*
X586135Y821340D01*
X583829Y819571D01*
X582060Y817266D01*
X580948Y814581D01*
X580569Y811700D01*
X580948Y808819D01*
X582060Y806134D01*
X583829Y803829D01*
X586135Y802060D01*
X588820Y800948D01*
X591701Y800569D01*
X594582Y800948D01*
X597266Y802060D01*
X599572Y803829D01*
X601341Y806134D01*
X602453Y808819D01*
X602832Y811700D01*
X602453Y814581D01*
X601341Y817266D01*
X599572Y819571D01*
X597266Y821340D01*
X594582Y822452D01*
X591701Y822832D01*
D02*
G37*
G36*
X540901D02*
X538020Y822452D01*
X535335Y821340D01*
X533029Y819571D01*
X531260Y817266D01*
X530148Y814581D01*
X529769Y811700D01*
X530148Y808819D01*
X531260Y806134D01*
X533029Y803829D01*
X535335Y802060D01*
X538020Y800948D01*
X540901Y800569D01*
X543782Y800948D01*
X546466Y802060D01*
X548772Y803829D01*
X550541Y806134D01*
X551653Y808819D01*
X552032Y811700D01*
X551653Y814581D01*
X550541Y817266D01*
X548772Y819571D01*
X546466Y821340D01*
X543782Y822452D01*
X540901Y822832D01*
D02*
G37*
G36*
X363101D02*
X360220Y822452D01*
X357535Y821340D01*
X355229Y819571D01*
X353460Y817266D01*
X352348Y814581D01*
X351969Y811700D01*
X352348Y808819D01*
X353460Y806134D01*
X355229Y803829D01*
X357535Y802060D01*
X360220Y800948D01*
X363101Y800569D01*
X365982Y800948D01*
X368666Y802060D01*
X370972Y803829D01*
X372741Y806134D01*
X373853Y808819D01*
X374232Y811700D01*
X373853Y814581D01*
X372741Y817266D01*
X370972Y819571D01*
X368666Y821340D01*
X365982Y822452D01*
X363101Y822832D01*
D02*
G37*
G36*
X692031Y810430D02*
X682080D01*
X682301Y808753D01*
X683439Y806006D01*
X685248Y803648D01*
X687607Y801838D01*
X690353Y800701D01*
X692031Y800480D01*
Y810430D01*
D02*
G37*
G36*
X577521D02*
X567571D01*
Y800480D01*
X569248Y800701D01*
X571995Y801838D01*
X574353Y803648D01*
X576163Y806006D01*
X577300Y808753D01*
X577521Y810430D01*
D02*
G37*
G36*
X565031D02*
X555080D01*
X555301Y808753D01*
X556439Y806006D01*
X558248Y803648D01*
X560607Y801838D01*
X563353Y800701D01*
X565031Y800480D01*
Y810430D01*
D02*
G37*
G36*
X704521D02*
X694571D01*
Y800480D01*
X696248Y800701D01*
X698995Y801838D01*
X701353Y803648D01*
X703163Y806006D01*
X704300Y808753D01*
X704521Y810430D01*
D02*
G37*
G36*
X337701Y822832D02*
X334820Y822452D01*
X332135Y821340D01*
X329829Y819571D01*
X328060Y817266D01*
X326948Y814581D01*
X326569Y811700D01*
X326948Y808819D01*
X328060Y806134D01*
X329829Y803829D01*
X332135Y802060D01*
X334820Y800948D01*
X337701Y800569D01*
X340582Y800948D01*
X343266Y802060D01*
X345572Y803829D01*
X347341Y806134D01*
X348453Y808819D01*
X348832Y811700D01*
X348453Y814581D01*
X347341Y817266D01*
X345572Y819571D01*
X343266Y821340D01*
X340582Y822452D01*
X337701Y822832D01*
D02*
G37*
G36*
X755321Y810430D02*
X745371D01*
Y800480D01*
X747048Y800701D01*
X749794Y801838D01*
X752153Y803648D01*
X753963Y806006D01*
X755100Y808753D01*
X755321Y810430D01*
D02*
G37*
G36*
X742831D02*
X732880D01*
X733101Y808753D01*
X734239Y806006D01*
X736048Y803648D01*
X738407Y801838D01*
X741153Y800701D01*
X742831Y800480D01*
Y810430D01*
D02*
G37*
G36*
X642501Y822832D02*
X639620Y822452D01*
X636935Y821340D01*
X634629Y819571D01*
X632860Y817266D01*
X631748Y814581D01*
X631369Y811700D01*
X631748Y808819D01*
X632860Y806134D01*
X634629Y803829D01*
X636935Y802060D01*
X639620Y800948D01*
X642501Y800569D01*
X645382Y800948D01*
X648066Y802060D01*
X650372Y803829D01*
X652141Y806134D01*
X653253Y808819D01*
X653632Y811700D01*
X653253Y814581D01*
X652141Y817266D01*
X650372Y819571D01*
X648066Y821340D01*
X645382Y822452D01*
X642501Y822832D01*
D02*
G37*
G36*
X567571Y822921D02*
Y812970D01*
X577521D01*
X577300Y814648D01*
X576163Y817394D01*
X574353Y819753D01*
X571995Y821562D01*
X569248Y822700D01*
X567571Y822921D01*
D02*
G37*
G36*
X565031D02*
X563353Y822700D01*
X560607Y821562D01*
X558248Y819753D01*
X556439Y817394D01*
X555301Y814648D01*
X555080Y812970D01*
X565031D01*
Y822921D01*
D02*
G37*
G36*
X491371D02*
Y812970D01*
X501321D01*
X501100Y814648D01*
X499963Y817394D01*
X498153Y819753D01*
X495794Y821562D01*
X493048Y822700D01*
X491371Y822921D01*
D02*
G37*
G36*
X692031D02*
X690353Y822700D01*
X687607Y821562D01*
X685248Y819753D01*
X683439Y817394D01*
X682301Y814648D01*
X682080Y812970D01*
X692031D01*
Y822921D01*
D02*
G37*
G36*
X745371D02*
Y812970D01*
X755321D01*
X755100Y814648D01*
X753963Y817394D01*
X752153Y819753D01*
X749794Y821562D01*
X747048Y822700D01*
X745371Y822921D01*
D02*
G37*
G36*
X742831D02*
X741153Y822700D01*
X738407Y821562D01*
X736048Y819753D01*
X734239Y817394D01*
X733101Y814648D01*
X732880Y812970D01*
X742831D01*
Y822921D01*
D02*
G37*
G36*
X694571D02*
Y812970D01*
X704521D01*
X704300Y814648D01*
X703163Y817394D01*
X701353Y819753D01*
X698995Y821562D01*
X696248Y822700D01*
X694571Y822921D01*
D02*
G37*
G36*
X488831D02*
X487153Y822700D01*
X484407Y821562D01*
X482048Y819753D01*
X480239Y817394D01*
X479101Y814648D01*
X478880Y812970D01*
X488831D01*
Y822921D01*
D02*
G37*
G36*
X769501Y822832D02*
X766620Y822452D01*
X763935Y821340D01*
X761629Y819571D01*
X759860Y817266D01*
X758748Y814581D01*
X758369Y811700D01*
X758748Y808819D01*
X759860Y806134D01*
X761629Y803829D01*
X763935Y802060D01*
X766620Y800948D01*
X769501Y800569D01*
X772382Y800948D01*
X775066Y802060D01*
X777372Y803829D01*
X779141Y806134D01*
X780253Y808819D01*
X780632Y811700D01*
X780253Y814581D01*
X779141Y817266D01*
X777372Y819571D01*
X775066Y821340D01*
X772382Y822452D01*
X769501Y822832D01*
D02*
G37*
G36*
X718701D02*
X715820Y822452D01*
X713135Y821340D01*
X710829Y819571D01*
X709060Y817266D01*
X707948Y814581D01*
X707569Y811700D01*
X707948Y808819D01*
X709060Y806134D01*
X710829Y803829D01*
X713135Y802060D01*
X715820Y800948D01*
X718701Y800569D01*
X721582Y800948D01*
X724266Y802060D01*
X726572Y803829D01*
X728341Y806134D01*
X729453Y808819D01*
X729832Y811700D01*
X729453Y814581D01*
X728341Y817266D01*
X726572Y819571D01*
X724266Y821340D01*
X721582Y822452D01*
X718701Y822832D01*
D02*
G37*
G36*
X667901D02*
X665020Y822452D01*
X662335Y821340D01*
X660029Y819571D01*
X658260Y817266D01*
X657148Y814581D01*
X656769Y811700D01*
X657148Y808819D01*
X657952Y806879D01*
X652756Y801683D01*
X651970Y800507D01*
X651694Y799120D01*
X651694Y799119D01*
Y794740D01*
X651554Y794692D01*
X650424Y794451D01*
X648195Y796162D01*
X645448Y797300D01*
X643771Y797521D01*
Y786300D01*
Y775080D01*
X645448Y775301D01*
X648195Y776438D01*
X650424Y778149D01*
X651554Y777908D01*
X651694Y777860D01*
Y729212D01*
X650842Y728360D01*
X649671Y728980D01*
X649260Y731042D01*
X648092Y732791D01*
X646344Y733959D01*
X644281Y734370D01*
X642219Y733959D01*
X640470Y732791D01*
X640346Y732606D01*
X637540D01*
Y742950D01*
X618490D01*
Y742061D01*
X613410D01*
Y731520D01*
Y720979D01*
X618490D01*
Y720090D01*
X637540D01*
Y725354D01*
X640346D01*
X640470Y725169D01*
X642219Y724001D01*
X644281Y723590D01*
X644902Y722419D01*
X642839Y720356D01*
X642620Y720399D01*
X640557Y719989D01*
X638809Y718821D01*
X637641Y717073D01*
X637230Y715010D01*
X637641Y712947D01*
X638809Y711199D01*
X640557Y710031D01*
X642620Y709621D01*
X644682Y710031D01*
X646431Y711199D01*
X647599Y712947D01*
X648009Y715010D01*
X647966Y715229D01*
X657884Y725146D01*
X657884Y725146D01*
X658670Y726322D01*
X658946Y727710D01*
X658946Y727710D01*
Y777960D01*
X660216Y778286D01*
X662335Y776660D01*
X664275Y775856D01*
Y725282D01*
X645379Y706386D01*
X645160Y706430D01*
X643098Y706019D01*
X641349Y704851D01*
X640181Y703102D01*
X639771Y701040D01*
X640181Y698978D01*
X641349Y697229D01*
X643098Y696061D01*
X645160Y695650D01*
X647223Y696061D01*
X648971Y697229D01*
X650139Y698978D01*
X650549Y701040D01*
X650506Y701259D01*
X670464Y721217D01*
X670464Y721217D01*
X671250Y722393D01*
X671526Y723781D01*
Y775856D01*
X673466Y776660D01*
X675772Y778429D01*
X677541Y780734D01*
X678653Y783419D01*
X679032Y786300D01*
X678653Y789181D01*
X677541Y791866D01*
X675772Y794171D01*
X673466Y795940D01*
X670782Y797052D01*
X667901Y797432D01*
X665020Y797052D01*
X662335Y795940D01*
X660216Y794314D01*
X658946Y794641D01*
Y797618D01*
X663080Y801752D01*
X665020Y800948D01*
X667901Y800569D01*
X670782Y800948D01*
X673466Y802060D01*
X675772Y803829D01*
X677541Y806134D01*
X678653Y808819D01*
X679032Y811700D01*
X678653Y814581D01*
X677541Y817266D01*
X675772Y819571D01*
X673466Y821340D01*
X670782Y822452D01*
X667901Y822832D01*
D02*
G37*
G36*
X794901D02*
X792020Y822452D01*
X789335Y821340D01*
X787029Y819571D01*
X785260Y817266D01*
X784148Y814581D01*
X783769Y811700D01*
X784148Y808819D01*
X785260Y806134D01*
X787029Y803829D01*
X789335Y802060D01*
X792020Y800948D01*
X794901Y800569D01*
X797782Y800948D01*
X800466Y802060D01*
X802772Y803829D01*
X804541Y806134D01*
X805653Y808819D01*
X806032Y811700D01*
X805653Y814581D01*
X804541Y817266D01*
X802772Y819571D01*
X800466Y821340D01*
X797782Y822452D01*
X794901Y822832D01*
D02*
G37*
G36*
X389771Y822921D02*
Y812970D01*
X399721D01*
X399500Y814648D01*
X398363Y817394D01*
X396553Y819753D01*
X394194Y821562D01*
X391448Y822700D01*
X389771Y822921D01*
D02*
G37*
G36*
X387231D02*
X385553Y822700D01*
X382807Y821562D01*
X380448Y819753D01*
X378639Y817394D01*
X377501Y814648D01*
X377280Y812970D01*
X387231D01*
Y822921D01*
D02*
G37*
G36*
X820301Y822832D02*
X817420Y822452D01*
X814735Y821340D01*
X812429Y819571D01*
X810660Y817266D01*
X809548Y814581D01*
X809169Y811700D01*
X809548Y808819D01*
X810660Y806134D01*
X812429Y803829D01*
X814735Y802060D01*
X817420Y800948D01*
X820301Y800569D01*
X823182Y800948D01*
X825866Y802060D01*
X828172Y803829D01*
X829941Y806134D01*
X831053Y808819D01*
X831432Y811700D01*
X831053Y814581D01*
X829941Y817266D01*
X828172Y819571D01*
X825866Y821340D01*
X823182Y822452D01*
X820301Y822832D01*
D02*
G37*
G36*
X819031Y785030D02*
X809080D01*
X809301Y783353D01*
X810439Y780606D01*
X812248Y778248D01*
X814607Y776438D01*
X817353Y775301D01*
X819031Y775080D01*
Y785030D01*
D02*
G37*
G36*
X641231D02*
X631280D01*
X631501Y783353D01*
X632639Y780606D01*
X634448Y778248D01*
X636807Y776438D01*
X639553Y775301D01*
X641231Y775080D01*
Y785030D01*
D02*
G37*
G36*
X450521D02*
X440571D01*
Y775080D01*
X442248Y775301D01*
X444995Y776438D01*
X447353Y778248D01*
X449163Y780606D01*
X450300Y783353D01*
X450521Y785030D01*
D02*
G37*
G36*
X831521D02*
X821571D01*
Y775080D01*
X823248Y775301D01*
X825994Y776438D01*
X828353Y778248D01*
X830163Y780606D01*
X831300Y783353D01*
X831521Y785030D01*
D02*
G37*
G36*
X591701Y797432D02*
X588820Y797052D01*
X586135Y795940D01*
X583829Y794171D01*
X582060Y791866D01*
X580948Y789181D01*
X580569Y786300D01*
X580948Y783419D01*
X582060Y780734D01*
X583829Y778429D01*
X586135Y776660D01*
X588820Y775548D01*
X591701Y775169D01*
X594582Y775548D01*
X597266Y776660D01*
X599572Y778429D01*
X601341Y780734D01*
X602453Y783419D01*
X602832Y786300D01*
X602453Y789181D01*
X601341Y791866D01*
X599572Y794171D01*
X597266Y795940D01*
X594582Y797052D01*
X591701Y797432D01*
D02*
G37*
G36*
X566301D02*
X563420Y797052D01*
X560735Y795940D01*
X558429Y794171D01*
X556660Y791866D01*
X555548Y789181D01*
X555169Y786300D01*
X555548Y783419D01*
X556660Y780734D01*
X558429Y778429D01*
X560735Y776660D01*
X563420Y775548D01*
X566301Y775169D01*
X569182Y775548D01*
X571866Y776660D01*
X574172Y778429D01*
X575941Y780734D01*
X577053Y783419D01*
X577432Y786300D01*
X577053Y789181D01*
X575941Y791866D01*
X574172Y794171D01*
X571866Y795940D01*
X569182Y797052D01*
X566301Y797432D01*
D02*
G37*
G36*
X413901D02*
X411020Y797052D01*
X408335Y795940D01*
X406029Y794171D01*
X404260Y791866D01*
X403148Y789181D01*
X402769Y786300D01*
X403148Y783419D01*
X404260Y780734D01*
X406029Y778429D01*
X408335Y776660D01*
X411020Y775548D01*
X413901Y775169D01*
X416782Y775548D01*
X419466Y776660D01*
X421772Y778429D01*
X423541Y780734D01*
X424653Y783419D01*
X425032Y786300D01*
X424653Y789181D01*
X423541Y791866D01*
X421772Y794171D01*
X419466Y795940D01*
X416782Y797052D01*
X413901Y797432D01*
D02*
G37*
G36*
X438031Y785030D02*
X428080D01*
X428301Y783353D01*
X429439Y780606D01*
X431248Y778248D01*
X433607Y776438D01*
X436353Y775301D01*
X438031Y775080D01*
Y785030D01*
D02*
G37*
G36*
X717550Y709441D02*
X714964Y709101D01*
X712554Y708103D01*
X710485Y706515D01*
X708897Y704446D01*
X707899Y702036D01*
X707559Y699450D01*
X707899Y696864D01*
X708897Y694454D01*
X710485Y692385D01*
X712554Y690797D01*
X714964Y689799D01*
X717550Y689458D01*
X720136Y689799D01*
X722546Y690797D01*
X724615Y692385D01*
X726203Y694454D01*
X727201Y696864D01*
X727542Y699450D01*
X727201Y702036D01*
X726203Y704446D01*
X724615Y706515D01*
X722546Y708103D01*
X720136Y709101D01*
X717550Y709441D01*
D02*
G37*
G36*
X718820Y684130D02*
Y675320D01*
X727630D01*
X727449Y676702D01*
X726425Y679174D01*
X724796Y681296D01*
X722674Y682925D01*
X720202Y683949D01*
X718820Y684130D01*
D02*
G37*
G36*
X716280D02*
X714898Y683949D01*
X712426Y682925D01*
X710304Y681296D01*
X708675Y679174D01*
X707652Y676702D01*
X707469Y675320D01*
X716280D01*
Y684130D01*
D02*
G37*
G36*
X727456Y734756D02*
X707644D01*
Y714944D01*
X727456D01*
Y734756D01*
D02*
G37*
G36*
X483616Y760156D02*
X463804D01*
Y740344D01*
X483616D01*
Y760156D01*
D02*
G37*
G36*
X610870Y742061D02*
X603758D01*
Y732790D01*
X610870D01*
Y742061D01*
D02*
G37*
G36*
Y730250D02*
X603758D01*
Y720979D01*
X610870D01*
Y730250D01*
D02*
G37*
G36*
X617101Y797432D02*
X614220Y797052D01*
X611535Y795940D01*
X609229Y794171D01*
X607460Y791866D01*
X606348Y789181D01*
X605969Y786300D01*
X606348Y783419D01*
X607460Y780734D01*
X609229Y778429D01*
X611535Y776660D01*
X614220Y775548D01*
X617101Y775169D01*
X619982Y775548D01*
X622666Y776660D01*
X624972Y778429D01*
X626741Y780734D01*
X627853Y783419D01*
X628232Y786300D01*
X627853Y789181D01*
X626741Y791866D01*
X624972Y794171D01*
X622666Y795940D01*
X619982Y797052D01*
X617101Y797432D01*
D02*
G37*
G36*
X821571Y797521D02*
Y787570D01*
X831521D01*
X831300Y789248D01*
X830163Y791994D01*
X828353Y794352D01*
X825994Y796162D01*
X823248Y797300D01*
X821571Y797521D01*
D02*
G37*
G36*
X819031D02*
X817353Y797300D01*
X814607Y796162D01*
X812248Y794352D01*
X810439Y791994D01*
X809301Y789248D01*
X809080Y787570D01*
X819031D01*
Y797521D01*
D02*
G37*
G36*
X641231D02*
X639553Y797300D01*
X636807Y796162D01*
X634448Y794352D01*
X632639Y791994D01*
X631501Y789248D01*
X631280Y787570D01*
X641231D01*
Y797521D01*
D02*
G37*
G36*
X387231Y810430D02*
X377280D01*
X377501Y808753D01*
X378639Y806006D01*
X380448Y803648D01*
X382807Y801838D01*
X385553Y800701D01*
X387231Y800480D01*
Y810430D01*
D02*
G37*
G36*
X501321D02*
X491371D01*
Y800480D01*
X493048Y800701D01*
X495794Y801838D01*
X498153Y803648D01*
X499963Y806006D01*
X501100Y808753D01*
X501321Y810430D01*
D02*
G37*
G36*
X488831D02*
X478880D01*
X479101Y808753D01*
X480239Y806006D01*
X482048Y803648D01*
X484407Y801838D01*
X487153Y800701D01*
X488831Y800480D01*
Y810430D01*
D02*
G37*
G36*
X399721D02*
X389771D01*
Y800480D01*
X391448Y800701D01*
X394194Y801838D01*
X396553Y803648D01*
X398363Y806006D01*
X399500Y808753D01*
X399721Y810430D01*
D02*
G37*
G36*
X440571Y797521D02*
Y787570D01*
X450521D01*
X450300Y789248D01*
X449163Y791994D01*
X447353Y794352D01*
X444995Y796162D01*
X442248Y797300D01*
X440571Y797521D01*
D02*
G37*
G36*
X769501Y797432D02*
X766620Y797052D01*
X763935Y795940D01*
X761629Y794171D01*
X759860Y791866D01*
X758748Y789181D01*
X758369Y786300D01*
X758748Y783419D01*
X759860Y780734D01*
X761629Y778429D01*
X763935Y776660D01*
X766620Y775548D01*
X769501Y775169D01*
X772382Y775548D01*
X775066Y776660D01*
X777372Y778429D01*
X779141Y780734D01*
X780253Y783419D01*
X780632Y786300D01*
X780253Y789181D01*
X779141Y791866D01*
X777372Y794171D01*
X775066Y795940D01*
X772382Y797052D01*
X769501Y797432D01*
D02*
G37*
G36*
X744101D02*
X741220Y797052D01*
X738535Y795940D01*
X736229Y794171D01*
X734460Y791866D01*
X733348Y789181D01*
X732969Y786300D01*
X733348Y783419D01*
X734460Y780734D01*
X736229Y778429D01*
X738535Y776660D01*
X741220Y775548D01*
X744101Y775169D01*
X746982Y775548D01*
X749666Y776660D01*
X751972Y778429D01*
X753741Y780734D01*
X754853Y783419D01*
X755232Y786300D01*
X754853Y789181D01*
X753741Y791866D01*
X751972Y794171D01*
X749666Y795940D01*
X746982Y797052D01*
X744101Y797432D01*
D02*
G37*
G36*
X718701D02*
X715820Y797052D01*
X713135Y795940D01*
X710829Y794171D01*
X709060Y791866D01*
X707948Y789181D01*
X707569Y786300D01*
X707948Y783419D01*
X709060Y780734D01*
X710829Y778429D01*
X713135Y776660D01*
X715820Y775548D01*
X718701Y775169D01*
X721582Y775548D01*
X724266Y776660D01*
X726572Y778429D01*
X728341Y780734D01*
X729453Y783419D01*
X729832Y786300D01*
X729453Y789181D01*
X728341Y791866D01*
X726572Y794171D01*
X724266Y795940D01*
X721582Y797052D01*
X718701Y797432D01*
D02*
G37*
G36*
X794901D02*
X792020Y797052D01*
X789335Y795940D01*
X787029Y794171D01*
X785260Y791866D01*
X784148Y789181D01*
X783769Y786300D01*
X784148Y783419D01*
X785260Y780734D01*
X787029Y778429D01*
X789335Y776660D01*
X792020Y775548D01*
X794901Y775169D01*
X797782Y775548D01*
X800466Y776660D01*
X802772Y778429D01*
X804541Y780734D01*
X805653Y783419D01*
X806032Y786300D01*
X805653Y789181D01*
X804541Y791866D01*
X802772Y794171D01*
X800466Y795940D01*
X797782Y797052D01*
X794901Y797432D01*
D02*
G37*
G36*
X438031Y797521D02*
X436353Y797300D01*
X433607Y796162D01*
X431248Y794352D01*
X429439Y791994D01*
X428301Y789248D01*
X428080Y787570D01*
X438031D01*
Y797521D01*
D02*
G37*
G36*
X540901Y797432D02*
X538020Y797052D01*
X535335Y795940D01*
X533029Y794171D01*
X531260Y791866D01*
X530148Y789181D01*
X529769Y786300D01*
X529928Y785096D01*
X528725Y784503D01*
X526587Y786640D01*
X526253Y789181D01*
X525141Y791866D01*
X523372Y794171D01*
X521066Y795940D01*
X518382Y797052D01*
X515501Y797432D01*
X512620Y797052D01*
X509935Y795940D01*
X507629Y794171D01*
X505860Y791866D01*
X504748Y789181D01*
X504369Y786300D01*
X504528Y785096D01*
X503325Y784503D01*
X501187Y786640D01*
X500853Y789181D01*
X499741Y791866D01*
X497972Y794171D01*
X495666Y795940D01*
X492982Y797052D01*
X490101Y797432D01*
X487220Y797052D01*
X484535Y795940D01*
X482229Y794171D01*
X480460Y791866D01*
X479348Y789181D01*
X478969Y786300D01*
X479128Y785096D01*
X477925Y784503D01*
X475787Y786640D01*
X475453Y789181D01*
X474341Y791866D01*
X472572Y794171D01*
X470266Y795940D01*
X467582Y797052D01*
X464701Y797432D01*
X461820Y797052D01*
X459135Y795940D01*
X456829Y794171D01*
X455060Y791866D01*
X453948Y789181D01*
X453569Y786300D01*
X453948Y783419D01*
X455060Y780734D01*
X456829Y778429D01*
X459135Y776660D01*
X461820Y775548D01*
X464701Y775169D01*
X467582Y775548D01*
X470266Y776660D01*
X472572Y778429D01*
X473671Y778501D01*
X496570Y755602D01*
Y723900D01*
X501577D01*
X501649Y722631D01*
X500481Y720882D01*
X500070Y718820D01*
X500481Y716758D01*
X500923Y716096D01*
X500244Y714826D01*
X478713D01*
X478461Y716096D01*
X478706Y716197D01*
X480775Y717785D01*
X482363Y719854D01*
X483361Y722264D01*
X483702Y724850D01*
X483361Y727436D01*
X482363Y729846D01*
X480775Y731915D01*
X478706Y733503D01*
X476296Y734501D01*
X473710Y734841D01*
X471124Y734501D01*
X468714Y733503D01*
X466645Y731915D01*
X465057Y729846D01*
X464059Y727436D01*
X463718Y724850D01*
X464059Y722264D01*
X465057Y719854D01*
X466645Y717785D01*
X468714Y716197D01*
X468959Y716096D01*
X468707Y714826D01*
X429890D01*
X392126Y752590D01*
Y775856D01*
X394066Y776660D01*
X396372Y778429D01*
X398141Y780734D01*
X399253Y783419D01*
X399632Y786300D01*
X399253Y789181D01*
X398141Y791866D01*
X396372Y794171D01*
X394066Y795940D01*
X391382Y797052D01*
X388501Y797432D01*
X385620Y797052D01*
X382935Y795940D01*
X380629Y794171D01*
X378860Y791866D01*
X377748Y789181D01*
X377369Y786300D01*
X377748Y783419D01*
X378860Y780734D01*
X380629Y778429D01*
X382935Y776660D01*
X384875Y775856D01*
Y751088D01*
X384875Y751088D01*
X385151Y749700D01*
X385937Y748524D01*
X425825Y708636D01*
X425825Y708636D01*
X427001Y707850D01*
X428388Y707574D01*
X466133D01*
X466483Y706304D01*
X465057Y704446D01*
X464059Y702036D01*
X463718Y699450D01*
X464059Y696864D01*
X465057Y694454D01*
X466645Y692385D01*
X468714Y690797D01*
X468959Y690696D01*
X468707Y689426D01*
X434572D01*
X366726Y757271D01*
Y775856D01*
X368666Y776660D01*
X370972Y778429D01*
X372741Y780734D01*
X373853Y783419D01*
X374232Y786300D01*
X373853Y789181D01*
X372741Y791866D01*
X370972Y794171D01*
X368666Y795940D01*
X365982Y797052D01*
X363101Y797432D01*
X360220Y797052D01*
X357535Y795940D01*
X355229Y794171D01*
X353460Y791866D01*
X352348Y789181D01*
X351969Y786300D01*
X352348Y783419D01*
X353460Y780734D01*
X355229Y778429D01*
X357535Y776660D01*
X359475Y775856D01*
Y755770D01*
X359475Y755769D01*
X359751Y754382D01*
X360537Y753206D01*
X430506Y683236D01*
X430506Y683236D01*
X431683Y682450D01*
X433070Y682174D01*
X433070Y682174D01*
X465638D01*
X466163Y680904D01*
X464835Y679174D01*
X463811Y676702D01*
X463629Y675320D01*
X483791D01*
X483609Y676702D01*
X482585Y679174D01*
X481257Y680904D01*
X481782Y682174D01*
X488718D01*
X530594Y640299D01*
X530550Y640080D01*
X530961Y638018D01*
X532129Y636269D01*
X533877Y635101D01*
X535940Y634691D01*
X536159Y634734D01*
X553696Y617196D01*
X553696Y617196D01*
X554873Y616410D01*
X556260Y616134D01*
X556260Y616134D01*
X646198D01*
X672014Y590318D01*
Y533027D01*
X672014Y533027D01*
X672290Y531640D01*
X673076Y530463D01*
X706043Y497496D01*
X706043Y497496D01*
X707167Y496745D01*
X721649Y482263D01*
X721597Y482196D01*
X720599Y479786D01*
X720258Y477200D01*
X720599Y474614D01*
X721597Y472204D01*
X723185Y470135D01*
X725254Y468547D01*
X727664Y467549D01*
X730250Y467209D01*
X732836Y467549D01*
X735246Y468547D01*
X737315Y470135D01*
X738903Y472204D01*
X739901Y474614D01*
X740241Y477200D01*
X739901Y479786D01*
X738903Y482196D01*
X737315Y484265D01*
X735246Y485853D01*
X732836Y486851D01*
X730250Y487191D01*
X727664Y486851D01*
X727418Y486749D01*
X711544Y502624D01*
X710420Y503374D01*
X679266Y534529D01*
Y591820D01*
X679266Y591820D01*
X678990Y593208D01*
X678204Y594384D01*
X678204Y594384D01*
X650264Y622324D01*
X649088Y623110D01*
X647700Y623386D01*
X647700Y623386D01*
X557762D01*
X541286Y639861D01*
X541329Y640080D01*
X540919Y642142D01*
X539751Y643891D01*
X538003Y645059D01*
X535940Y645470D01*
X535721Y645426D01*
X492784Y688364D01*
X491608Y689150D01*
X490220Y689426D01*
X490220Y689426D01*
X478713D01*
X478461Y690696D01*
X478706Y690797D01*
X480775Y692385D01*
X482363Y694454D01*
X482930Y695824D01*
X521738D01*
X544511Y673051D01*
X544829Y671831D01*
X543661Y670082D01*
X543251Y668020D01*
X543661Y665957D01*
X544829Y664209D01*
X546577Y663041D01*
X548640Y662630D01*
X550703Y663041D01*
X552451Y664209D01*
X553619Y665957D01*
X554030Y668020D01*
X553619Y670082D01*
X552647Y671537D01*
X552755Y672222D01*
X553716Y672641D01*
X554141Y672631D01*
X557714Y669058D01*
Y644015D01*
X557529Y643891D01*
X556361Y642142D01*
X555951Y640080D01*
X556361Y638018D01*
X557529Y636269D01*
X559277Y635101D01*
X561340Y634691D01*
X561559Y634734D01*
X568936Y627356D01*
X568936Y627356D01*
X570112Y626570D01*
X571500Y626294D01*
X650406D01*
X682174Y594527D01*
Y537236D01*
X682174Y537235D01*
X682450Y535848D01*
X683236Y534672D01*
X710252Y507656D01*
X710252Y507656D01*
X711376Y506905D01*
X725545Y492736D01*
X726721Y491950D01*
X728108Y491674D01*
X728109Y491674D01*
X739742D01*
X745674Y485742D01*
Y477320D01*
X745658Y477200D01*
X745999Y474614D01*
X746997Y472204D01*
X748585Y470135D01*
X750654Y468547D01*
X753064Y467549D01*
X755650Y467209D01*
X758236Y467549D01*
X760646Y468547D01*
X762715Y470135D01*
X764303Y472204D01*
X765301Y474614D01*
X765641Y477200D01*
X765301Y479786D01*
X764303Y482196D01*
X762715Y484265D01*
X760646Y485853D01*
X758236Y486851D01*
X755650Y487191D01*
X754196Y487000D01*
X752968Y487236D01*
X752770Y488024D01*
X752650Y488632D01*
X751864Y489808D01*
X751864Y489808D01*
X743808Y497864D01*
X742632Y498650D01*
X741244Y498926D01*
X741244Y498926D01*
X729610D01*
X718088Y510448D01*
X718543Y511789D01*
X720136Y511999D01*
X722546Y512997D01*
X724615Y514585D01*
X726203Y516654D01*
X727201Y519064D01*
X727542Y521650D01*
X727201Y524236D01*
X726203Y526646D01*
X724615Y528715D01*
X722546Y530303D01*
X720136Y531301D01*
X717550Y531641D01*
X714964Y531301D01*
X712554Y530303D01*
X710485Y528715D01*
X708897Y526646D01*
X707899Y524236D01*
X707646Y522313D01*
X706305Y521858D01*
X689426Y538737D01*
Y596028D01*
X689426Y596028D01*
X689150Y597416D01*
X688364Y598592D01*
X688364Y598592D01*
X654472Y632484D01*
X653296Y633270D01*
X651908Y633546D01*
X651908Y633546D01*
X573002D01*
X566686Y639861D01*
X566730Y640080D01*
X566319Y642142D01*
X565151Y643891D01*
X564966Y644015D01*
Y670560D01*
X564966Y670560D01*
X564690Y671947D01*
X563904Y673124D01*
X563904Y673124D01*
X529570Y707457D01*
X529939Y708672D01*
X530382Y708761D01*
X532131Y709929D01*
X533299Y711677D01*
X533709Y713740D01*
X533299Y715803D01*
X532131Y717551D01*
X531946Y717675D01*
Y723900D01*
X542173D01*
X542676Y722960D01*
X542727Y722630D01*
X542474Y721360D01*
X542474Y721360D01*
Y717675D01*
X542289Y717551D01*
X541121Y715803D01*
X540710Y713740D01*
X541121Y711677D01*
X542289Y709929D01*
X544038Y708761D01*
X546100Y708351D01*
X548162Y708761D01*
X549911Y709929D01*
X551079Y711677D01*
X551489Y713740D01*
X551079Y715803D01*
X549911Y717551D01*
X549726Y717675D01*
Y719858D01*
X553768Y723900D01*
X570230D01*
Y759460D01*
X553768D01*
X539103Y774124D01*
X539696Y775327D01*
X540901Y775169D01*
X543782Y775548D01*
X546466Y776660D01*
X548772Y778429D01*
X550541Y780734D01*
X551653Y783419D01*
X552032Y786300D01*
X551653Y789181D01*
X550541Y791866D01*
X548772Y794171D01*
X546466Y795940D01*
X543782Y797052D01*
X540901Y797432D01*
D02*
G37*
G36*
X348737Y797337D02*
X326664D01*
Y775264D01*
X348737D01*
Y797337D01*
D02*
G37*
%LPD*%
D27*
X598170Y732790D02*
X612140Y731520D01*
X363101Y755769D02*
X433070Y685800D01*
X428388Y711200D02*
X520700D01*
X561340Y670560D01*
X673100Y624840D02*
Y713740D01*
X711200Y751840D01*
X473710Y699450D02*
X523240D01*
X561340Y640080D02*
Y670560D01*
X388501Y751088D02*
X428388Y711200D01*
X624840Y525780D02*
X629920Y520700D01*
X624840Y525780D02*
Y541020D01*
X730250Y477200D02*
Y478790D01*
X561340Y640080D02*
X571500Y629920D01*
X768670Y464820D02*
X781050Y477200D01*
X751865Y464820D02*
X768670D01*
X744220Y472466D02*
X751865Y464820D01*
X744220Y472466D02*
Y485140D01*
X739140Y490220D02*
X744220Y485140D01*
X726004Y490220D02*
X739140D01*
X535940Y640080D02*
X556260Y619760D01*
X473710Y674050D02*
X479740Y668020D01*
X375920Y756484D02*
Y799120D01*
X458354Y674050D02*
X473710D01*
X711084Y505140D02*
X726004Y490220D01*
X708980Y500060D02*
X730250Y478790D01*
X685800Y537235D02*
Y596028D01*
X749300Y477200D02*
Y487244D01*
Y477200D02*
X755650D01*
X708607Y500060D02*
X708980D01*
X675640Y533027D02*
Y591820D01*
X710711Y505140D02*
X711084D01*
X680720Y535131D02*
Y593924D01*
X675640Y533027D02*
X708607Y500060D01*
X680720Y535131D02*
X710711Y505140D01*
X685800Y537235D02*
X712815Y510220D01*
X728108Y495300D02*
X741244D01*
X713188Y510220D02*
X728108Y495300D01*
X712815Y510220D02*
X713188D01*
X741244Y495300D02*
X749300Y487244D01*
X505460Y718820D02*
Y731520D01*
X508000Y734060D01*
X528320Y713740D02*
Y728980D01*
X533400Y734060D01*
X629920Y728980D02*
X644281D01*
X627380Y731520D02*
X629920Y728980D01*
X642620Y715010D02*
X655320Y727710D01*
Y799120D01*
X711200Y751840D02*
Y762000D01*
X574040Y502920D02*
X655320D01*
X546100Y721360D02*
X558800Y734060D01*
X546100Y713740D02*
Y721360D01*
X542750Y640890D02*
Y642901D01*
X517631Y668020D02*
X542750Y642901D01*
X523240Y699450D02*
X548640Y674050D01*
Y668020D02*
Y674050D01*
X556260Y619760D02*
X647700D01*
X675640Y591820D01*
X542750Y640890D02*
X558800Y624840D01*
X649804D01*
X680720Y593924D01*
X571500Y629920D02*
X651908D01*
X685800Y596028D01*
X492760Y586740D02*
X505460Y599440D01*
X599440D01*
X610410Y588470D01*
X500380Y579120D02*
X515620Y594360D01*
X485950Y572310D02*
X503201D01*
X485140Y571500D02*
X485950Y572310D01*
X515620Y594360D02*
X561340D01*
X574040Y581660D01*
X556260Y589280D02*
X574040Y571500D01*
X520171Y589280D02*
X556260D01*
X503201Y572310D02*
X520171Y589280D01*
X693301Y764659D02*
Y786300D01*
X655320Y799120D02*
X667901Y811700D01*
X375920Y799120D02*
X388501Y811700D01*
X521800Y786300D02*
X558800Y749300D01*
X515501Y786300D02*
X521800D01*
X490101D02*
X496400D01*
X533400Y749300D01*
X471000Y786300D02*
X508000Y749300D01*
X464701Y786300D02*
X471000D01*
X693301Y764659D02*
X695960Y762000D01*
X363101Y755769D02*
Y786300D01*
X667901Y723781D02*
Y786300D01*
X388501Y751088D02*
Y786300D01*
X645160Y701040D02*
X667901Y723781D01*
X433070Y685800D02*
X490220D01*
X535940Y640080D01*
D33*
X331470Y405130D02*
D03*
X660400Y287020D02*
D03*
X326390Y603250D02*
D03*
D34*
X400921Y315501D02*
D03*
X350919D02*
D03*
D35*
X340919Y288501D02*
D03*
X410921D02*
D03*
D36*
X806450Y477200D02*
D03*
D37*
X781050D02*
D03*
X755650D02*
D03*
X730250D02*
D03*
X717550Y547050D02*
D03*
Y521650D02*
D03*
Y623250D02*
D03*
Y597850D02*
D03*
Y699450D02*
D03*
Y674050D02*
D03*
X627380Y414020D02*
D03*
Y388620D02*
D03*
X660400Y414020D02*
D03*
Y388620D02*
D03*
X473710Y724850D02*
D03*
Y699450D02*
D03*
Y674050D02*
D03*
D38*
X717550Y572450D02*
D03*
Y648650D02*
D03*
Y724850D02*
D03*
X627380Y439420D02*
D03*
X660400D02*
D03*
X473710Y750250D02*
D03*
D39*
X595780Y309880D02*
D03*
X560781D02*
D03*
X525780D02*
D03*
X490779D02*
D03*
X455780D02*
D03*
D40*
X337701Y786300D02*
D03*
D41*
Y811700D02*
D03*
X363101Y786300D02*
D03*
Y811700D02*
D03*
X388501Y786300D02*
D03*
Y811700D02*
D03*
X413901Y786300D02*
D03*
Y811700D02*
D03*
X439301Y786300D02*
D03*
Y811700D02*
D03*
X464701Y786300D02*
D03*
Y811700D02*
D03*
X490101Y786300D02*
D03*
Y811700D02*
D03*
X515501Y786300D02*
D03*
Y811700D02*
D03*
X540901Y786300D02*
D03*
Y811700D02*
D03*
X566301Y786300D02*
D03*
Y811700D02*
D03*
X591701Y786300D02*
D03*
Y811700D02*
D03*
X617101Y786300D02*
D03*
Y811700D02*
D03*
X642501Y786300D02*
D03*
Y811700D02*
D03*
X667901Y786300D02*
D03*
Y811700D02*
D03*
X693301Y786300D02*
D03*
Y811700D02*
D03*
X718701Y786300D02*
D03*
Y811700D02*
D03*
X744101Y786300D02*
D03*
Y811700D02*
D03*
X769501Y786300D02*
D03*
Y811700D02*
D03*
X794901Y786300D02*
D03*
Y811700D02*
D03*
X820301Y786300D02*
D03*
Y811700D02*
D03*
D42*
X289001Y309001D02*
D03*
X869000Y799000D02*
D03*
Y309001D02*
D03*
X289001Y799000D02*
D03*
D43*
X459740Y469900D02*
D03*
X660400Y636270D02*
D03*
X621030Y638810D02*
D03*
X642620Y609600D02*
D03*
X664210Y588010D02*
D03*
X623570Y584200D02*
D03*
X732790Y504190D02*
D03*
X708660Y485140D02*
D03*
X505460Y514350D02*
D03*
X461010Y693420D02*
D03*
X433070Y703580D02*
D03*
X379730Y754380D02*
D03*
X692150Y635000D02*
D03*
X727710Y765810D02*
D03*
X748030Y741680D02*
D03*
X746760Y662940D02*
D03*
X735330Y532130D02*
D03*
X748030Y557530D02*
D03*
X566420Y368300D02*
D03*
X474980D02*
D03*
X646430Y546100D02*
D03*
X643890Y469900D02*
D03*
X618490Y488950D02*
D03*
X527050Y544830D02*
D03*
X565150D02*
D03*
X561340Y499110D02*
D03*
X571500Y472440D02*
D03*
X609600Y402590D02*
D03*
X608330Y425450D02*
D03*
X572770Y424180D02*
D03*
X556260Y394970D02*
D03*
X492760Y393700D02*
D03*
X431800Y325120D02*
D03*
X295910Y372110D02*
D03*
X397510Y360680D02*
D03*
X474980Y444500D02*
D03*
X332740Y760730D02*
D03*
X415290Y754380D02*
D03*
X304800Y765810D02*
D03*
Y647700D02*
D03*
X283210Y458470D02*
D03*
X295910Y392430D02*
D03*
X312420Y445770D02*
D03*
X433070Y593090D02*
D03*
Y678180D02*
D03*
X436880Y720090D02*
D03*
X676910Y758190D02*
D03*
X628650Y759460D02*
D03*
X661670Y664210D02*
D03*
X637540Y673100D02*
D03*
X614680Y668020D02*
D03*
X576580Y692150D02*
D03*
X533400Y669290D02*
D03*
X571500Y670560D02*
D03*
X547370Y490220D02*
D03*
X264160Y396240D02*
D03*
X506730Y690880D02*
D03*
X599820Y523620D02*
D03*
X624840Y541020D02*
D03*
X629920Y520700D02*
D03*
X535940Y640080D02*
D03*
X561340D02*
D03*
X505460Y718820D02*
D03*
X528320Y713740D02*
D03*
X548640Y668020D02*
D03*
X644281Y728980D02*
D03*
X642620Y715010D02*
D03*
X574040Y571500D02*
D03*
Y502920D02*
D03*
X673100Y624840D02*
D03*
X655320Y502920D02*
D03*
X541020Y363220D02*
D03*
X500380D02*
D03*
X388620Y302260D02*
D03*
X546100Y713740D02*
D03*
X520700Y688340D02*
D03*
X534670Y506730D02*
D03*
X579120Y754380D02*
D03*
X485140Y571500D02*
D03*
X500380Y579120D02*
D03*
X574040Y581660D02*
D03*
X492760Y586740D02*
D03*
X612140Y589280D02*
D03*
X343132Y644420D02*
D03*
X389219Y334742D02*
D03*
X372110Y644420D02*
D03*
X400812D02*
D03*
X386080Y656590D02*
D03*
X358140D02*
D03*
X543560Y571500D02*
D03*
X557530D02*
D03*
X525780Y576580D02*
D03*
X508000Y626110D02*
D03*
X524510Y631190D02*
D03*
X444500Y383540D02*
D03*
X474980D02*
D03*
X459740Y370840D02*
D03*
X692150Y679450D02*
D03*
X633730Y692150D02*
D03*
X572770Y402590D02*
D03*
X685800D02*
D03*
X673100Y426720D02*
D03*
X688340Y496570D02*
D03*
X684530Y694690D02*
D03*
X721360Y741680D02*
D03*
X427990Y392430D02*
D03*
X476250Y458470D02*
D03*
X443230D02*
D03*
X645160Y701040D02*
D03*
X449580Y510540D02*
D03*
X462280Y563880D02*
D03*
Y617220D02*
D03*
X505460Y562610D02*
D03*
D44*
X558800Y734060D02*
D03*
Y749300D02*
D03*
X533400Y734060D02*
D03*
Y749300D02*
D03*
X508000Y734060D02*
D03*
Y749300D02*
D03*
D45*
X558800Y741680D02*
D03*
X533400D02*
D03*
X508000D02*
D03*
D46*
X711200Y762000D02*
D03*
X695960D02*
D03*
X612140Y731520D02*
D03*
X627380D02*
D03*
D47*
X703580Y762000D02*
D03*
X619760Y731520D02*
D03*
%TF.MD5,4ead750a8e93716381633df8f9e3a91a*%
M02*
